<?xml version="1.0" encoding="UTF-8"?>
<svg id="Layer_1" data-name="Layer 1" xmlns="http://www.w3.org/2000/svg" viewBox="0 0 561.01 617.13">
  <defs>
    <style>
      .cls-1 {
        fill: #111112;
      }

      .cls-2 {
        fill: #e9d0e5;
      }

      .cls-3 {
        fill: #4a73a9;
      }

      .cls-4 {
        fill: #788cb9;
      }

      .cls-5 {
        fill: #3c67a5;
      }

      .cls-6 {
        fill: #6689b7;
      }

      .cls-7 {
        fill: #394d9a;
      }

      .cls-8 {
        fill: #fff;
      }

      .cls-9 {
        fill: #3d6da8;
      }

      .cls-10 {
        fill: #8e9dce;
      }
    </style>
  </defs>
  <path class="cls-10" d="M176.07,361.78c-2.08,2.63-6.36,8.8-7.17,17.65-.26,2.89-1.36,14.81,6.89,22.89,8.26,8.09,23.05,9.54,33.64,1.93,11-7.9,14.01-23.1,8.27-33.92-7.03-13.25-26.45-18.54-41.64-8.55Z"/>
  <path class="cls-10" d="M322.21,402.59c-1.08,1.21-7.98,8.73-18.75,8.55-12.62-.21-19.52-10.82-20.68-12.68-8.05-12.98-3.85-31.82,3.31-34.19,5.64-1.87,16.02,5.53,36.12,38.33Z"/>
  <path class="cls-7" d="M219.04,276.48c-2.55,1.48-6.95,4.63-10.01,10.33-3.51,6.49-3.32,12.63-3.04,15.34-4.28-2.5-7.16-7.15-7.16-12.47,0-7.96,6.45-14.42,14.42-14.42,2.06,0,4.02.43,5.79,1.22Z"/>
  <path class="cls-2" d="M76.84,339.76c7.5,15.29,16.37,21.61,22.86,24.59,10.69,4.91,16.06,1.27,41.9,3.81,16.42,1.61,28.31,4.47,32.55,5.54,16.76,4.24,21.08,7.79,32.55,11.43,5.68,1.8,11.2,3.02,66.15,2.42,30.69-.33,39.66-.83,51.95-5.19,10.67-3.79,18.83-8.72,24.24-12.47,4.82,5.46,13.97,14.4,28.05,20.43,6.42,2.75,31.12,13.34,56.8,1.39,3.66-1.7,19.9-9.27,28.05-26.32,5.38-11.25,5.09-23.66,4.5-48.48-.4-16.91-2-24.17,2.42-34.29,3.92-8.97,8.94-15.06,13.87-18.8-4.88.06-10.62,1.02-16.64,5.64-9.93,7.61-9.74,19.93-14.2,39.48-5.62,24.66-8.43,36.99-16.97,44.68-11.07,9.97-23.71,5.23-67.88,2.42-39.9-2.54-33.48,1.08-78.61-1.73-35.42-2.21-53.12-3.32-73.77-7.62-57.01-11.89-74.81-17.32-74.81-17.32-9.02-2.75-22.28-7.07-38.1-3.12-11.4,2.85-19.75,8.91-24.94,13.51Z"/>
  <path class="cls-5" d="M220.24,275.81c-.32.17-.73.39-1.2.67-1.77-.79-3.73-1.22-5.79-1.22-7.97,0-14.42,6.46-14.42,14.42,0,5.32,2.88,9.97,7.16,12.47.02.22.05.42.07.6-4.25-.38-12.71-1.74-20.78-7.81-15.36-11.55-16.19-30.26-16.27-32.98,3.78-1.52,13.47-4.83,25.51-2.31,15,3.16,23.45,13.25,25.72,16.16Z"/>
  <path class="cls-5" d="M250.82,240.19c-.36.07-.81.15-1.35.28-1.45-1.29-3.19-2.29-5.15-2.91-7.6-2.4-15.7,1.82-18.09,9.41-1.6,5.07-.25,10.37,3.08,14.05-.05.22-.08.42-.11.59-3.94-1.64-11.6-5.48-17.47-13.7-11.17-15.64-6.33-33.73-5.59-36.35,4.06-.31,14.3-.55,25.02,5.47,13.35,7.53,18.38,19.69,19.66,23.15Z"/>
  <path class="cls-7" d="M249.48,240.47c-2.88.64-8.02,2.32-12.65,6.84-5.3,5.13-6.97,11.05-7.52,13.71-3.33-3.67-4.68-8.97-3.08-14.05,2.4-7.59,10.49-11.81,18.09-9.41,1.96.62,3.7,1.62,5.15,2.91Z"/>
  <path class="cls-5" d="M292.15,228.9c-.31-.19-.71-.42-1.2-.68-.24-1.92-.9-3.82-1.97-5.58-4.14-6.81-13.01-8.96-19.81-4.83-4.55,2.76-7.02,7.64-6.93,12.6-.18.13-.33.26-.48.37-1.88-3.83-5.12-11.76-4.12-21.81,1.89-19.13,17.44-29.56,19.73-31.04,3.26,2.44,11.13,9,15.23,20.6,5.09,14.46.86,26.92-.44,30.37Z"/>
  <path class="cls-7" d="M290.95,228.22c-2.59-1.41-7.57-3.53-14.03-3.19-7.37.37-12.52,3.73-14.69,5.37-.09-4.96,2.39-9.83,6.93-12.6,6.8-4.14,15.67-1.98,19.81,4.83,1.07,1.76,1.72,3.66,1.97,5.58Z"/>
  <path class="cls-5" d="M357.91,295.08c.02-.36.05-.83.05-1.37,1.59-1.1,2.98-2.56,4.05-4.32,4.13-6.81,1.95-15.68-4.85-19.81-4.55-2.76-10.02-2.71-14.38-.34-.2-.1-.39-.18-.55-.25,2.53-3.44,8.08-9.97,17.45-13.72,17.84-7.14,34.27,1.85,36.64,3.19-.66,4.02-2.86,14.02-11.25,23.01-10.48,11.19-23.49,13.18-27.15,13.61Z"/>
  <path class="cls-7" d="M357.96,293.7c.06-2.95-.35-8.34-3.64-13.92-3.73-6.37-9.08-9.39-11.54-10.55,4.36-2.36,9.83-2.41,14.38.34,6.81,4.13,8.98,12.99,4.85,19.81-1.07,1.76-2.45,3.21-4.05,4.32Z"/>
  <path class="cls-5" d="M331.68,251.91c-.09-.35-.21-.8-.38-1.32,1.17-1.54,2.04-3.35,2.52-5.36,1.83-7.76-2.98-15.52-10.73-17.34-5.18-1.22-10.36.52-13.78,4.11-.22-.03-.42-.05-.6-.07,1.34-4.05,4.61-11.97,12.37-18.43,14.76-12.3,33.17-8.82,35.83-8.27.61,4.03,1.61,14.22-3.6,25.36-6.52,13.88-18.28,19.79-21.63,21.33Z"/>
  <path class="cls-7" d="M331.31,250.59c-.86-2.82-2.91-7.83-7.76-12.11-5.51-4.9-11.53-6.13-14.23-6.48,3.41-3.59,8.6-5.33,13.78-4.11,7.75,1.83,12.56,9.59,10.73,17.34-.47,2.01-1.34,3.81-2.52,5.36Z"/>
  <path class="cls-6" d="M111.24,339.73c-2.29,2.17-6.12,5.3-11.53,7.58-9.46,3.99-26.66,6.63-35.92-3.62-6.43-7.12-5.74-16.8-5.6-18.78.65-9.24,5.75-15.15,14.83-25.37,12.52-14.1,19.49-21.94,31.97-24.72,1.93-.43,13.13-2.77,25.05,1.98,6.65,2.65,7.04,4.92,22.08,15.49,14.55,10.22,18.35,11.02,21.09,11.2,3.31.22,9.57-.14,19.44-7.25,17.11-12.32,17.14-24.78,30.32-41.19,3.72-4.63,17.7-21.6,40.2-28.34,3.72-1.11,29.41-8.4,53.39,4.28,32.55,17.22,51.54,65.73,54.7,73.82,1.14,2.9,4.31,11.31,12.19,18.78,4.05,3.83,14.81,14.03,28.67,11.53,14.58-2.63,21.21-17.21,21.75-18.45,3.5-8.07.1-10.11,2.97-19.77,5.1-17.16,20.33-25.87,22.41-27.02,8.72-4.82,17.13-5.82,22.41-5.93-4.65,1.87-11.47,5.4-16.81,12.19-2.68,3.41-6.42,9.47-9.89,38.56-1.84,15.46-1.32,18.22-3.42,30.28-2.3,13.18-3.44,19.77-6.34,23.99-11.24,16.37-38.04,15.12-43.02,14.89-21.49-1-36.44-12.43-42.19-17.37-.19,3.82.06,10.36-.11,25.5-.15,13.37-7.32,16.73-8.99,18.07-9.48,7.59-20.13,7.59-23.44,7.45-3.88-.17-16.59-.72-23.44-10.48-4.05-5.78-4.11-12.03-4.14-14.89-.09-10.47,5.2-17.89,7.17-20.4-10.54,1.19-22.07,2.02-34.47,2.21-9.04.13-17.61-.09-25.64-.55.59,4.83,1.05,12.03,0,20.68-.57,4.65-.85,6.97-1.93,9.38-5.67,12.59-24.24,14.75-25.64,14.89-3.04.31-19.56,2.01-28.4-8.82-8.61-10.56-7.14-29.59,6.07-43.84-3.25-3.16-8.82-7.77-16.82-10.75-8.58-3.2-16.25-3.16-24.54-3.03-14.2.21-16.47,2.93-23.99,1.38-5.43-1.12-12.72-4.3-20.43-13.51Z"/>
  <path class="cls-4" d="M227.27,265.13c-.32.17-.73.39-1.2.67-1.77-.79-3.73-1.22-5.79-1.22-7.97,0-14.42,6.46-14.42,14.42,0,5.32,2.88,9.97,7.16,12.47.02.22.05.42.07.6-4.25-.38-12.71-1.74-20.78-7.81-15.36-11.55-16.19-30.26-16.27-32.98,3.78-1.52,13.47-4.83,25.51-2.31,15,3.16,23.45,13.25,25.72,16.16Z"/>
  <path class="cls-9" d="M226.07,265.8c-2.55,1.48-6.95,4.63-10.01,10.33-3.51,6.49-3.32,12.63-3.04,15.34-4.28-2.5-7.16-7.15-7.16-12.47,0-7.96,6.45-14.42,14.42-14.42,2.06,0,4.02.43,5.79,1.22Z"/>
  <path class="cls-4" d="M258.06,236.42c-.36.05-.82.12-1.36.23-1.4-1.34-3.1-2.4-5.04-3.09-7.51-2.67-15.75,1.25-18.42,8.74-1.79,5.01-.63,10.36,2.56,14.15-.06.21-.09.41-.14.59-3.88-1.78-11.39-5.9-16.95-14.33-10.59-16.03-5.1-33.94-4.26-36.53,4.07-.16,14.31-.03,24.81,6.39,13.07,8.01,17.64,20.35,18.81,23.85Z"/>
  <path class="cls-9" d="M256.7,236.65c-2.9.54-8.1,2.03-12.9,6.37-5.48,4.94-7.37,10.78-8.01,13.43-3.19-3.79-4.35-9.14-2.56-14.15,2.67-7.5,10.92-11.42,18.42-8.74,1.94.69,3.64,1.75,5.04,3.09Z"/>
  <path class="cls-4" d="M303.04,231.96c-.31-.18-.71-.42-1.2-.68-.25-1.92-.9-3.82-1.97-5.58-4.14-6.81-13.02-8.96-19.82-4.82-4.54,2.77-7.02,7.64-6.93,12.6-.18.13-.33.26-.48.37-1.89-3.83-5.12-11.76-4.14-21.81,1.88-19.13,17.43-29.56,19.71-31.05,3.26,2.44,11.13,8.99,15.24,20.59,5.1,14.46.88,26.92-.43,30.37Z"/>
  <path class="cls-9" d="M301.84,231.28c-2.59-1.41-7.57-3.53-14.03-3.18-7.37.38-12.51,3.73-14.68,5.38-.09-4.96,2.38-9.83,6.93-12.6,6.8-4.14,15.67-1.99,19.82,4.82,1.07,1.76,1.72,3.66,1.97,5.58Z"/>
  <path class="cls-4" d="M338.87,260.88c-.1-.35-.24-.79-.42-1.31,1.13-1.58,1.94-3.41,2.35-5.43,1.59-7.81-3.45-15.42-11.25-17.01-5.21-1.06-10.34.83-13.65,4.53-.22-.02-.42-.03-.6-.05,1.22-4.09,4.24-12.11,11.8-18.8,14.38-12.75,32.88-9.82,35.56-9.36.73,4.01,2.04,14.16-2.83,25.46-6.09,14.07-17.66,20.33-20.97,21.98Z"/>
  <path class="cls-9" d="M338.46,259.57c-.94-2.79-3.15-7.73-8.12-11.87-5.66-4.73-11.71-5.77-14.42-6.04,3.3-3.69,8.44-5.59,13.65-4.53,7.8,1.59,12.84,9.2,11.25,17.01-.41,2.02-1.22,3.85-2.35,5.43Z"/>
  <path class="cls-4" d="M358.16,299.14c.03-.36.07-.82.09-1.37,1.62-1.06,3.05-2.47,4.16-4.21,4.32-6.7,2.38-15.62-4.31-19.93-4.47-2.88-9.94-2.98-14.36-.74-.2-.1-.38-.19-.54-.27,2.62-3.37,8.35-9.74,17.82-13.23,18.03-6.65,34.21,2.79,36.53,4.2-.77,4-3.24,13.94-11.88,22.69-10.78,10.89-23.84,12.53-27.52,12.86Z"/>
  <path class="cls-9" d="M358.25,297.77c.14-2.95-.13-8.35-3.26-14.01-3.55-6.47-8.82-9.63-11.25-10.87,4.42-2.24,9.89-2.14,14.36.74,6.69,4.31,8.62,13.23,4.31,19.93-1.12,1.73-2.54,3.15-4.16,4.21Z"/>
  <circle class="cls-1" cx="117.79" cy="300.37" r="16.44"/>
  <circle class="cls-8" cx="111.6" cy="293.88" r="6.19"/>
  <circle class="cls-8" cx="123.57" cy="291.24" r="3.04"/>
  <circle class="cls-8" cx="107.13" cy="305.04" r="2.54"/>
  <circle class="cls-3" cx="436.22" cy="334.04" r="5.31"/>
  <circle class="cls-3" cx="438.87" cy="321.1" r="3.48"/>
  <circle class="cls-3" cx="388.47" cy="339.34" r="5.47"/>
  <circle class="cls-3" cx="403.06" cy="349.29" r="3.48"/>
  <circle class="cls-3" cx="392.45" cy="351.28" r="1.99"/>
  <circle class="cls-3" cx="339.35" cy="312.81" r="4.8"/>
  <circle class="cls-3" cx="313.85" cy="314.8" r="11.94"/>
  <circle class="cls-3" cx="335.74" cy="330.55" r="5.96"/>
  <circle class="cls-3" cx="305.92" cy="261.62" r="8.44"/>
  <circle class="cls-3" cx="256.7" cy="266.05" r="1.43"/>
  <circle class="cls-3" cx="235.17" cy="294.28" r="6.09"/>
  <circle class="cls-3" cx="244.55" cy="300.37" r="3.4"/>
  <circle class="cls-3" cx="257.45" cy="358.58" r="4.78"/>
  <circle class="cls-3" cx="334.55" cy="387.57" r="6.16"/>
  <circle class="cls-3" cx="152.35" cy="322.43" r="4.31"/>
  <circle class="cls-3" cx="81.38" cy="305.04" r="5.45"/>
</svg>