<?xml version="1.0" encoding="UTF-8"?>
<svg id="Layer_1" data-name="Layer 1" xmlns="http://www.w3.org/2000/svg" viewBox="0 0 561.01 617.13">
  <defs>
    <style>
      .cls-1 {
        fill: none;
        stroke: #47629d;
        stroke-miterlimit: 10;
        stroke-width: .74px;
      }

      .cls-2 {
        fill: #111112;
      }

      .cls-3 {
        fill: #e9d0e5;
      }

      .cls-4 {
        fill: #6089b7;
      }

      .cls-5 {
        fill: #8b9cce;
      }

      .cls-6 {
        fill: #fff;
      }
    </style>
  </defs>
  <path class="cls-5" d="M310.05,341.32c-24.3-14.85-32.52-31.04-35.74-39.96-4.22-11.68-8.27-34.08-7.32-54.39.16-3.46.59-9.52-1.27-17.31-2.68-11.25-8.43-18.97-12.08-23.55-37.75-47.37-65.88-66.74-65.88-66.74,0,0-55.14-37.98-117.99-39.84-11.24-.33-13.03,2.98-13.35,3.67-2.13,4.57,5.41,12.22,7.75,14.64,11.35,11.7,44.86,49.13,58.99,74.93,21.28,38.84,19.57,89.59,14.21,103.35-.56,1.44-2.98,7.13-2.58,14.65.44,8.36,4.11,14.56,6.03,17.62,10.02,16.03,22.89,28.02,27.99,33.61,8.44,9.25,17.38,24.83,18.95,52.53,40.76-24.4,81.53-48.8,122.29-73.2Z"/>
  <path class="cls-5" d="M348.85,337.88c19.87,8.35,60.42,25.81,80.01,67.91,19.24,41.36,18.59,77.98,14.05,89.77-.79,2.06-4.4,7.14-9.37,7.62-5.28.51-9.75-4.65-11.32-6.45-14.06-16.16-19.67-29.62-41.65-46.06-40.29-30.13-71.31-13.76-82.28-31.92-6.2-10.27-.06-25.82,50.55-80.88Z"/>
  <path class="cls-5" d="M271.83,452.33c.59,2.29,3.05,12.86-3,23.65-5.05,9-12.98,12.7-15.53,13.77-.22,3.68-1.33,13.78-9.18,22.06-.43.46-10.68,10.99-21.71,9.53-1.43-.19-5.56-.74-6.35-3.18-.67-2.05,1.37-4.34,1.59-4.59,2.12-2.33,4.61-1.86,7.59-3.18,2.07-.91,4.66-2.82,6.88-7.17-2.62.41-5.83,1.23-9.18,2.94-3.93,2.01-4.87,3.61-7.94,4.06-.73.11-5.59.73-8.82-2.82-1.93-2.11-2.92-5.31-2.12-8.12.91-3.19,3.82-4.84,5.82-6,0,0,5.98-3.47,20.47-13.41,5.59-3.84,9.62-6.6,13.41-11.47,4.88-6.27,6.86-12.8,7.77-17.12,6.77.35,13.53.71,20.3,1.06Z"/>
  <path class="cls-4" d="M496.09,310.76c-1.79,1.7-3.83,2.22-4.88,2.48-6.87,1.68-13.1-2.95-14.36-3.93-28.85,8.22-45.38,7.79-52.7,7.07-18.72-1.82-28.08-2.73-30.67-4.12-1.18-.64-5.84-3.32-9.24-1.5-1.41.75-2.1,2.01-2.36,2.48-5.5,9.98-6.53,8.16-9.49,14.85-.4.91-.84,1.97-1.33,3.24-4.28,11.14-6.33,22.14-7.67,28.31-2.7,12.52-6.29,29.1-16.12,45.03-7.26,11.77-15.35,19.02-24.19,26.94-7.47,6.7-16.96,15.08-31.65,22.22-10.54,5.12-22.57,10.96-38.54,9.83-5.81-.41-10.83-1.65-14.82-3.01-1.67-.56-3.15-1.15-4.45-1.71-3.69,3.48-11.23,9.66-22.62,12.98-9.57,2.8-17.8,2.38-22.61,1.77-.96,3.98-3.9,13.72-12.98,21.24-2.19,1.82-10.46,8.47-21.63,8.26-1.9-.04-11.1-.22-13.17-5.12-.55-1.3-.75-3.29.2-4.72,1.34-2.02,4.02-1.45,7.47-2.75,1.96-.74,4.53-2.22,7.08-5.5-3.68.73-6.78,1.04-9.05,1.18-8.24.5-12.23-.79-13.37-1.18-3.26-1.13-4.67-2.39-5.5-3.35-.57-.65-2.63-3.02-2.17-5.7.33-1.9,1.79-3.13,2.56-3.74,7.65-5.99,24.45-11.78,24.45-11.78,15.51-5.35,18.42-8.09,20.04-10.72.98-1.59,3.44-5.6,2.79-10.71-.14-1.15-.54-4.26-2.79-6.53-3.38-3.39-8.96-2.9-10.72-2.79-11.41.7-24.53-4.48-39.13-10.25,0,0-19.03-7.52-29.35-21.15-3.99-5.27-3.03-7.31-2.79-7.73.96-1.73,3.94-2.33,5.59-1.87,13.6,3.85,33.44,9.6,45.08,11.01,12.96,1.57,24.74-.82,42.96-14.73,20.59-15.72,20.39-18.67,41-31.22,25.33-15.41,36.23-9.55,67.08-28.41,6.46-3.95,14.69-9.53,22.36-19.1,7.14-8.9,10.96-17.71,13.05-23.76-3.5-5.85-15-26.73-9.32-52.18,2.27-10.18,13.5-17.76,10.25-23.29-14.54-24.7-22.93-39.81-28.88-53.57-.76-1.74-10.79-19.36-16.77-39.14-1.51-4.96-1.01-10.91,2.32-13.51,3.02-2.35,7.77-1.16,11.18,0,17.35,9.09,34.48,23.76,34.48,23.76,40.82,31.74,44.39,33,72.21,54.51,2.08,1.61,11.23,6.17,22.36,13.97,21.12,14.81,25.14,22.55,26.55,25.63,2.03,4.43,4.71,12.48,3.26,24.22,10,9.5,18.11,17.99,24.23,24.69,6.09,6.68,15.37,22.23,20.03,34.01.66,1.67-.16,6.14-3.26,9.09Z"/>
  <path class="cls-1" d="M405,286.52s43.55,22.42,71.85,22.78"/>
  <path class="cls-2" d="M408.1,226.4c9.21,7.88,11.59,20.89,6.12,30.72-6.12,11.01-21.02,16.12-31.58,9.79-11.31-6.78-13.18-24-4.9-34.39,6.77-8.49,19.43-11.3,30.36-6.12Z"/>
  <path class="cls-6" d="M395.37,231.41c3.23,3.06,2.17,8.72-.5,11.87-2.95,3.49-8.76,4.97-11.99,2.33-3.59-2.94-2.81-10.03,1.1-13.46,2.93-2.58,8.28-3.67,11.38-.73Z"/>
  <path class="cls-3" d="M372.39,328.09c-.4.91-.84,1.97-1.33,3.24-4.28,11.14-6.33,22.14-7.67,28.31-2.7,12.52-6.29,29.1-16.12,45.03-7.26,11.77-15.35,19.02-24.19,26.94-7.47,6.7-16.96,15.08-31.65,22.22-10.54,5.12-22.57,10.96-38.54,9.83-5.81-.41-10.83-1.65-14.82-3.01,42.98-16.37,68.29-38.5,83.69-56.36,23.81-27.6,39.63-63.21,50.63-76.2Z"/>
</svg>