<?xml version="1.0" encoding="UTF-8"?>
<svg id="Layer_1" data-name="Layer 1" xmlns="http://www.w3.org/2000/svg" viewBox="0 0 561.01 617.13">
  <defs>
    <style>
      .cls-1 {
        fill: #111112;
      }

      .cls-2 {
        fill: #782031;
      }

      .cls-3 {
        fill: #e9d0e5;
      }

      .cls-4 {
        fill: #6089b7;
      }

      .cls-5 {
        fill: #8b9cce;
      }

      .cls-6 {
        fill: #4a73a9;
      }

      .cls-7 {
        fill: #fff;
      }
    </style>
  </defs>
  <path class="cls-5" d="M286.61,406.7c.75,1.82,4.15,10.62,0,19.57-4.79,10.32-15.84,12.74-19.97,13.64-7.02,1.54-19.98,1.97-25.31-5.54-1.77-2.5-2.1-5.29-2.77-10.87-.87-7.35-.38-13.48.2-17.6,15.95.26,31.9.53,47.85.79Z"/>
  <path class="cls-5" d="M397.73,364.58c.62,13.56,2.39,24.34,3.95,31.83,2.17,10.42,4.18,15.74,2.17,23.53-.67,2.62-3.08,11.98-12.06,17-8.71,4.87-17.58,2.3-19.38,1.78-9.32-2.7-14.2-9.78-17.4-14.43-6.46-9.39-7.81-19.02-8.11-24.32,16.94-11.8,33.88-23.6,50.82-35.39Z"/>
  <path class="cls-3" d="M420.3,195.35c2.71,10.97,7.78,29.96,9.39,49.38,1.93,23.3,4.34,56.22-8.23,93.41-7.34,21.72-14.37,42.52-34.36,59.04-28.36,23.45-64.68,23.31-83.57,23.23-19.41-.08-41.35-3.81-61.63-7.26-11.17-1.9-20.39-3.78-26.78-5.16.21-5.28,1.37-12.61,6.29-18.71,12.3-15.26,35.53-7.25,66.47-12.26,10.38-1.68,47.7-7.72,70.98-36.14,20.84-25.43,21.46-57.83,21.78-74.69.12-6.42-4.85-36.69-9.48-53.16-2.71-9.62,15.96.11,13.12-5.33,7.85-6.35-1.33-13.09,6.53-19.44,10.43,3.39,19.05,3.7,29.49,7.09Z"/>
  <path class="cls-4" d="M426.6,222.26c-4.4-3.15-6.96-6.38-8.48-8.73-3.57-5.52-3.94-10.1-8.73-12.97-.7-.42-3.31-1.98-4.99-.99-1.26.74-1.41,2.6-1.49,3.24-.69,5.42-7.74,12.38-14.47,14.96-9.31,3.58-18.31-1.1-19.95-1.99-10.91,6.99-20.93,10.3-27.69,11.97-8.59,2.13-21.58,10.16-36.68,5.57-2.06-.63-3.96-1.77-5.72-3.14,1.02-.57,2.17-1.2,3.46-1.91,9.33-5.12,10.95-5.55,13.04-8.3,2.96-3.9,3.67-8.24,3.85-10.97-11.16,4.86-20.31,8.51-26.67,10.97-1.12.43-2.18.84-3.18,1.22-.08-.06-.16-.12-.23-.17-2.02.56-6.48,1.49-11.72,0-.67-.2-8.36-2.52-12.72-9.98-1.17-2.01-3.98-7.58-2.25-18.21,5.11-31.34,30.68-51.13,30.68-51.13,21.95-16.98,58.96-28.16,87.8-12.22,16.45,9.1,25.55,23.3,31.18,36.16,10.31,23.57,10.74,38.07,14.96,56.62Z"/>
  <path class="cls-4" d="M318.86,208.92c-.18,2.73-.89,7.07-3.85,10.97-2.09,2.75-3.71,3.18-13.04,8.3-.48.26-.94.52-1.38.76,3.02-2.29,5.24-4.54,6.8-6.3,2.17-2.45,5.67-6.43,8.15-12.29,1.09-.47,2.19-.95,3.32-1.44Z"/>
  <path class="cls-4" d="M373.44,222.05c1.5-.29,11.17,27.57,11.8,59.66.39,19.83.13,45.56-14.93,69.87-32.37,52.25-111.73,46.46-121.01,45.74-9.5-.74-16.38-2.21-18.1-2.54-3.82-.74-18.41-3.55-27.31,1.59-15.53,8.95-11.19,40.55-10.8,43.19.78,5.29,4.21,28.4,23.5,40.34,10.38,6.42,20.62,6.68,32.4,6.99,17.49.45,31.5-3.53,40.02-6.67-5.52,6.47-15.31,16.3-30.17,23.82-6.51,3.3-26.85,13.28-50.82,10.16-44.78-5.83-66.71-52.81-69.24-58.44-16.78-37.42-5.65-72.43-2.22-83.21,7.78-24.46,21.05-39.79,33.35-53.99,16.21-18.72,31.14-32.28,57.8-44.15,19.85-8.84,54.63-1.59,54.63-1.59,13.83,3.46,20.2,8.47,35.25,8.26,5.76-.08,18.51-.42,31.44-8.58,3.23-2.03,19.07-12.5,23.19-30.81,2.44-10.85.41-19.48,1.22-19.64Z"/>
  <path class="cls-4" d="M366.89,340.86c.92,21.89,4.2,38.92,7.12,50.62,3.44,13.81,7,22.8,2.97,33.61-.52,1.38-6.05,15.51-19.77,19.18-14.95,4-29.39-7.14-35.79-17.4-6.14-9.85-5.62-20.09-5.34-25.51.67-12.99,6-22.46,8.9-26.89,13.97-11.2,27.95-22.41,41.92-33.61Z"/>
  <path class="cls-4" d="M245.48,386.73c1.82,5.06,4.1,12.35,5.73,21.35,2.19,12.1,3.29,18.15.79,24.12-3.91,9.35-14.38,15.7-24.72,16.41-15.87,1.09-26-11.48-28.08-14.24-9.1-12.07-9.67-29.47-1.78-44.69,16.02-.99,32.03-1.98,48.05-2.97Z"/>
  <circle class="cls-1" cx="353.57" cy="162.62" r="23.92"/>
  <circle class="cls-7" cx="344.01" cy="154.16" r="6.98"/>
  <circle class="cls-7" cx="358.91" cy="151.21" r="2.39"/>
  <circle class="cls-6" cx="302.08" cy="151.21" r="8.04"/>
  <circle class="cls-6" cx="288.13" cy="156.29" r="2.96"/>
  <circle class="cls-6" cx="326.61" cy="210.84" r="5.81"/>
  <circle class="cls-6" cx="404.78" cy="179.49" r="1.22"/>
  <circle class="cls-6" cx="363.79" cy="274.3" r="6.09"/>
  <circle class="cls-6" cx="340.71" cy="313.73" r="11.22"/>
  <circle class="cls-6" cx="322.44" cy="310.75" r="6.14"/>
  <circle class="cls-6" cx="322.44" cy="328.16" r="6.14"/>
  <circle class="cls-6" cx="334.62" cy="400.28" r="8.33"/>
  <circle class="cls-6" cx="268.59" cy="290.97" r="5.13"/>
  <circle class="cls-6" cx="222.68" cy="294.5" r="6.09"/>
  <circle class="cls-6" cx="242.94" cy="335.85" r="9.3"/>
  <circle class="cls-6" cx="246.15" cy="351.24" r="5.45"/>
  <circle class="cls-6" cx="198.38" cy="335.85" r="4.49"/>
  <circle class="cls-6" cx="140.04" cy="396.76" r="9.15"/>
  <circle class="cls-6" cx="160.56" cy="439.87" r="5.23"/>
  <circle class="cls-6" cx="173.7" cy="465.68" r="5.77"/>
  <circle class="cls-6" cx="207.04" cy="500.3" r="4.17"/>
  <path class="cls-2" d="M318.86,208.92c-.18,2.73-.89,7.07-3.85,10.97-2.09,2.75-3.71,3.18-13.04,8.3-.48.26-.94.52-1.38.76,3.02-2.29,5.24-4.54,6.8-6.3,2.17-2.45,5.67-6.43,8.15-12.29,1.09-.47,2.19-.95,3.32-1.44Z"/>
</svg>