<?xml version="1.0" encoding="UTF-8"?>
<svg id="Layer_1" data-name="Layer 1" xmlns="http://www.w3.org/2000/svg" viewBox="0 0 561.01 617.13">
  <defs>
    <style>
      .cls-1 {
        fill: #fde3c5;
      }

      .cls-2 {
        fill: #fff;
      }

      .cls-3 {
        fill: #e37f60;
      }

      .cls-4 {
        fill: #e89577;
      }

      .cls-5 {
        fill: #121213;
      }

      .cls-6 {
        fill: #df6558;
        opacity: .6;
      }
    </style>
  </defs>
  <path class="cls-4" d="M239.98,424.41c.35,3.19,1.15,14.32-6.25,24.1-7.73,10.22-21.94,15.68-34.15,11.83-1.59-.5-12.31-3.88-15.62-13.39-2.58-7.41.78-14.34,4.91-22.54,3.22-6.39,9.47-16.5,21.43-26.11,9.89,8.7,19.79,17.41,29.68,26.11Z"/>
  <path class="cls-4" d="M158.52,366.61l18.3,21.65c12.8-11.98,25.59-23.96,38.39-35.93-6.32-6.55-12.65-13.09-18.97-19.64l-37.72,33.92Z"/>
  <path class="cls-1" d="M215.18,280.12c-12.63,4.14-17.79,20.28-23.7,38.74-5.24,16.38-16.48,44.3,1.02,78.75s42.71,41.74,54.03,45.11c8.75,2.6,39.85,11.91,55.81-3.31,25.16-23.99-8.74-88.35-12.49-95.31-16.04-29.78-50.39-71.92-74.67-63.97Z"/>
  <path class="cls-6" d="M212.05,262.66c-2.62,6.58-10.05,22.56-27.45,34.15-25.45,16.94-52.63,11.42-57.8,10.27,7.42-1.14,22.18-4.42,37.05-15.4,15.62-11.53,28.08-23.66,31.23-30.51,7.29,1.12,9.69.38,16.98,1.49Z"/>
  <path class="cls-4" d="M221.46,386.47l-18.3-18.3c10.19-9.45,20.38-18.9,30.58-28.34l18.52,18.52c-10.27,9.37-20.53,18.75-30.8,28.12Z"/>
  <path class="cls-4" d="M90.45,228.91c-9.97,12.44-8.52,28.29-7.37,40.84.75,8.19,3.12,21.89,11.61,37.27,1.89-4.72,5.67-12.22,13.17-18.3,11-8.92,23.88-9.84,35.04-10.49,18-1.05,22.51,3.49,37.72,1.34,11.13-1.57,19.84-5.58,25.44-8.7-3.58,6.09-12.99,20.21-31.25,29.46-22.2,11.25-43.03,7.99-49.55,6.7,5.36,9.41,11.44,13.21,15.4,14.95,8.44,3.71,12.13.18,42.63-3.35,10.62-1.23,15.2-1.38,22.32-4.24,7.82-3.14,13.52-7.46,17.19-10.71-1.91,11.26-5.98,44.23,12.28,78.56,11.9,22.39,28.19,35.74,37.72,42.4.26,3.31.26,8.17-1.34,13.61-2.78,9.5-7.71,11.62-8.26,17.85-.72,8.21,6.01,17.63,11.83,19.19,14.73,3.97,32.79,2.6,41.74-3.12,3.43-2.2,8.11-5.29,10.71-11.38,3.43-8.03.87-15.75,0-18.08,5.8,1.96,15.51,3.18,31.69,2.23,17.12-1,32.55-10.58,41.96-31.25,5.24-11.51,4.64-24.41,4.24-35.71-.43-12.31-2.7-20.9,2.01-31.25,2.64-5.81,6.42-9.82,9.15-12.28-3.54-.96-9.98-2.15-17.19,0-12.7,3.79-18.96,15.34-20.09,17.41-4.01,7.4-3.19,11.92-10.04,25.89-1.71,3.49-3.08,5.89-5.8,7.14-6.57,3.02-15.21-3.3-17.41-4.91-10.18-7.45-13.14-17.91-16.74-24.55-8.02-14.8-23.93-20.45-39.5-45.75-6.44-10.47-15.33-27.42-13.28-51.33.66-7.69,1.76-34.46,27.12-46.64,9.47-4.55,15.3-2.71,22.1-9.82,6.19-6.47,10.6-17.83,6.92-29.01-.45-1.37-3.9-15.62-14.95-16.52-14.06-1.15-22.14,3.57-30.13,8.48-21.43,13.18-47.63,24.15-61.82,31.02-26.94,13.04-63.63,11.94-87.71,13.17-3.41.17-14.03.65-26.34,5.8-6.56,2.74-14.95,6.25-21.2,14.06Z"/>
  <circle class="cls-5" cx="231.72" cy="234.93" r="22.76"/>
  <circle class="cls-2" cx="237.08" cy="229.8" r="10.55"/>
  <circle class="cls-2" cx="217.66" cy="226" r="3.79"/>
  <circle class="cls-3" cx="112.99" cy="234.93" r="5.58"/>
  <circle class="cls-3" cx="98.04" cy="265.95" r="9.37"/>
  <circle class="cls-3" cx="112.99" cy="269.3" r="4.69"/>
  <circle class="cls-3" cx="110.76" cy="249.88" r="3.57"/>
  <circle class="cls-3" cx="165.22" cy="233.82" r="4.91"/>
  <circle class="cls-3" cx="306.71" cy="169.54" r="4.91"/>
  <circle class="cls-3" cx="302.7" cy="193.64" r="2.34"/>
  <circle class="cls-3" cx="287.97" cy="176.9" r="7.59"/>
  <circle class="cls-3" cx="256.27" cy="329.4" r="5.54"/>
  <circle class="cls-3" cx="270.56" cy="338.71" r="8.93"/>
  <circle class="cls-3" cx="268.77" cy="369.29" r="3.57"/>
  <circle class="cls-3" cx="320.55" cy="371.3" r="6.25"/>
  <circle class="cls-3" cx="379.47" cy="406.78" r="11.16"/>
  <circle class="cls-3" cx="351.35" cy="413.03" r="7.14"/>
  <circle class="cls-3" cx="341.31" cy="392.5" r="5.8"/>
  <circle class="cls-3" cx="297.34" cy="455.66" r="7.59"/>
  <circle class="cls-3" cx="219" cy="365.72" r="3.57"/>
  <circle class="cls-3" cx="249.99" cy="269.3" r="8.48"/>
</svg>