<?xml version="1.0" encoding="UTF-8"?>
<svg id="Layer_1" data-name="Layer 1" xmlns="http://www.w3.org/2000/svg" viewBox="0 0 561.01 617.13">
  <defs>
    <style>
      .cls-1 {
        fill: #111112;
      }

      .cls-2 {
        fill: #fbdbe9;
      }

      .cls-3 {
        fill: #db9ec7;
      }

      .cls-4 {
        fill: #d7a7c7;
      }

      .cls-5 {
        fill: none;
        stroke: #d387ba;
        stroke-miterlimit: 10;
        stroke-width: .74px;
      }

      .cls-6 {
        fill: #fff;
      }

      .cls-7 {
        fill: #e2b0d1;
      }
    </style>
  </defs>
  <path class="cls-4" d="M214.66,403.46c-.56,9.62-3.08,27.1-15.05,42.76-3.89,5.09-9.28,11.95-18.98,15.56-2.57.96-10.86,3.91-20.69,1.2-2.94-.81-10.23-2.82-14.88-9.58-2.73-3.97-3.31-7.78-3.42-8.55-.76-5.46,1.14-9.83,2.05-12.02,3.27-7.8,4.72-16.29,8.04-24.07,3.42-8.04,7.7-19.99,11.12-36.77,17.27,10.49,34.55,20.98,51.82,31.47Z"/>
  <path class="cls-4" d="M304.27,395.25c-3.04,11.26-6.19,19.9-8.55,25.83-2.12,5.32-4.11,9.68-4.1,16.08,0,3.01,0,9.15,3.59,14.2,5.83,8.21,18.6,10.01,27.71,7.53,14.04-3.82,20.27-18.06,24.12-26.85,6.41-14.65,6.02-28.45,4.96-36.77h-47.72Z"/>
  <path class="cls-7" d="M497.07,379.62c-6.94,7.6-29.71,30.57-65.45,34.21-14.3,1.46-26.49-.61-35.2-2.97-14.87-1.66-29.74-3.31-44.62-4.96-.71.45-1.49.93-2.35,1.44-14.73,8.92-50.39,27.42-98.79,25.33-48.61-2.1-82.6-23.79-96.3-33.82-.67-.49-1.29-.95-1.87-1.38-10.68,4.53-26.47,9.05-44.12,6.45-14.05-2.07-27.39-8.38-32.72-10.91-4.36-2.07-7.9-4.01-10.42-5.46-2.48,2.48-4.95,4.96-7.43,7.44-3.47-.81-8.59-2.51-13.39-6.45-9.67-7.93-11.54-19.55-12.89-28.76-1.01-6.92-3.65-26.93,7.44-47.59,9.83-18.32,25.12-27.23,39.66-35.7,5.1-2.97,10.13-5.47,23.31-10.91,23.64-9.75,41.62-17.17,59.49-21.81,11.66-3.03,45.18-11.4,84.28-4.47,51.43,9.12,92.31,41.12,110.07,55.03,11.06,8.67,21.61,18.18,40.65,27.77,17.66,8.88,36.78,18.19,59,13.88,16.95-3.29,29.81-13.34,36.19-18.34,16.08-12.59,24.12-18.88,28.75-25.8,1.35-2,4.96-7.65,7.44-6.93,2.05.59,2.36,5.27,2.48,6.93,3.4,50.56-33.22,87.77-33.22,87.77Z"/>
  <path class="cls-4" d="M354.65,309.02c2.69-2.49,12.64-12.3,13.68-27.78.24-3.5,1.05-15.62-6.84-24.79-6.82-7.94-17.84-10.96-20.09-11.54-6.98-1.79-11.13-.93-13.68-4.27-3.06-4.03-.91-10.38,0-13.25,0,0,.69-2.17,5.98-42.31,2.97-22.49-14.07-50.04-35.05-62.82-39.47-24.06-88.93,6.57-94.88,10.26-10.56,6.54-20.14,16.75-39.32,37.18-12.94,13.78-26.76,28.63-41.46,50.43-9.85,14.6-21.88,34.99-32.48,61.12,19.17-11.09,55.07-28.33,103-31.2,18.45-1.1,58.63-3.02,103.43,17.95,27.3,12.78,46.27,29.37,57.7,41.03Z"/>
  <path class="cls-5" d="M132.53,366.3c-2.35,3.29-9.83,12.85-23.55,17.09-17,5.26-31.16-1.51-34.18-3.04l-9.57,7.2"/>
  <path class="cls-3" d="M56.38,354.49c2.64-.21,4.73-4.34,4.42-7.78-.34-3.83-3.73-7.7-6.46-7.16-2.47.48-3.84,4.47-3.63,7.47.26,3.57,2.9,7.69,5.66,7.47Z"/>
  <path class="cls-3" d="M276.94,281.74c1.29-4.52-1.01-9.97-5.36-11.36-4.97-1.6-10.79,2.68-11.47,8.04-.55,4.3,2.2,9.37,6.97,10.18,4.63.79,8.71-2.84,9.86-6.86Z"/>
  <path class="cls-3" d="M278.44,313.47c2.7,1.73,3.39,5.3,2.07,7.93-1.54,3.06-5.59,4.46-8.61,2.68-3.13-1.85-3.76-6.32-1.61-9.11,1.82-2.36,5.41-3.26,8.15-1.5Z"/>
  <path class="cls-3" d="M319.92,293.63c8.9,2.16,14.16,11.32,13.4,19.72-.9,9.91-10.16,18.72-20.47,17.26-10.5-1.49-17.18-12.94-14.69-23.05,2.3-9.29,12.07-16.28,21.76-13.93Z"/>
  <path class="cls-3" d="M382.46,349.03c.6-4.38-2.6-8.92-7.18-9.27-4.41-.34-8.2,3.35-8.48,7.66-.27,4.13,2.73,8.25,7.09,8.66,4.33.41,8.02-3.03,8.57-7.05Z"/>
  <path class="cls-2" d="M349.45,407.34c-14.73,8.92-50.39,27.42-98.79,25.33-48.61-2.1-82.6-23.79-96.3-33.82,7.14-2.21,14.27-4.41,21.4-6.61,13.11,8.13,42.89,24.11,83.89,25.06,33.94.8,60.07-9.09,73.75-15.42,5.35,1.82,10.71,3.64,16.06,5.46Z"/>
  <circle class="cls-1" cx="158.11" cy="309.02" r="28.89"/>
  <circle class="cls-6" cx="154.36" cy="300.92" r="9.06"/>
  <path class="cls-7" d="M202.85,398.5c-6.35,12.63-11,23.78-14.37,32.67-5.56,14.68-7.55,23-4.62,31.81.45,1.35,1.28,3.77,3.12,6.5,8.67,12.79,26.99,13.19,33.65,13.34,8.34.18,22.38.49,31.26-9.06,4.37-4.7,6.09-10.27,8.24-17.27,1.51-4.91,2.55-10.15,3.25-20.18.57-8.14.91-19.26,0-32.67-20.18-1.71-40.36-3.42-60.54-5.13Z"/>
  <path class="cls-7" d="M396.12,393.54c.6,12.76,1.59,22.66,2.39,29.42.63,5.29,1.43,11.06,0,18.64-.78,4.11-1.74,8.92-5.3,13.34-3.59,4.46-7.88,6.13-14.37,8.55-7.52,2.81-16.9,6.31-28.22,3.76-3.43-.77-8.86-2-13.68-6.5-1.1-1.03-4.98-4.85-8.04-15.56-2.66-9.3-2.75-16.97-2.74-22.06.03-9.46.48-22.29,2.22-37.8,22.58,2.74,45.15,5.47,67.73,8.21Z"/>
</svg>