<?xml version="1.0" encoding="UTF-8"?>
<svg id="Layer_1" data-name="Layer 1" xmlns="http://www.w3.org/2000/svg" viewBox="0 0 561.01 617.13">
  <defs>
    <style>
      .cls-1 {
        fill: #eac481;
      }

      .cls-2 {
        fill: #fbe9d2;
      }

      .cls-3 {
        fill: none;
        stroke: #e2a979;
        stroke-miterlimit: 10;
      }

      .cls-4 {
        fill: #f0d295;
      }

      .cls-5 {
        fill: #101011;
      }

      .cls-6 {
        fill: #fff;
      }
    </style>
  </defs>
  <circle class="cls-1" cx="115.11" cy="273.72" r="1.91"/>
  <circle class="cls-1" cx="111.16" cy="274.37" r=".69"/>
  <path class="cls-4" d="M305.8,430.71c3.06,9.42.57,17.89-1.63,25.34-1.86,6.3-3.64,12.36-9.08,17.48-6.3,5.94-13.68,7.02-23.04,8.4-9.23,1.36-16.5,2.43-24.66-1.22-2.6-1.16-13.1-5.86-15.99-16.94-.26-1-2.58-10.44,2.57-17.62,3.45-4.81,6.73-3.68,9.76-8.13,4.53-6.65,1.2-12.58,3.93-19.24,3.86-9.4,18.75-13.54,31.71-10.84,11.82,2.46,22.64,11.14,26.42,22.76Z"/>
  <path class="cls-4" d="M252.15,384.63c-4.94,2.52-12.1,2.25-26.21,1.63-15.15-.67-17.95-2.2-19.91-4.27-3.64-3.84-4.67-9.83-3.45-14.53,1.21-4.69,4.44-7.28,10.57-12.19,2.51-2.01,6.15-4.89,11.58-7.42,7.97-3.7,17.3-8.04,26.52-4.27,8.89,3.63,16.4,14.28,14.53,24.79-1.82,10.26-11.67,15.27-13.61,16.25Z"/>
  <path class="cls-2" d="M442.71,300.95c8.1-4.54,14.57-4.45,18.05-4.14-2.7-1.43-5.58-3.3-11.21-4.44-29.81-6.08-46.1,21.89-89.84,31.87-10.08,2.3-36.76,8.39-46.54-3.84-5.51-6.88-1.87-14.82-10.12-25.9-1.85-2.49-8.06-10.18-19.02-13.66-3.01-.95-16.79-4.9-28.03,2.53-1.63,1.08-4.22,3.06-9.81,11.43-4.41,6.6-9.56,14.42-14.16,26.71-4.49,12-10.61,28.36-8.7,48.67,2.9,30.77,22.38,50.81,28.23,56.66,23.33,23.32,51.01,27.68,60.5,29.04,9.54,1.36,59.58,7.24,88.63-25.7,11.42-12.95,20.95-33.45,21.96-53.32,1.35-26.74,1.52-33.79,1.52-33.79.25-10.62.15-15.48,2.73-22.26,1.66-4.36,5.52-14.08,15.82-19.84Z"/>
  <path class="cls-4" d="M331.35,249.06c1.74-12.02-2.78-41.1-16.39-62.44-19.35-30.33-127.86-32.23-175.61-19.12-28.45,7.81-38.08,82.61-32,104.2,3.14,11.13,15.43,16.13,37.85,19.12,0,0,1.5,8.14,16,14.83,25.71,11.87,58.92-1.62,76.88-2.34,32.75-1.31,43.72-8.01,47.72-9.32,8.26-2.69,40.62-10.99,45.54-44.92Z"/>
  <path class="cls-3" d="M224.61,283.07c-7.21,3.96-24.98,9.82-42.08,11.47-16.36,1.58-29.57-1.36-37.33-3.72"/>
  <circle class="cls-5" cx="262.51" cy="216.08" r="30.05"/>
  <circle class="cls-6" cx="279.26" cy="199.11" r="4.79"/>
  <circle class="cls-6" cx="265.86" cy="210.59" r="7.24"/>
  <path class="cls-4" d="M265.29,294.82c3.6,5.02,14.46-.47,21.04,5.05,3.77,3.16,4.18,8.3,4.49,11.5,2.22,23.12,9.65,56.64,15.99,72.38,3.42,8.5,10.03,20.49,24.13,32.82,1.38,4.03,2.57,9.81,0,14.87-2.52,4.95-4.7,7.29-10.38,10.66-.5.3-5.1,7.66-3.93,15.99,1.51,10.8,11.74,17.51,15.15,18.52,13.81,4.07,27.61,5.15,43.76-2.81,11.93-5.88,14.27-19.19,15.15-22.16,1.83-6.2,1.25-9.68,1.4-30.86.06-7.65.18-13.9.28-17.95,1.8-3.36,4.41-8.75,6.45-15.71,5.06-17.27,1.32-26.08,3.09-42.92,1.26-12.09,2.43-28.47,13.75-38.43,14.33-12.62,43.22-10.62,45.1-8.96-25.06-22.15-46.35-17.02-56.61-14.89-16.79,3.49-40.32,26.45-43.76,32.82-.25.47-1.63,1.6-3.37,1.68-.58.03-2.34-.01-4.77-2.52-11.29-11.66-14.82-23.72-14.82-23.72-7.94-31.86-3.65-50.3-12.27-56.02-15.29-10.13-53.96,34.24-59.88,52.24-.61,1.85-1.9,5.77,0,8.42Z"/>
  <path class="cls-4" d="M316.37,343.71c-1.69-1.49-5.56,2.7-21.61,11.24-8.74,4.65-12.13,5.82-15.27,10.37-1.28,1.86-5.15,7.46-3.46,14.41.16.64,2.12,8.15,9.51,10.95.43.16,7.1,2.57,12.68-.86,5.44-3.35,4.99-9.25,8.65-21.04,5.13-16.53,11.67-23.17,9.51-25.07Z"/>
  <circle class="cls-1" cx="148.71" cy="180.25" r="9.15"/>
  <circle class="cls-1" cx="131.24" cy="183.74" r="4.49"/>
  <circle class="cls-1" cx="140.22" cy="192.72" r="3.83"/>
  <circle class="cls-1" cx="194.94" cy="242.78" r="3.83"/>
  <circle class="cls-1" cx="316.18" cy="263.74" r="5.16"/>
  <circle class="cls-1" cx="200.16" cy="300.78" r="1.8"/>
  <circle class="cls-1" cx="203.57" cy="294.98" r="2.48"/>
  <circle class="cls-1" cx="385.1" cy="354.06" r="3.39"/>
  <circle class="cls-1" cx="368.91" cy="379.13" r="6.27"/>
  <circle class="cls-1" cx="381.71" cy="368.82" r="7.38"/>
  <circle class="cls-1" cx="329.21" cy="344.53" r="4.96"/>
  <circle class="cls-1" cx="368.26" cy="460.87" r="4.31"/>
  <circle class="cls-1" cx="250.22" cy="447.03" r="6.01"/>
  <circle class="cls-1" cx="414.57" cy="287.18" r="3.89"/>
  <circle class="cls-1" cx="399.44" cy="291.07" r="3.46"/>
</svg>