<?xml version="1.0" encoding="UTF-8"?>
<svg id="Layer_1" data-name="Layer 1" xmlns="http://www.w3.org/2000/svg" viewBox="0 0 561.01 617.13">
  <defs>
    <style>
      .cls-1 {
        fill: #eac481;
      }

      .cls-2 {
        fill: #e9cdaa;
      }

      .cls-3 {
        fill: none;
        stroke: #e2a979;
        stroke-miterlimit: 10;
        stroke-width: .74px;
      }

      .cls-4 {
        fill: #fbe9d2;
      }

      .cls-5 {
        fill: #f0d295;
      }

      .cls-6 {
        fill: #101011;
      }

      .cls-7 {
        fill: #fff;
      }
    </style>
  </defs>
  <path class="cls-2" d="M247.71,452.47c-1.69,5.66-3.25,13.94-1.54,22.79.89,4.58,2.2,6.99,3.6,8.74,3.03,3.78,6.99,5.18,9.42,6,6.46,2.18,12.07,1.29,15.59.69,9.93-1.7,17.22-6.53,21.42-9.94,8.45-13.62,6.59-30.05-2.23-38.21-11.17-10.33-34.45-8.29-46.26,9.94Z"/>
  <path class="cls-2" d="M181.75,454.19c-1.25,4.22-5.12,17.17-9.42,28.1-.68,1.72-1.79,4.45-4.45,6.68-1.15.96-3.31,2.43-11.42,3.6-8.34,1.2-12.51,1.8-17.54,0-1.5-.54-4.92-1.8-8.05-4.97-.94-.95-4.27-4.52-5.83-12.16-1.46-7.16-.47-13.46,1.54-21.25,1.97-7.64,5.26-18.03,10.97-29.98,14.73,9.99,29.47,19.99,44.2,29.98Z"/>
  <path class="cls-4" d="M205.26,156.88c-.02,9.29-.74,22.22-3.87,37.27-1.55,7.44-6.53,29.07-20.75,54.85-14.05,25.48-20.62,25.09-36.92,54.15-6.69,11.93-12.81,22.84-17.58,38.68-4.92,16.34-11.24,37.32-4.57,62.59,7.43,28.15,26.43,44.44,31.47,48.52,24.99,20.25,52.55,20.84,64.52,21.1,32.47.69,56.51-12.23,66.81-18.64,11.45-26.15,8.7-41.07,3.87-49.93-16.56-30.35-72.96-17.55-88.96-50.63-3.84-7.93-3.15-16.54-1.76-33.76,2.58-32.07,13.07-49.67,26.37-82.98,16.18-40.53,31.94-79.98,20.04-90.02-4.14-3.5-13.61-5.09-38.68,8.79Z"/>
  <path class="cls-5" d="M230.52,162.66c-3.79,2.9-14.17,10.03-29.22,10.75-12.02.57-21.18-3.23-25.52-5.37-2.3-.04-7.11-.48-11.35-3.8-1.31-1.03-5.06-4.28-6.99-12.94-3.44-15.46,3.03-29.71,5.01-33.91,2.79-5.95,9.81-20.35,26.45-29.29,3.44-1.85,26.03-13.52,48.75-2.93,4.6,2.15,15.61,8.19,22.01,20.69,3.99,7.8,4.49,14.79,4.91,21.63.91,14.8-2.05,25.95-4.44,35.14-11.51,44.27-7.8,35.4-12.75,51.2-6.85,21.86-13.78,43.96-24.09,64.05-3.6,7.01-5.76,13.58-10.09,26.73,0,0-1.78,5.4-2.61,16.9-.32,4.44-.24,7.32,1.61,9.83,2.19,2.98,5.75,4.4,7.07,4.09,19.03-4.59,28.35-16.2,56.97-15.73,40.68.66,79.73,52.65,82.18,56.29,6.83,10.15,7.07,13.67,15.65,24.68,6.13,7.87,20.61,26.06,45.15,38.83,7.49,3.9,37.92,14.58,74.35,15.65,3.53.1,15.57.17,18.66.32,8.74.42,20.99-.77,18.09,7.99-1.08,3.27-10.96,5.64-20.5,7.95-29.54,7.14-46.22,9.06-46.22,9.06-29.09,2.56-43.72,5.69-65.71,1.55-15.63-2.94-31.63-7.71-37.98-11.51-12.93-7.73-22.69-16.01-29.5-22.58,1.51,9.08,1.34,16.59.88,21.84-.59,6.62-1,10.64-3.78,14.98-4.19,6.54-10.7,9.02-12.96,9.85-6.9,2.53-12.69,1.51-21.19,0-6.29-1.11-9.5-1.73-12.42-4.32-3.68-3.28-4.74-7.57-6.07-13.36-1.89-8.17-1.71-14.75-1.62-17.14.28-7.59,1.35-19.12,5.13-33.6-5.21.86-11.93,1.47-19.7.94-9.09-.61-16.62-2.57-22.13-4.45,1.91,12.65,2.41,23.41,2.43,31.58,0,.99-.05,12.87-3.37,26.58-.75,3.09-1.65,6.19-4.05,9.31-3.78,4.91-8.86,6.71-13.36,8.23-5.16,1.75-17.78,6.03-29.42,0-1.87-.97-5.71-3.01-8.64-7.29-3.13-4.56-3.58-9.28-3.78-12.42-1.36-21.17,2.97-38.73,2.97-38.73,1.82-7.38,4.83-17.26,9.99-28.47-4.51-2.1-11.29-5.94-17.25-12.8-20.73-23.89-10.69-60.46-8.77-67.44,2.06-7.51,3.98-10.98,12.36-27.65,19.17-38.14,30.54-60.76,38.22-80.26,5.41-13.75,12.21-34.15,16.61-60.66Z"/>
  <path class="cls-3" d="M198.76,151.56s-3.19,9.24-22.98,16.48"/>
  <circle class="cls-6" cx="223.38" cy="125.68" r="18.33"/>
  <circle class="cls-7" cx="232.18" cy="121.73" r="5.57"/>
  <path class="cls-7" d="M223.38,125.68c0,1.79-1.45,3.23-3.23,3.23s-3.23-1.45-3.23-3.23,1.45-3.23,3.23-3.23,3.23,1.45,3.23,3.23Z"/>
  <path class="cls-1" d="M176.97,121.94c1.92.73,2.72,2.95,2.34,4.68-.52,2.35-3.26,4.09-5.47,3.18-2.05-.84-2.88-3.66-1.86-5.71.85-1.7,3-2.92,4.98-2.16Z"/>
  <path class="cls-1" d="M167,150.28c1.07-.79,3.38.27,4.26,1.92.52.96.78,2.54,0,3.24-.96.87-3.26.16-4.26-1.32-.83-1.22-.91-3.17,0-3.84Z"/>
  <path class="cls-1" d="M175.47,147.88c1.43-1.14,3.74-.44,4.8,1.02.97,1.34,1.06,3.54-.3,4.62-1.42,1.13-3.68.45-4.74-.96-1.02-1.35-1.11-3.6.25-4.68Z"/>
  <path class="cls-1" d="M242.02,201.45c1.53.14,2.58,2.28,2.37,4.01-.18,1.46-1.33,3.21-2.81,3.17-1.53-.04-2.66-1.98-2.62-3.59.04-1.8,1.52-3.73,3.06-3.59Z"/>
  <path class="cls-1" d="M182.76,344.41c1.42,2.4,1.2,5.76-.86,7.74-2.59,2.5-7.32,2.12-9.57-.97-2.19-3.01-1.29-7.59,1.94-9.36,2.98-1.63,6.83-.24,8.5,2.58Z"/>
  <path class="cls-1" d="M186.96,360.33c5.76-1.43,12.18,2.02,13.55,8.07,1.38,6.07-2.99,11.9-8.71,13.12-5.34,1.14-11.2-1.87-12.91-7.21-1.89-5.91,2.01-12.47,8.07-13.98Z"/>
  <path class="cls-1" d="M268.26,333.98c2.66.15,4.52,2.97,4.62,5.48.11,2.73-1.81,5.86-4.62,6.02-2.87.16-5.27-2.85-5.27-5.75,0-2.91,2.4-5.92,5.27-5.75Z"/>
  <path class="cls-1" d="M310.74,345.5c3.24,1.05,5.29,4.51,4.52,7.84-.87,3.73-4.96,5.93-8.5,4.84-3.93-1.21-5.84-6.07-3.98-9.57,1.44-2.71,4.88-4.11,7.96-3.11Z"/>
  <path class="cls-1" d="M322.79,406.47c2.53.31,4.17,3.1,4.3,5.48.15,2.7-1.57,5.91-4.3,6.24-2.9.35-5.7-2.72-5.7-5.86,0-3.15,2.81-6.21,5.7-5.86Z"/>
  <path class="cls-1" d="M355.5,435.48c2.6.07,4.57,2.44,4.36,4.95-.19,2.34-2.24,4.31-4.7,4.2-2.44-.12-4.28-2.24-4.28-4.57,0-2.48,2.08-4.64,4.62-4.57Z"/>
  <path class="cls-1" d="M377.91,434.81c4.38,1.17,6.81,6,5.62,10.24-1.13,4.05-5.34,6.78-9.4,5.96-4.74-.96-7.58-6.43-5.96-10.95,1.35-3.77,5.6-6.36,9.74-5.25Z"/>
  <path class="cls-1" d="M408.38,448.49c3.88.54,6.4,4.49,5.96,8.23-.45,3.82-3.93,6.97-7.64,6.63-4.26-.38-7.17-5.2-6.13-9.32.83-3.25,4.12-6.05,7.81-5.54Z"/>
</svg>