<?xml version="1.0" encoding="UTF-8"?>
<svg id="Layer_1" data-name="Layer 1" xmlns="http://www.w3.org/2000/svg" viewBox="0 0 561.01 617.13">
  <defs>
    <style>
      .cls-1 {
        fill: #efce88;
      }

      .cls-2 {
        fill: #eac481;
      }

      .cls-3 {
        fill: #fbe9d2;
      }

      .cls-4 {
        fill: #d0a44c;
      }

      .cls-5 {
        fill: #f0d295;
      }

      .cls-6 {
        fill: #101011;
      }

      .cls-7 {
        fill: #fff;
      }

      .cls-8 {
        fill: #c48950;
      }

      .cls-9 {
        fill: #a65d31;
      }
    </style>
  </defs>
  <path class="cls-9" d="M142.01,189.19c-9.42,7.02-23.49,19.29-35.62,38.32-11.72,18.4-16.92,35.72-19.39,47.04,55.09,15.11,77.95,6.13,88.67-4.81,11.19-11.42,6.7-22.49,23.75-48.39,16.77-25.48,32.21-31.63,29.46-41.33-3.18-11.19-27.03-14.68-42.53-13.23-23.43,2.2-38.91,16.75-44.33,22.39Z"/>
  <path class="cls-4" d="M167.55,242.4c-1.04-2.3-3.73-7.39-9.46-10.67-7.93-4.54-16.13-2.42-19.1-1.65-10.86,2.81-17.05,10.92-22.99,18.94-4.59,6.2-11.5,17.29-15.18,33.55,33.02,6.26,60.08-3.63,66.73-20.62,1.34-3.43,2.91-9.85,0-19.54Z"/>
  <path class="cls-1" d="M151.62,256.68c-2.28-4.09-6.37-10.21-12.32-13.68-1.98-1.15-3.69-1.74-5.26-1.2-2.34.8-3.31,3.7-3.91,5.71-2.26,7.63-3.19,16.35-3.61,22.09,8.37-4.31,16.73-8.61,25.1-12.92Z"/>
  <path class="cls-1" d="M106.54,272.88c-3.92-6.34-6.09-11.42-7.36-15.01-.36-1-1.27-3.67-3.46-6.52-1.35-1.76-4.17-5.45-7.06-5.05-.55.08-2.48.5-4.81,5.71-1.44,3.23-3.4,9.1-2.71,17.58,8.47,1.09,16.93,2.19,25.4,3.28Z"/>
  <path class="cls-1" d="M61.15,187.54c-.03,5.3-.99,13.91-6.76,20.59-1.56,1.8-3.92,4.46-6.76,4.21-3.75-.33-6-5.52-7.06-7.97-4.25-9.81-2.1-20.29,0-26.75,6.86,3.31,13.73,6.61,20.59,9.92Z"/>
  <path class="cls-1" d="M70.77,190.85c.53,5.06,1.44,9.24,2.25,12.32,2,7.58,3.94,10.49,6.16,12.47,2.6,2.32,4.22,2.17,4.66,2.1.57-.09,2.26-.49,4.36-4.36,2.07-3.81,2.5-7.24,2.86-10.07,1.68-13.23,1.84-13.74,1.2-14.58-2.69-3.53-11.55-2.37-21.49,2.1Z"/>
  <path class="cls-1" d="M125.77,193.1c-.12,5.92-.82,10.76-1.5,14.28-.39,1.99-1.08,5.15-3.16,8.57-1.27,2.09-2.52,4.09-4.51,4.36-2.3.31-4.3-1.86-5.86-3.61-2.73-3.04-4.29-6.31-6.31-12.32-1.08-3.19-2.39-7.46-3.61-12.62,8.32.45,16.63.9,24.95,1.35Z"/>
  <path class="cls-1" d="M158.1,185.59c-.82,5.03-1.83,9.25-2.72,12.47-.43,1.56-1.58,5.61-4.51,9.77-1.16,1.64-2.12,2.63-3.46,2.86-1.02.17-2.49-.06-5.26-2.55-3.46-3.11-5.26-6.44-6.01-7.81-1.57-2.88-3.94-7.1-7.21-12.47,9.72-.75,19.44-1.5,29.17-2.25Z"/>
  <path class="cls-5" d="M300.61,234.03c-8.53-7.57-10.74-17.68-11.45-21.17-2.2-10.77.7-18.67,2.08-26.72,0,0,5.14-23.8,1.39-48.59-.96-6.35-5.33-32.68-27.42-52.41-16.17-14.45-33.85-18.22-44.42-20.48-11.58-2.47-29.27-6.52-47.89,0-14.59,5.11-26.72,13.19-26.72,13.19-6.01,4-7.44,5.8-12.15,7.64-9.87,3.85-17.49,1.37-26.72.69-16.38-1.2-29.39,3.9-35.4,6.25-23.4,9.16-35.38,28.55-36.79,30.89-8.51,14.2-8.68,26.82-9.02,52.06-.03,2.55.02,7.2,3.12,10.41,3.26,3.38,8.23,3.43,9.72,3.47,17.88.48,31.38,12.08,66.64,11.45,30.04-.53,54-9.54,81.21-19.78,4.1-1.54,7.45-2.89,9.72-3.82-4.07,15.32-13.5,41.26-36.44,63.51-23.65,22.95-46.89,27.64-54.49,28.11-10.27.64-17.7-3.12-17.7-3.12-3.52-1.79-6.04-3.96-7.64-5.55-1.44.52-4.76,1.95-6.25,5.21-2.12,4.66,1.01,9.81,2.43,12.15,6.25,10.28,18.99,13.44,23.6,14.58,25.92,6.42,51.09-3.9,77.74-14.92,7.81-3.23,14.13-6.22,18.39-8.33-3.12,13.61-8.1,44.32,5.55,77.39,15.72,38.07,46.55,56.09,66.98,68.02,40.31,23.55,78.18,25.57,106.2,27.07,26.38,1.41,39.73-1.73,46.85-3.82,24.97-7.31,40.86-21.34,52.06-31.24,9.12-8.05,28.55-25.59,41.99-55.53,4.78-10.64,13.62-30.91,13.19-58.31-.2-12.62-.78-32.98-13.88-52.75-.68-1.02-13.95-20.54-35.05-27.07-3.48-1.08-10.72-3.24-13.54,0-2.49,2.87-.33,8.62.35,10.41,2.35,6.24,6.21,8.48,9.37,12.15,10.61,12.31,6.12,32.19,5.55,34.71-.95,4.2-2.65,11.72-9.02,18.39-9.28,9.71-21.66,10.5-25.68,10.76-12.61.8-22.06-4.15-29.15-7.98-14.21-7.68-13.47-12.82-27.42-22.56-15.49-10.81-31.37-14.92-39.56-17.03-9.34-2.41-20.16-4.15-36.79-10.04-4.88-1.73-9.19-3.43-13.54-7.29Z"/>
  <path class="cls-8" d="M81.53,135.47c-.69,2.07-1.54,1.67-5.65,6.29-.88.99-2.8,3.21-5.83,5.37-.91.65-1.79,1.2-2.55.91-1.24-.48-1.33-2.93-1.37-3.83-.05-1.45.14-3.51,1.64-6.65,1.32-2.78,2.63-5.52,5.65-7.47,1.1-.71,4.68-3.03,6.92-1.55,1.92,1.27,1.92,4.7,1.18,6.92Z"/>
  <circle class="cls-6" cx="196.98" cy="127.57" r="27.68"/>
  <circle class="cls-7" cx="188.91" cy="116.54" r="8.65"/>
  <path class="cls-2" d="M310.78,252.75c-5.19-3.56-10.73-2.24-11.67-2-4.19,1.08-9.26,4.43-10.19,9.66-.64,3.65,1.02,6.61,2.44,9.14,1.46,2.59,4.19,7.46,9.75,8.62,4.91,1.03,8.88-1.48,9.66-2,4.52-3,6.71-8.53,6.01-13.67-.83-6.08-5.39-9.33-6.01-9.75Z"/>
  <path class="cls-2" d="M325.32,323.89c3.22-1.71,3.71-5.76,3.83-6.79.47-3.92-1.29-8.2-4.79-10.45-.83-.54-4-2.57-7.45-1.31-3.77,1.38-4.77,5.55-4.92,6.18-.95,4,.95,7.98,3.66,10.27.27.23,5.33,4.39,9.66,2.09Z"/>
  <path class="cls-2" d="M394.11,314.14c-.13-.58-1.51-7.02,2.7-10.8,3.05-2.74,7.1-2.35,8.97-2.18,6.88.65,11,5.89,12.19,7.58,1.46,2.07,4.45,6.32,2.96,10.88-1.1,3.38-4.05,5.06-4.88,5.49-5.19,2.69-10.91-.18-12.97-1.22-2.16-1.08-7.6-3.81-8.97-9.75Z"/>
  <path class="cls-5" d="M183.55,329.02c-4-.27-9.71-.46-16.53,0-8.64.58-14.61.98-21.82,3.84-3.96,1.57-11.22,4.54-17.56,11.85-5.88,6.78-7.67,13.51-8.86,17.98-1.94,7.28-.97,10.28,0,12.02.39.71,1.93,3.46,5.11,4.35.37.1,3.43.91,5.8-.77,1.19-.84,1.15-1.56,2.64-4.35,1.03-1.93,2.59-3.99,5.71-8.1,1.82-2.4,2.5-3.15,3.07-2.98.74.22.85,1.88.94,3.66.41,8.68-.32,9.53.43,12.36.16.61,1.71,6.17,5.88,7.5.48.15,1.92.62,3.32,0,1.78-.78,2.32-2.8,3.15-5.28.89-2.64,2.23-6.64,4.09-9.72,1.51-2.5,3.45-5.7,6.9-6.65,1.84-.5,4.24.03,9.04,1.11,3.84.86,4.04,1.21,5.53,1.36,2.55.26,6.29-.31,11.25-4.35-2.7-11.28-5.4-22.56-8.1-33.84Z"/>
  <path class="cls-2" d="M376.95,293.85c3.94-6.61,2.08-13.64,1.83-14.54-3.97-14.11-23.34-16.26-24.47-16.37-4.24-.41-11.67-1.13-16.63,3.83-7.1,7.09-2.81,19.43-2.44,20.46,2.87,7.91,10.11,14.15,18.81,15.59,7.53,1.25,18.02-.79,22.9-8.97Z"/>
  <path class="cls-5" d="M291.21,440.53c5.62,8.47,7.01,17.18,7.01,17.18.02.15.12.7.2,1.44.33,2.89.4,7.64-1.21,17.56-1.48,9.13-3.35,16.08-6,25.47-3.54,12.53-3.93,11.01-4.92,16.58-.74,4.14-.81,6.64-2.83,9.3-2.5,3.29-5.97,4.2-10.72,5.66-17.01,5.25-14.36,6.63-20.01,7.08-10.13.79-12.18-4.16-23.45-2.63-4.99.68-4.96,1.7-9.3,1.82-6.21.17-11.07-1.78-17.99-4.65-5.45-2.26-8.17-3.38-10.34-5.46-.94-.9-7.6-7.44-6.03-15.16.81-4.01,3.48-6.61,6.03-9.1.79-.77,3.5-3.32,8.73-5.86,8.34-4.06,11.09-2.27,18.8-6.27,2.37-1.23,5.31-2.79,8.29-5.86,4.16-4.29,5.51-8.55,7.48-14.76,1.03-3.23,1.26-4.99.4-6.47-1.17-2.04-3.7-2.37-5.26-2.83-7.25-2.16-10.67-12.3-13.34-20.22-2.42-7.17-4.46-13.01-2.83-20.42.35-1.59,2.47-10.55,8.84-15.09,18.96-13.52,61.46,22.13,68.46,32.68Z"/>
  <path class="cls-3" d="M176.45,280.61c-2.2,16.3-3.16,40.47,4.33,67.99,4,14.72,10.22,37.57,29.98,59.03,19.34,21,41.1,29.22,54.08,33.95,30.83,11.24,57.01,9.37,76.02,8.08,16.45-1.12,39.87-4.48,66.7-14.52-17.37.03-42.22-1.69-70.72-9.89-18.96-5.46-41.58-11.97-65.52-29.98-10.58-7.96-40.89-31.42-54.7-74.17-6.3-19.49-7.13-36.7-6.8-48.21-5.77,2.05-12.39,4-19.78,5.54-4.81,1-9.36,1.7-13.6,2.19Z"/>
  <path class="cls-8" d="M214.02,186.35c.88-.99-2.67-7.95-8.99-9.68-6.75-1.85-12.64,3.36-13.23,3.89-1.3,1.67-2.59,3.34-3.89,5.02,4.02-2.3,9.32-4.35,15.13-3.46,6.44.99,10.21,5.11,10.98,4.24Z"/>
  <path class="cls-5" d="M274.26,339.34c.77,5.2,1.27,13.83-1.98,23.51-1.31,3.92-3.6,10.52-9.68,16.6-4.05,4.05-7.83,6.06-11.66,7.9-6.43,3.1-15.98,7.71-24.11,5.33-1.23-.36-3.92-1.31-5.73,0-1.5,1.08-1.63,3.16-1.78,4.54-.78,7.21-3.82,12.56-7.11,18.38-3.18,5.6-4.91,5.89-5.53,5.93-2.81.17-5.12-3.46-5.93-4.74-2.59-4.07-3.27-9.02-4.35-17.39-.27-2.13-.49-4.15-1.38-4.35-1.06-.23-2.42,2.25-3.56,4.35-3.43,6.33-3.12,9.53-6.52,13.04-.96.99-2.46,2.51-3.95,2.17-1.59-.36-2.41-2.66-2.96-4.94-2.8-11.6,0-20.55,0-20.55,2.14-8.55,7.83-13.16,15.02-19.96,1.73-1.64,11.41-10.64,19.99-14,4.29-1.68,8.29-4.2,12.77-5.29.2-.05.87-.2,1.56-.7,1.69-1.2,2.08-3.38,2.23-4.31.96-6.06.12-11.34,1.11-13.22,1.5-2.84,10.18-3.47,43.55,7.67Z"/>
  <path class="cls-8" d="M223.85,390.06c8.16-1.19,14.95-3.14,20.18-5.01,10.05-3.59,15.62-5.59,20.42-11.17,4.78-5.55,6.53-12.04,8.09-17.81,1.39-5.13,1.89-9.53,2.1-12.6.92-1.75,2.15-3.93,2.66-3.75.47.17.12,2.29,0,3-2.35,14.3.18,20.71-5.06,30.11-4.47,8.01-10.17,12.32-13.09,13.93-5.02,2.76-10.52,4.76-18.65,6.43-5.21,1.07-9.92.59-13.05.91"/>
  <path class="cls-8" d="M226.61,337.97c.07-.41.42-2.32,1.68-4.35.53-.85,1.23-1.98,1.89-1.88.88.13,1.21,2.34,1.4,3.63.47,3.26.05,4.85-.28,9.53-.31,4.41-.12,5.56-1.19,7.22-.95,1.47-2.19,2.26-2.87,2.66-7.4,4.37-16.61,5.54-16.61,5.54-5.37.68-11.66,5.07-20.71,15.4-.86-2.36-1.35-2.46-2.21-4.82,7.48-4.63,12.31-11.66,17.25-13.95,5.79-2.69,14.37-5.1,17.66-6.31.94-.35,1.15-.41,2-.94.95-.6,1.48-1.23,1.79-3.54.54-4.03-.4-4.72.21-8.2Z"/>
  <path class="cls-5" d="M432.54,377.45c3.35,16.3.81,26.88-2.39,33.67-3.33,7.1-6.22,14.4-9.55,21.49-1.25,2.66-3.11,6.57-2.87,11.7.21,4.38,1.84,7.27,3.1,10.03,2.39,5.21,3.29,10.56,5.08,21.25.58,3.45.33,2.94,1.37,29.61.24,6.2.56,14.18-1.37,23.17-.55,2.55-1.4,5.76-3.41,9.31-2.43,4.32-5.3,6.93-7.16,8.6-2.36,2.11-8.1,7.13-16.48,9.08-4.99,1.16-7.08.34-15.28,0-11.99-.49-12.37,1.06-22.45.86-11.66-.24-23.63-.48-32.24-8.5-1.87-1.75-6.94-6.47-6.93-13.14,0-5.54,3.52-9.86,5.02-11.7,2.26-2.78,4.47-4.24,7.88-6.45,7.53-4.88,10-4.14,15.76-8.6,2.29-1.77,4.78-3.73,6.93-7.16,1.51-2.42,2.38-5.87,4.06-12.66,1.7-6.88,1.63-8.25.96-9.55-1.36-2.61-4.27-3.18-7.16-4.3-4.4-1.7-7.71-4.88-14.33-11.22-8.29-7.95-16.85-21.49-20.78-37.73-3.1-12.85-2.27-23.11-1.67-29.85,1.5-16.77,6.66-29.75,10.51-37.64,34.47,6.58,68.94,13.15,103.41,19.73Z"/>
  <path class="cls-8" d="M417.39,438.64c1.46-.46,2.95-.96,4.46-1.49.7-.25,1.4-.49,2.08-.74,3.69-6.65,7.99-16.26,10.11-28.4,2.88-16.52,1-33.64-.59-33.75-.58-.04-1.35,2.13-1.64,3.12-.61,2.16-.34,3.98-.3,4.31.74,5.42-2.5,26.07-2.68,27.21-1.06,6.68-3.74,16.94-11.45,29.73Z"/>
  <path class="cls-8" d="M334.27,450.63c-11.65-17.9-12.64-31.14-11.15-40.14,1.45-8.8,9.74-40.69,11.15-48.91.63-3.68.12-3.97,0-4.01-.6-.22-1.87,1.84-2.38,2.68-14.37,23.55-16.5,37.91-16.5,37.91-1.27,8.55-3.38,22.71,3.72,37.91,3.14,6.73,7.1,11.56,9.96,14.57h5.2Z"/>
  <path class="cls-8" d="M175.81,277.92c11.38-3.55,26.94-9.69,42.23-20.29,10.84-7.52,17.17-11.9,22.54-20.29,2.55-3.98,6.06-10.69,7.21-10.22.68.28.21,2.9,0,4.06-2.54,13.83-12.17,24.42-12.17,24.42-8.01,8.81-16.43,13.06-23.64,16.61-7.25,3.57-18.55,8.14-33.47,10.35-.9-1.55-1.8-3.09-2.71-4.64Z"/>
  <path class="cls-1" d="M398.44,556.58c.1-1.25.5-7.93-4.47-13.73-4.96-5.8-11.61-6.44-12.86-6.54-2.18,2.17-5.51,6.05-7.85,11.77-1.97,4.82-2.49,9.12-2.62,11.99,3.26.76,8.54,1.57,14.93.65,5.66-.81,10.04-2.68,12.86-4.14Z"/>
  <path class="cls-1" d="M363.24,558.43c.29-3.82.21-10.32-3.05-16.78-1.37-2.71-3.23-6.27-7.19-7.85-1.55-.62-2.96-.75-3.92-.76-2.59,2.77-4.64,5.19-6.1,6.98-5.13,6.27-6.13,8.59-6.54,10.9-.27,1.55-.75,4.25.76,6.1,1.68,2.05,4.87,1.93,7.19,1.85,5.28-.18,11.22-.32,18.86-.44Z"/>
  <path class="cls-1" d="M332.18,551.57c.46-5.2.88-9.18,1.31-12.42.13-.98.41-3.04,0-5.67-.22-1.38-.45-2.87-1.31-4.25-1.95-3.14-5.95-3.78-7.08-3.92-3.55,5.83-6.31,10.06-8.61,13.13-.53.71-2.16,2.86-2.83,6.05-.31,1.49-.61,2.89,0,4.24,1.19,2.62,4.97,3.19,7.74,3.61,2.27.34,6.06.58,10.79-.76Z"/>
  <path class="cls-1" d="M248.09,541.61c.3-2.1.89-8.35-2.74-14.8-2.66-4.72-6.32-7.31-8.21-8.46-1.69.95-3.65,2.27-5.6,4.1-3.26,3.07-4.78,6.25-7.71,12.44-2.71,5.71-2.6,6.85-2.11,7.59,1.07,1.62,4.05,1.38,6.84,1.12,7.38-.69,13.92-1.37,19.53-1.99Z"/>
  <path class="cls-1" d="M216,540.74c1.5-3.51,3.71-10.1,2.36-17.41-.13-.68-1.23-6.36-4.6-8.83-.5-.37-1.56-1.12-2.98-1.12-1.47,0-2.56.82-3.11,1.24-6.89,5.33-11.96,9.24-13.68,16.45-.75,3.14-.3,4.52,0,5.19,1.23,2.77,4.46,3.75,6.96,4.48,2.7.78,7.97,1.81,15.05,0Z"/>
  <path class="cls-1" d="M202.61,529.42c.3-2.1.89-8.35-2.74-14.8-2.66-4.72-6.32-7.31-8.21-8.46-1.69.95-3.65,2.27-5.6,4.1-3.26,3.07-4.78,6.25-7.71,12.44-2.71,5.71-2.6,6.85-2.11,7.59,1.07,1.62,4.05,1.38,6.84,1.12,7.38-.69,13.92-1.37,19.53-1.99Z"/>
</svg>