<?xml version="1.0" encoding="UTF-8"?>
<svg id="Layer_1" data-name="Layer 1" xmlns="http://www.w3.org/2000/svg" xmlns:xlink="http://www.w3.org/1999/xlink" viewBox="0 0 1625.01 1080">
  <defs>
    <style>
      .cls-1 {
        fill: none;
      }

      .cls-2 {
        fill: #8d404d;
      }

      .cls-3 {
        fill: #595959;
      }

      .cls-4 {
        fill: #0f0f11;
      }

      .cls-5 {
        fill: #a39589;
      }

      .cls-6 {
        fill: #ba916e;
      }

      .cls-7 {
        fill: #635c55;
      }

      .cls-7, .cls-8, .cls-9, .cls-10 {
        fill-rule: evenodd;
      }

      .cls-11 {
        fill: #eef8f8;
      }

      .cls-12 {
        clip-path: url(#clippath-1);
      }

      .cls-13 {
        clip-path: url(#clippath-3);
      }

      .cls-14 {
        clip-path: url(#clippath-2);
      }

      .cls-15 {
        fill: #a95f7d;
      }

      .cls-16 {
        fill: #fadbe9;
      }

      .cls-17 {
        fill: #fff;
      }

      .cls-18 {
        fill: #e2afd0;
      }

      .cls-19 {
        fill: #ffe9a2;
      }

      .cls-20 {
        fill: #fefefe;
      }

      .cls-21 {
        fill: #c15d6c;
      }

      .cls-9 {
        fill: #787066;
      }

      .cls-22 {
        fill: #ffbe78;
      }

      .cls-23 {
        fill: #eab6ad;
      }

      .cls-10 {
        fill: #94897b;
      }

      .cls-24 {
        clip-path: url(#clippath);
      }

      .cls-25 {
        fill: #da9dc5;
      }
    </style>
    <symbol id="_id28_spbrqqieg" data-name="  id28 spbrqqieg" viewBox="0 0 24.89 7.43">
      <g id="_id29_spbrqqieg" data-name="  id29 spbrqqieg">
        <path class="cls-8" d="M24.55,1.94c.57.37.43.98-.4,1.85-.9.9-2.2,1.5-3.9,1.8-2.57.6-4.58,1.05-6.05,1.35-2.67.5-5.1.62-7.3.35-2.23-.3-4.05-.75-5.45-1.35-.7-.3-1.18-.58-1.45-.85L9.55.94C12.28-.06,15.45-.26,19.05.34c2.67.43,4.5.97,5.5,1.6Z"/>
      </g>
    </symbol>
    <symbol id="_id30_spbrqqieg" data-name="  id30 spbrqqieg" viewBox="0 0 25.46 11.41">
      <g id="_id31_spbrqqieg" data-name="  id31 spbrqqieg">
        <path class="cls-8" d="M7.35.05c6.57-.3,11.63.78,15.2,3.25,1.33.9,2.22,1.85,2.65,2.85.4.9.33,1.53-.2,1.9-1.2.8-2.6,1.43-4.2,1.9-2.17.63-4.98,1.1-8.45,1.4-3.2.27-6.22-.37-9.05-1.9-1.4-.77-2.5-1.57-3.3-2.4C0,7.05,7.35.05,7.35.05Z"/>
      </g>
    </symbol>
    <clipPath id="clippath">
      <rect class="cls-1" x="135.49" y="780.41" width="98.61" height="44.19"/>
    </clipPath>
    <clipPath id="clippath-1">
      <rect class="cls-1" x="191.46" y="806.6" width="96.43" height="28.77"/>
    </clipPath>
    <clipPath id="clippath-2">
      <rect class="cls-1" x="1397.71" y="756.73" width="98.61" height="44.19"/>
    </clipPath>
    <clipPath id="clippath-3">
      <rect class="cls-1" x="1343.92" y="782.92" width="96.43" height="28.77"/>
    </clipPath>
  </defs>
  <rect class="cls-6" y="493.65" width="1625.01" height="586.35"/>
  <rect class="cls-19" width="1625.01" height="586.35"/>
  <circle class="cls-22" cx="930.3" cy="165.95" r="276.93"/>
  <path class="cls-11" d="M53.75,0h24.38c-.53,2.57,1.28,1.53,2.77,1.97,35.44,10.49,59.07,33.41,65.04,70.76.34,2.13-.75,7.48,1.5,8.13.67.19,11.15-3.39,13.4-3.89,29.28-6.49,59.14-4.44,86.8,7.25,3.44,1.45,19.31,10.6,20.77,10.58,2.3-.04,6.83-9.85,9.09-12.61,27.09-33.02,80.64-11.96,79.26,30.03,28.99-6.49,58.87,4.23,73.29,30.73,21.65,39.77-4.28,88.44-48.91,92.79-.28,7.72,6.84,13.27,6.1,21.74,13.22-2.2,26.85-1.14,38.91,5.05,3.43,1.76,11.68,9.39,14.53,7.21.52-.4,2.09-7.06,2.82-8.68,37.8-84.53,163.73-53.93,156.22,41.25-.6,7.6-4.25,14.61-4.38,22.15,27.43-8.39,54.35,13.24,48.52,41.95-.71,3.48-6.37,14.52-4.88,16.24.15.17,3.08.66,4.29,1.35,6.87,3.91,13.84,8.11,19.88,13.23,2.25,1.91,9.81,11.53,12.22,9.81.3-.21,2.24-4.84,3.58-6.44,9.8-11.78,27.79-14.51,39.19-3.53,2.18,2.1,5.86,9.19,8.23,9.17.81,0,8.3-4.57,10.3-5.39,19.53-8.01,39.54-7.62,59.8-2.45-.64-21.84,19.61-44.13,41.38-46.09,31.76-2.85,52.76,16.82,56.96,47.45,6.11.41,11.6.47,17.45,2.57,3.97,1.42,13.94,8.91,15.3,9.13,3.31.54,12.01-3.08,16.51-3.48,57.79-5.13,95.77,57.08,59.99,102.55-1.79,2.28-9.38,8.7-9.81,10.27-.46,1.68,2.26,9.67,2.52,12.82.54,6.63-.2,13.21-1.78,19.6,12.27,1.75,24.51,9.1,32.25,18.67,1.04,1.29,2.05,1.96,1.71,3.95H-48.12l-.87-.87V85.24c9.56-1.1,18.16-2.41,27.82-.92.89-19.26,6.75-38.51,19.23-53.42C11.45,14.89,25.35,7.82,45.06,2.15c1.44-.42,3.09.16,2.6-2.15h6.1Z"/>
  <path class="cls-20" d="M47.66,0c.5,2.31-1.15,1.73-2.6,2.15C25.35,7.82,11.45,14.89-1.95,30.91c-12.47,14.91-18.34,34.16-19.23,53.42-9.66-1.49-18.26-.18-27.82.92V0H47.66Z"/>
  <path class="cls-11" d="M1247.51,350.55c-3.83-23.77,2.84-43.91,21.31-59.17,10.74-8.87,27.09-13.31,40.94-12.15,3.55.3,7.62,2.68,11.16,1.57,2.08-.65,7.71-10.49,9.73-12.9,23.21-27.7,63.57-33.64,93.88-13.74l14.53,11.14c-2.52-16.81,4.23-30.31,16.54-41.33,27-24.16,101.37-44.98,137.14-43.04,32.26,1.76,86.86,15.27,91,53.93l7.83-.87v134.83c-13.36,2.09-26.97,1.95-40.48,2.62-113.12,5.62-229.82,8.88-343.06.85-40.55-2.87-93.86-7.57-132.8-17.81-.75-.2-7.35-1.36-5.21-3.05,2.34.94,6.03-.87,7.4-.87h70.09Z"/>
  <path class="cls-11" d="M1219.85,122.44c1.29.75,3.84-.24,5.88,1.53s1.44,7.22,4.99,8.12c3.87.98,8.85-10.23,17.69-2.94,6.81,5.61,2.17,8.83,3.58,12.92.28.82,4.28,3.47,5.54,4.92,4.07,4.67,4.62,8.85,5.72,14.73,5.48-.75,7.52-3.57,12.57.92,30.08,1.55,60.52,2.51,90.4,4.43,2.6.17,6.29.5,8.87.8,1.3.15,2.65.7,1.28,1.74-10.6.99-21.19.5-31.81.84-78.91,2.49-191.4,5.2-266.65-17.11-1.01-.3-3.68-.72-3.66-1.98,18.24-.12,36.43,2.35,54.68,2.42-.03-3.31,6.52-7.04,6.96-7.82,1.35-2.4-1.53-5.74,4.1-9.4,5.12-3.33,7.33.11,11.13-1.03,1.18-.35,1.91-1.83,2.93-2.32,1.53-.73,5.33-1.63,6.02-2.72.76-1.22-.83-8.1-.5-10.92,1.87-16.15,23.27-23.29,34.84-11.27,1.84,1.91,4.21,8.09,5.22,8.73,2.57,1.61,9.53-4.35,16.99,1.26,1.48,1.11,2.92,3.96,3.24,4.15Z"/>
  <g>
    <path class="cls-2" d="M1067.14,227.68c-9.42,7.02-23.49,19.29-35.62,38.32-11.72,18.4-16.92,35.72-19.39,47.04,55.09,15.11,77.95,6.13,88.67-4.81,11.19-11.42,6.7-22.49,23.75-48.39,16.77-25.48,32.21-31.63,29.46-41.33-3.18-11.19-27.03-14.68-42.53-13.23-23.43,2.2-38.91,16.75-44.33,22.39Z"/>
    <path class="cls-21" d="M1092.69,280.88c-1.04-2.3-3.73-7.39-9.46-10.67-7.93-4.54-16.13-2.42-19.1-1.65-10.86,2.81-17.05,10.92-22.99,18.94-4.59,6.2-11.5,17.29-15.18,33.55,33.02,6.26,60.08-3.63,66.73-20.62,1.34-3.43,2.91-9.85,0-19.54Z"/>
    <path class="cls-23" d="M1076.76,295.16c-2.28-4.09-6.37-10.21-12.32-13.68-1.98-1.15-3.69-1.74-5.26-1.2-2.34.8-3.31,3.7-3.91,5.71-2.26,7.63-3.19,16.35-3.61,22.09,8.37-4.31,16.73-8.61,25.1-12.92Z"/>
    <path class="cls-23" d="M1031.67,311.36c-3.92-6.34-6.09-11.42-7.36-15.01-.36-1-1.27-3.67-3.46-6.52-1.35-1.76-4.17-5.45-7.06-5.05-.55.08-2.48.5-4.81,5.71-1.44,3.23-3.4,9.1-2.71,17.58,8.47,1.09,16.93,2.19,25.4,3.28Z"/>
    <path class="cls-23" d="M986.28,226.02c-.03,5.3-.99,13.91-6.76,20.59-1.56,1.8-3.92,4.46-6.76,4.21-3.75-.33-6-5.52-7.06-7.97-4.25-9.81-2.1-20.29,0-26.75,6.86,3.31,13.73,6.61,20.59,9.92Z"/>
    <path class="cls-23" d="M995.9,229.33c.53,5.06,1.44,9.24,2.25,12.32,2,7.58,3.94,10.49,6.16,12.47,2.6,2.32,4.22,2.17,4.66,2.1.57-.09,2.26-.49,4.36-4.36,2.07-3.81,2.5-7.24,2.86-10.07,1.68-13.23,1.84-13.74,1.2-14.58-2.69-3.53-11.55-2.37-21.49,2.1Z"/>
    <path class="cls-23" d="M1050.91,231.58c-.12,5.92-.82,10.76-1.5,14.28-.39,1.99-1.08,5.15-3.16,8.57-1.27,2.09-2.52,4.09-4.51,4.36-2.3.31-4.3-1.86-5.86-3.61-2.73-3.04-4.29-6.31-6.31-12.32-1.08-3.19-2.39-7.46-3.61-12.62,8.32.45,16.63.9,24.95,1.35Z"/>
    <path class="cls-23" d="M1083.23,224.07c-.82,5.03-1.83,9.25-2.72,12.47-.43,1.56-1.58,5.61-4.51,9.77-1.16,1.64-2.12,2.63-3.46,2.86-1.02.17-2.49-.06-5.26-2.55-3.46-3.11-5.26-6.44-6.01-7.81-1.57-2.88-3.94-7.1-7.21-12.47,9.72-.75,19.44-1.5,29.17-2.25Z"/>
    <path class="cls-18" d="M1225.75,272.51c-8.53-7.57-10.74-17.68-11.45-21.17-2.2-10.77.7-18.67,2.08-26.72,0,0,5.14-23.8,1.39-48.59-.96-6.35-5.33-32.68-27.42-52.41-16.17-14.45-33.85-18.22-44.42-20.48-11.58-2.47-29.27-6.52-47.89,0-14.59,5.11-26.72,13.19-26.72,13.19-6.01,4-7.44,5.8-12.15,7.64-9.87,3.85-17.49,1.37-26.72.69-16.38-1.2-29.39,3.9-35.4,6.25-23.4,9.16-35.38,28.55-36.79,30.89-8.51,14.2-8.68,26.82-9.02,52.06-.03,2.55.02,7.2,3.12,10.41,3.26,3.38,8.23,3.43,9.72,3.47,17.88.48,31.38,12.08,66.64,11.45,30.04-.53,54-9.54,81.21-19.78,4.1-1.54,7.45-2.89,9.72-3.82-4.07,15.32-13.5,41.26-36.44,63.51-23.65,22.95-46.89,27.64-54.49,28.11-10.27.64-17.7-3.12-17.7-3.12-3.52-1.79-6.04-3.96-7.64-5.55-1.44.52-4.76,1.95-6.25,5.21-2.12,4.66,1.01,9.81,2.43,12.15,6.25,10.28,18.99,13.44,23.6,14.58,25.92,6.42,51.09-3.9,77.74-14.92,7.81-3.23,14.13-6.22,18.39-8.33-3.12,13.61-8.1,44.32,5.55,77.39,15.72,38.07,46.55,56.09,66.98,68.02,40.31,23.55,78.18,25.57,106.2,27.07,26.38,1.41,39.73-1.73,46.85-3.82,24.97-7.31,40.86-21.34,52.06-31.24,9.12-8.05,28.55-25.59,41.99-55.53,4.78-10.64,13.62-30.91,13.19-58.31-.2-12.62-.99,10-14.1-9.77-.68-1.02,11.67,10.9-9.43,4.37-3.48-1.08-10.01-27.51-12.83-24.28-2.49,2.87-1.17,5.16-.49,6.95,2.35,6.24-.31,5.15,2.85,8.82,10.61,12.31-12.64-11.16-13.21-8.65-.95,4.2-2.65,11.72-9.02,18.39-9.28,9.71-21.66,10.5-25.68,10.76-12.61.8-22.06-4.15-29.15-7.98-14.21-7.68-13.47-12.82-27.42-22.56-15.49-10.81-31.37-14.92-39.56-17.03-9.34-2.41-20.16-4.15-36.79-10.04-4.88-1.73-9.19-3.43-13.54-7.29Z"/>
    <path class="cls-15" d="M1006.67,173.96c-.69,2.07-1.54,1.67-5.65,6.29-.88.99-2.8,3.21-5.83,5.37-.91.65-1.79,1.2-2.55.91-1.24-.48-1.33-2.93-1.37-3.83-.05-1.45.14-3.51,1.64-6.65,1.32-2.78,2.63-5.52,5.65-7.47,1.1-.71,4.68-3.03,6.92-1.55,1.92,1.27,1.92,4.7,1.18,6.92Z"/>
    <circle class="cls-4" cx="1122.11" cy="166.06" r="27.68"/>
    <circle class="cls-17" cx="1114.04" cy="155.02" r="8.65"/>
    <path class="cls-25" d="M1235.91,291.23c-5.19-3.56-10.73-2.24-11.67-2-4.19,1.08-9.26,4.43-10.19,9.66-.64,3.65,1.02,6.61,2.44,9.14,1.46,2.59,4.19,7.46,9.75,8.62,4.91,1.03,8.88-1.48,9.66-2,4.52-3,6.71-8.53,6.01-13.67-.83-6.08-5.39-9.33-6.01-9.75Z"/>
    <path class="cls-25" d="M1250.45,362.37c3.22-1.71,3.71-5.76,3.83-6.79.47-3.92-1.29-8.2-4.79-10.45-.83-.54-4-2.57-7.45-1.31-3.77,1.38-4.77,5.55-4.92,6.18-.95,4,.95,7.98,3.66,10.27.27.23,5.33,4.39,9.66,2.09Z"/>
    <path class="cls-25" d="M1319.24,352.62c-.13-.58-1.51-7.02,2.7-10.8,3.05-2.74,7.1-2.35,8.97-2.18,6.88.65,11,5.89,12.19,7.58,1.46,2.07,4.45,6.32,2.96,10.88-1.1,3.38-4.05,5.06-4.88,5.49-5.19,2.69-10.91-.18-12.97-1.22-2.16-1.08-7.6-3.81-8.97-9.75Z"/>
    <path class="cls-18" d="M1108.68,367.51c-4-.27-9.71-.46-16.53,0-8.64.58-14.61.98-21.82,3.84-3.96,1.57-11.22,4.54-17.56,11.85-5.88,6.78-7.67,13.51-8.86,17.98-1.94,7.28-.97,10.28,0,12.02.39.71,1.93,3.46,5.11,4.35.37.1,3.43.91,5.8-.77,1.19-.84,1.15-1.56,2.64-4.35,1.03-1.93,2.59-3.99,5.71-8.1,1.82-2.4,2.5-3.15,3.07-2.98.74.22.85,1.88.94,3.66.41,8.68-.32,9.53.43,12.36.16.61,1.71,6.17,5.88,7.5.48.15,1.92.62,3.32,0,1.78-.78,2.32-2.8,3.15-5.28.89-2.64,2.23-6.64,4.09-9.72,1.51-2.5,3.45-5.7,6.9-6.65,1.84-.5,4.24.03,9.04,1.11,3.84.86,4.04,1.21,5.53,1.36,2.55.26,6.29-.31,11.25-4.35-2.7-11.28-5.4-22.56-8.1-33.84Z"/>
    <path class="cls-25" d="M1302.08,332.33c3.94-6.61,2.08-13.64,1.83-14.54-3.97-14.11-23.34-16.26-24.47-16.37-4.24-.41-11.67-1.13-16.63,3.83-7.1,7.09-2.81,19.43-2.44,20.46,2.87,7.91,10.11,14.15,18.81,15.59,7.53,1.25,18.02-.79,22.9-8.97Z"/>
    <path class="cls-18" d="M1216.34,479.01c5.62,8.47,7.01,17.18,7.01,17.18.02.15.12.7.2,1.44.33,2.89.4,7.64-1.21,17.56-1.48,9.13-3.35,16.08-6,25.47-3.54,12.53-3.93,11.01-4.92,16.58-.74,4.14-.81,6.64-2.83,9.3-2.5,3.29-5.97,4.2-10.72,5.66-17.01,5.25-14.36,6.63-20.01,7.08-10.13.79-12.18-4.16-23.45-2.63-4.99.68-4.96,1.7-9.3,1.82-6.21.17-11.07-1.78-17.99-4.65-5.45-2.26-8.17-3.38-10.34-5.46-.94-.9-7.6-7.44-6.03-15.16.81-4.01,3.48-6.61,6.03-9.1.79-.77,3.5-3.32,8.73-5.86,8.34-4.06,11.09-2.27,18.8-6.27,2.37-1.23,5.31-2.79,8.29-5.86,4.16-4.29,5.51-8.55,7.48-14.76,1.03-3.23,1.26-4.99.4-6.47-1.17-2.04-3.7-2.37-5.26-2.83-7.25-2.16-10.67-12.3-13.34-20.22-2.42-7.17-4.46-13.01-2.83-20.42.35-1.59,2.47-10.55,8.84-15.09,18.96-13.52,61.46,22.13,68.46,32.68Z"/>
    <path class="cls-16" d="M1101.58,319.09c-2.2,16.3-3.16,40.47,4.33,67.99,4,14.72,10.22,37.57,29.98,59.03,19.34,21,41.1,29.22,54.08,33.95,30.83,11.24,57.01,9.37,76.02,8.08,16.45-1.12,39.87-4.48,66.7-14.52-17.37.03-42.22-1.69-70.72-9.89-18.96-5.46-41.58-11.97-65.52-29.98-10.58-7.96-40.89-31.42-54.7-74.17-6.3-19.49-7.13-36.7-6.8-48.21-5.77,2.05-12.39,4-19.78,5.54-4.81,1-9.36,1.7-13.6,2.19Z"/>
    <path class="cls-15" d="M1139.15,224.83c.88-.99-2.67-7.95-8.99-9.68-6.75-1.85-12.64,3.36-13.23,3.89-1.3,1.67-2.59,3.34-3.89,5.02,4.02-2.3,9.32-4.35,15.13-3.46,6.44.99,10.21,5.11,10.98,4.24Z"/>
    <path class="cls-18" d="M1199.39,377.82c.77,5.2,1.27,13.83-1.98,23.51-1.31,3.92-3.6,10.52-9.68,16.6-4.05,4.05-7.83,6.06-11.66,7.9-6.43,3.1-15.98,7.71-24.11,5.33-1.23-.36-3.92-1.31-5.73,0-1.5,1.08-1.63,3.16-1.78,4.54-.78,7.21-3.82,12.56-7.11,18.38-3.18,5.6-4.91,5.89-5.53,5.93-2.81.17-5.12-3.46-5.93-4.74-2.59-4.07-3.27-9.02-4.35-17.39-.27-2.13-.49-4.15-1.38-4.35-1.06-.23-2.42,2.25-3.56,4.35-3.43,6.33-3.12,9.53-6.52,13.04-.96.99-2.46,2.51-3.95,2.17-1.59-.36-2.41-2.66-2.96-4.94-2.8-11.6,0-20.55,0-20.55,2.14-8.55,7.83-13.16,15.02-19.96,1.73-1.64,11.41-10.64,19.99-14,4.29-1.68,8.29-4.2,12.77-5.29.2-.05.87-.2,1.56-.7,1.69-1.2,2.08-3.38,2.23-4.31.96-6.06.12-11.34,1.11-13.22,1.5-2.84,10.18-3.47,43.55,7.67Z"/>
    <path class="cls-15" d="M1148.99,428.55c8.16-1.19,14.95-3.14,20.18-5.01,10.05-3.59,15.62-5.59,20.42-11.17,4.78-5.55,6.53-12.04,8.09-17.81,1.39-5.13,1.89-9.53,2.1-12.6.92-1.75,2.15-3.93,2.66-3.75.47.17.12,2.29,0,3-2.35,14.3.18,20.71-5.06,30.11-4.47,8.01-10.17,12.32-13.09,13.93-5.02,2.76-10.52,4.76-18.65,6.43-5.21,1.07-9.92.59-13.05.91"/>
    <path class="cls-15" d="M1151.74,376.45c.07-.41.42-2.32,1.68-4.35.53-.85,1.23-1.98,1.89-1.88.88.13,1.21,2.34,1.4,3.63.47,3.26.05,4.85-.28,9.53-.31,4.41-.12,5.56-1.19,7.22-.95,1.47-2.19,2.26-2.87,2.66-7.4,4.37-16.61,5.54-16.61,5.54-5.37.68-11.66,5.07-20.71,15.4-.86-2.36-1.35-2.46-2.21-4.82,7.48-4.63,12.31-11.66,17.25-13.95,5.79-2.69,14.37-5.1,17.66-6.31.94-.35,1.15-.41,2-.94.95-.6,1.48-1.23,1.79-3.54.54-4.03-.4-4.72.21-8.2Z"/>
    <path class="cls-18" d="M1357.67,415.93c3.35,16.3.81,26.88-2.39,33.67-3.33,7.1-6.22,14.4-9.55,21.49-1.25,2.66-3.11,6.57-2.87,11.7.21,4.38,1.84,7.27,3.1,10.03,2.39,5.21,3.29,10.56,5.08,21.25.58,3.45.33,2.94,1.37,29.61.24,6.2.56,14.18-1.37,23.17-.55,2.55-1.4,5.76-3.41,9.31-2.43,4.32-5.3,6.93-7.16,8.6-2.36,2.11-8.1,7.13-16.48,9.08-4.99,1.16-7.08.34-15.28,0-11.99-.49-12.37,1.06-22.45.86-11.66-.24-23.63-.48-32.24-8.5-1.87-1.75-6.94-6.47-6.93-13.14,0-5.54,3.52-9.86,5.02-11.7,2.26-2.78,4.47-4.24,7.88-6.45,7.53-4.88,10-4.14,15.76-8.6,2.29-1.77,4.78-3.73,6.93-7.16,1.51-2.42,2.38-5.87,4.06-12.66,1.7-6.88,1.63-8.25.96-9.55-1.36-2.61-4.27-3.18-7.16-4.3-4.4-1.7-7.71-4.88-14.33-11.22-8.29-7.95-16.85-21.49-20.78-37.73-3.1-12.85-2.27-23.11-1.67-29.85,1.5-16.77,6.66-29.75,10.51-37.64,34.47,6.58,68.94,13.15,103.41,19.73Z"/>
    <path class="cls-15" d="M1342.53,477.13c1.46-.46,2.95-.96,4.46-1.49.7-.25,1.4-.49,2.08-.74,3.69-6.65,7.99-16.26,10.11-28.4,2.88-16.52,1-33.64-.59-33.75-.58-.04-1.35,2.13-1.64,3.12-.61,2.16-.34,3.98-.3,4.31.74,5.42-2.5,26.07-2.68,27.21-1.06,6.68-3.74,16.94-11.45,29.73Z"/>
    <path class="cls-15" d="M1259.4,489.12c-11.65-17.9-12.64-31.14-11.15-40.14,1.45-8.8,9.74-40.69,11.15-48.91.63-3.68.12-3.97,0-4.01-.6-.22-1.87,1.84-2.38,2.68-14.37,23.55-16.5,37.91-16.5,37.91-1.27,8.55-3.38,22.71,3.72,37.91,3.14,6.73,7.1,11.56,9.96,14.57h5.2Z"/>
    <path class="cls-15" d="M1100.95,316.4c11.38-3.55,26.94-9.69,42.23-20.29,10.84-7.52,17.17-11.9,22.54-20.29,2.55-3.98,6.06-10.69,7.21-10.22.68.28.21,2.9,0,4.06-2.54,13.83-12.17,24.42-12.17,24.42-8.01,8.81-16.43,13.06-23.64,16.61-7.25,3.57-18.55,8.14-33.47,10.35-.9-1.55-1.8-3.09-2.71-4.64Z"/>
    <path class="cls-23" d="M1323.58,595.06c.1-1.25.5-7.93-4.47-13.73-4.96-5.8-11.61-6.44-12.86-6.54-2.18,2.17-5.51,6.05-7.85,11.77-1.97,4.82-2.49,9.12-2.62,11.99,3.26.76,8.54,1.57,14.93.65,5.66-.81,10.04-2.68,12.86-4.14Z"/>
    <path class="cls-23" d="M1288.37,596.92c.29-3.82.21-10.32-3.05-16.78-1.37-2.71-3.23-6.27-7.19-7.85-1.55-.62-2.96-.75-3.92-.76-2.59,2.77-4.64,5.19-6.1,6.98-5.13,6.27-6.13,8.59-6.54,10.9-.27,1.55-.75,4.25.76,6.1,1.68,2.05,4.87,1.93,7.19,1.85,5.28-.18,11.22-.32,18.86-.44Z"/>
    <path class="cls-23" d="M1257.31,590.05c.46-5.2.88-9.18,1.31-12.42.13-.98.41-3.04,0-5.67-.22-1.38-.45-2.87-1.31-4.25-1.95-3.14-5.95-3.78-7.08-3.92-3.55,5.83-6.31,10.06-8.61,13.13-.53.71-2.16,2.86-2.83,6.05-.31,1.49-.61,2.89,0,4.24,1.19,2.62,4.97,3.19,7.74,3.61,2.27.34,6.06.58,10.79-.76Z"/>
    <path class="cls-23" d="M1173.22,580.09c.3-2.1.89-8.35-2.74-14.8-2.66-4.72-6.32-7.31-8.21-8.46-1.69.95-3.65,2.27-5.6,4.1-3.26,3.07-4.78,6.25-7.71,12.44-2.71,5.71-2.6,6.85-2.11,7.59,1.07,1.62,4.05,1.38,6.84,1.12,7.38-.69,13.92-1.37,19.53-1.99Z"/>
    <path class="cls-23" d="M1141.14,579.22c1.5-3.51,3.71-10.1,2.36-17.41-.13-.68-1.23-6.36-4.6-8.83-.5-.37-1.56-1.12-2.98-1.12-1.47,0-2.56.82-3.11,1.24-6.89,5.33-11.96,9.24-13.68,16.45-.75,3.14-.3,4.52,0,5.19,1.23,2.77,4.46,3.75,6.96,4.48,2.7.78,7.97,1.81,15.05,0Z"/>
    <path class="cls-23" d="M1127.74,567.9c.3-2.1.89-8.35-2.74-14.8-2.66-4.72-6.32-7.31-8.21-8.46-1.69.95-3.65,2.27-5.6,4.1-3.26,3.07-4.78,6.25-7.71,12.44-2.71,5.71-2.6,6.85-2.11,7.59,1.07,1.62,4.05,1.38,6.84,1.12,7.38-.69,13.92-1.37,19.53-1.99Z"/>
  </g>
  <path class="cls-11" d="M1380.29,168.75c.57.29.57.58,0,.87v-.87Z"/>
  <g>
    <g>
      <g id="_id0_spbrqqieg" data-name="  id0 spbrqqieg">
        <path class="cls-3" d="M940.48,597.89h-413.55l133.16-115.95,19.16-35.83,19.16-29.77,35.4-18.19,1.84-.97,24.68,32.8,40.38,19.16s11.04,25.77,13.64,27.71c2.49,2.06,27.71,20.68,27.71,20.68l17.1,37.35,33.78,18.62,37.35,27.28,10.18,17.1Z"/>
      </g>
      <g id="_id1_spbrqqieg" data-name="  id1 spbrqqieg">
        <path class="cls-5" d="M930.3,580.79l-39.84-17.65-33.78-13.1-41.35-29.77-40.81,4.01,34.32-13.64-26.2-16.13-13.1-23.17-39.41,2.92,35.4-14.61-27.28-33.24-4.44-28.26,1.84-.97,24.68,32.8,40.38,19.16s11.04,25.77,13.64,27.71c2.49,2.06,27.71,20.68,27.71,20.68l17.1,37.35,33.78,18.62,37.35,27.28Z"/>
      </g>
    </g>
    <g>
      <g id="_id2_spbrqqieg" data-name="  id2 spbrqqieg">
        <path class="cls-3" d="M666.58,597.89h-361.48l106.74-158.06,63.87-76.86,13.75-9.74,42.11,50.88,46.88,71.45,35.51,29.23,52.61,93.1Z"/>
      </g>
      <g id="_id3_spbrqqieg" data-name="  id3 spbrqqieg">
        <path class="cls-3" d="M475.72,597.89H-142.11l253.98-228.43,67.88-76.86,31.5-28.15,50.99,9.74,29.88,30.31,27.5,54.13,39.62,33.56s27.5,50.88,31.5,62.79,51.75,83.36,51.75,83.36l33.24,59.54Z"/>
      </g>
      <g id="_id4_spbrqqieg" data-name="  id4 spbrqqieg">
        <path class="cls-5" d="M475.72,597.89l-37.24-28.15-15.37-12.99-15.26-25.98-21.87-16.24-18.62-18.4-7.25-25.98-34.75-25.98-28.26,5.41,22.63-18.4-6.5-31.4-14.51-21.65-20.24-25.98h-46.12l38.86-19.49-22.63-41.14-37.24-27.06,50.99,9.74,29.88,30.31,27.5,54.13,39.62,33.56s27.5,50.88,31.5,62.79c4.01,11.91,51.75,83.36,51.75,83.36l33.13,59.54Z"/>
      </g>
      <g id="_id5_spbrqqieg" data-name="  id5 spbrqqieg">
        <path class="cls-5" d="M666.58,597.89l-53.37-61.71-15.37-28.15-22.63-9.74-17.75-22.73-33.24,6.5,27.5-21.65-62.25-107.18,42.11,50.88,46.88,71.45,35.51,29.23,52.61,93.1Z"/>
      </g>
    </g>
  </g>
  <g>
    <g class="cls-24">
      <use width="25.46" height="11.41" transform="translate(135.49 781.22) scale(3.87)" xlink:href="#_id30_spbrqqieg"/>
    </g>
    <g id="_id32_spbrqqieg" data-name="  id32 spbrqqieg">
      <path class="cls-10" d="M208.7,769.76l9.49,39.12-40.09,14.33-42.61-15.49c.52-8.65,2.19-16.4,5.04-23.24l4.07-7.75c3.61-4.78,7.75-9.49,12.4-14.14,9.3-9.17,16.33-13.49,21.11-12.98,4.91.52,11.49,4,19.76,10.46,4.13,3.35,7.75,6.59,10.85,9.68Z"/>
    </g>
    <g id="_id33_spbrqqieg" data-name="  id33 spbrqqieg">
      <path class="cls-9" d="M137.62,793.77h.19c4.78,1.94,9.04,2.97,12.78,3.1,4.26.13,8.52-.77,12.78-2.71,3.35-1.29,8.07-1.94,14.14-1.94,6.33.13,10.97-.32,13.94-1.36,3.87-1.29,7.29-4.07,10.26-8.33,2.84-4.13,4.84-8.72,6-13.75l.97.97,9.49,39.12-40.09,14.33-42.61-15.49c.39-5.04,1.1-9.68,2.13-13.94Z"/>
    </g>
    <g id="_id34_spbrqqieg" data-name="  id34 spbrqqieg">
      <path class="cls-7" d="M166.86,794.55l-.19-.97c1.94,1.03,3.75,2.91,5.42,5.62,2.71,4,4.32,6.33,4.84,6.97,4.65,5.42,10.97,6.52,18.98,3.3,4.52-1.68,7.75-4.65,9.68-8.91,3.49-2.84,6.13-6.52,7.94-11.04l4.64,19.37-40.09,14.33-42.61-15.49.39-4.65c7.23,5.81,15.75,8.84,25.57,9.11,1.29,0,2.45-.39,3.49-1.17,1.03-.9,1.68-1.94,1.94-3.1,1.29-4.52,1.29-8.98,0-13.36h0Z"/>
    </g>
    <g class="cls-12">
      <use width="24.89" height="7.43" transform="translate(191.46 807.1) scale(3.87)" xlink:href="#_id28_spbrqqieg"/>
    </g>
    <g id="_id35_spbrqqieg" data-name="  id35 spbrqqieg">
      <path class="cls-10" d="M243.37,784.47l12.4,9.68c8.52,6.97,13.49,11.88,14.92,14.72,4,8.27,1.1,14.33-8.72,18.21-5.55,2.32-11.04,3.94-16.46,4.84-6.07,1.03-13.49,1.48-22.27,1.36-7.23-.13-13.49-1.1-18.79-2.91-7.23-2.45-11.55-3.8-12.98-4.07-4.39-.77-3.81-3.87,1.74-9.29,8.39-7.1,14.27-12.72,17.62-16.85,4.65-5.42,8.78-8.91,12.4-10.46.52-.13,7.23-1.87,20.14-5.23h0Z"/>
    </g>
    <g id="_id36_spbrqqieg" data-name="  id36 spbrqqieg">
      <path class="cls-9" d="M270.67,808.88c4,8.27,1.1,14.33-8.72,18.21-5.55,2.32-11.04,3.94-16.46,4.84-6.07,1.03-13.49,1.48-22.27,1.36-7.23-.13-13.49-1.1-18.79-2.91-7.23-2.45-11.55-3.8-12.98-4.07-2.97-.52-3.87-1.87-2.71-4.07.9-1.68,3.29-4.26,7.17-7.75,6.33,3.23,13.69,5.49,22.08,6.78,8.27,1.29,15.62,1.22,22.08-.19,3.23-.77,6.52-3.94,9.88-9.49,1.68-2.97,2.58-4.52,2.71-4.65,1.16-1.55,2.58-2.45,4.26-2.71,2.97-.52,5.23-1.42,6.78-2.71l.2-.39c3.61,3.49,5.88,6.07,6.78,7.75h0Z"/>
    </g>
    <g id="_id37_spbrqqieg" data-name="  id37 spbrqqieg">
      <path class="cls-7" d="M261.38,809.85c3.62,3.62,6.97,6.71,10.07,9.3-1.55,3.49-4.71,6.13-9.49,7.94-5.55,2.32-11.04,3.94-16.46,4.84-6.07,1.03-13.49,1.48-22.27,1.36-7.23-.13-13.49-1.1-18.79-2.91-7.23-2.45-11.55-3.8-12.98-4.07-2.32-.39-3.36-1.36-3.1-2.91.26-1.16,1.48-2.91,3.68-5.23,4.39,5.68,10.78,9.68,19.17,12.01,7.62,2.06,15.17,2.46,22.66,1.16,6.33-1.03,11.81-3.8,16.46-8.32,4.78-5.81,8.46-10.21,11.04-13.17h0Z"/>
    </g>
  </g>
  <g>
    <g>
      <g id="_id0_spbrqqieg-2" data-name="  id0 spbrqqieg">
        <path class="cls-3" d="M690.99,616.77h413.55l-133.16-115.95-19.16-35.83-19.16-29.77-35.4-18.19-1.84-.97-24.68,32.8-40.38,19.16s-11.04,25.77-13.64,27.71c-2.49,2.06-27.71,20.68-27.71,20.68l-17.1,37.35-33.78,18.62-37.35,27.28-10.18,17.1Z"/>
      </g>
      <g id="_id1_spbrqqieg-2" data-name="  id1 spbrqqieg">
        <path class="cls-5" d="M701.17,599.66l39.84-17.65,33.78-13.1,41.35-29.77,40.81,4.01-34.32-13.64,26.2-16.13,13.1-23.17,39.41,2.92-35.4-14.61,27.28-33.24,4.44-28.26-1.84-.97-24.68,32.8-40.38,19.16s-11.04,25.77-13.64,27.71c-2.49,2.06-27.71,20.68-27.71,20.68l-17.1,37.35-33.78,18.62-37.35,27.28Z"/>
      </g>
    </g>
    <g>
      <g id="_id2_spbrqqieg-2" data-name="  id2 spbrqqieg">
        <path class="cls-3" d="M964.89,616.77h361.48l-106.74-158.06-63.87-76.86-13.75-9.74-42.11,50.88-46.88,71.45-35.51,29.23-52.61,93.1Z"/>
      </g>
      <g id="_id3_spbrqqieg-2" data-name="  id3 spbrqqieg">
        <path class="cls-3" d="M1155.75,616.77h617.83l-253.98-228.43-67.88-76.86-31.5-28.15-50.99,9.74-29.88,30.31-27.5,54.13-39.62,33.56s-27.5,50.88-31.5,62.79c-4.01,11.91-51.75,83.36-51.75,83.36l-33.24,59.54Z"/>
      </g>
      <g id="_id4_spbrqqieg-2" data-name="  id4 spbrqqieg">
        <path class="cls-5" d="M1155.75,616.77l37.24-28.15,15.37-12.99,15.26-25.98,21.87-16.24,18.62-18.4,7.25-25.98,34.75-25.98,28.26,5.41-22.63-18.4,6.5-31.4,14.51-21.65,20.24-25.98h46.12l-38.86-19.49,22.63-41.14,37.24-27.06-50.99,9.74-29.88,30.31-27.5,54.13-39.62,33.56s-27.5,50.88-31.5,62.79-51.75,83.36-51.75,83.36l-33.13,59.54Z"/>
      </g>
      <g id="_id5_spbrqqieg-2" data-name="  id5 spbrqqieg">
        <path class="cls-5" d="M964.89,616.77l53.37-61.71,15.37-28.15,22.63-9.74,17.75-22.73,33.24,6.5-27.5-21.65,62.25-107.18-42.11,50.88-46.88,71.45-35.51,29.23-52.61,93.1Z"/>
      </g>
    </g>
  </g>
  <g>
    <g class="cls-14">
      <use width="25.46" height="11.41" transform="translate(1496.32 757.53) rotate(-180) scale(3.87 -3.87)" xlink:href="#_id30_spbrqqieg"/>
    </g>
    <g id="_id32_spbrqqieg-2" data-name="  id32 spbrqqieg">
      <path class="cls-10" d="M1423.11,746.07l-9.49,39.12,40.09,14.33,42.61-15.49c-.52-8.65-2.19-16.4-5.04-23.24l-4.07-7.75c-3.61-4.78-7.75-9.49-12.4-14.14-9.3-9.17-16.33-13.49-21.11-12.98-4.91.52-11.49,4-19.76,10.46-4.13,3.35-7.75,6.59-10.85,9.68Z"/>
    </g>
    <g id="_id33_spbrqqieg-2" data-name="  id33 spbrqqieg">
      <path class="cls-9" d="M1494.19,770.09h-.19c-4.78,1.94-9.04,2.97-12.78,3.1-4.26.13-8.52-.77-12.78-2.71-3.35-1.29-8.07-1.94-14.14-1.94-6.33.13-10.97-.32-13.94-1.36-3.87-1.29-7.29-4.07-10.26-8.33-2.84-4.13-4.84-8.72-6-13.75l-.97.97-9.49,39.12,40.09,14.33,42.61-15.49c-.39-5.04-1.1-9.68-2.13-13.94Z"/>
    </g>
    <g id="_id34_spbrqqieg-2" data-name="  id34 spbrqqieg">
      <path class="cls-7" d="M1464.94,770.86l.19-.97c-1.94,1.03-3.75,2.91-5.42,5.62-2.71,4-4.32,6.33-4.84,6.97-4.65,5.42-10.97,6.52-18.98,3.3-4.52-1.68-7.75-4.65-9.68-8.91-3.49-2.84-6.13-6.52-7.94-11.04l-4.64,19.37,40.09,14.33,42.61-15.49-.39-4.65c-7.23,5.81-15.75,8.84-25.57,9.11-1.29,0-2.45-.39-3.49-1.17-1.03-.9-1.68-1.94-1.94-3.1-1.29-4.52-1.29-8.98,0-13.36h0Z"/>
    </g>
    <g class="cls-13">
      <use width="24.89" height="7.43" transform="translate(1440.35 783.41) rotate(-180) scale(3.87 -3.87)" xlink:href="#_id28_spbrqqieg"/>
    </g>
    <g id="_id35_spbrqqieg-2" data-name="  id35 spbrqqieg">
      <path class="cls-10" d="M1388.44,760.79l-12.4,9.68c-8.52,6.97-13.49,11.88-14.92,14.72-4,8.27-1.1,14.33,8.72,18.21,5.55,2.32,11.04,3.94,16.46,4.84,6.07,1.03,13.49,1.48,22.27,1.36,7.23-.13,13.49-1.1,18.79-2.91,7.23-2.45,11.55-3.8,12.98-4.07,4.39-.77,3.81-3.87-1.74-9.29-8.39-7.1-14.27-12.72-17.62-16.85-4.65-5.42-8.78-8.91-12.4-10.46-.52-.13-7.23-1.87-20.14-5.23h0Z"/>
    </g>
    <g id="_id36_spbrqqieg-2" data-name="  id36 spbrqqieg">
      <path class="cls-9" d="M1361.13,785.19c-4,8.27-1.1,14.33,8.72,18.21,5.55,2.32,11.04,3.94,16.46,4.84,6.07,1.03,13.49,1.48,22.27,1.36,7.23-.13,13.49-1.1,18.79-2.91,7.23-2.45,11.55-3.8,12.98-4.07,2.97-.52,3.87-1.87,2.71-4.07-.9-1.68-3.29-4.26-7.17-7.75-6.33,3.23-13.69,5.49-22.08,6.78-8.27,1.29-15.62,1.22-22.08-.19-3.23-.77-6.52-3.94-9.88-9.49-1.68-2.97-2.58-4.52-2.71-4.65-1.16-1.55-2.58-2.45-4.26-2.71-2.97-.52-5.23-1.42-6.78-2.71l-.2-.39c-3.61,3.49-5.88,6.07-6.78,7.75h0Z"/>
    </g>
    <g id="_id37_spbrqqieg-2" data-name="  id37 spbrqqieg">
      <path class="cls-7" d="M1370.43,786.16c-3.62,3.62-6.97,6.71-10.07,9.3,1.55,3.49,4.71,6.13,9.49,7.94,5.55,2.32,11.04,3.94,16.46,4.84,6.07,1.03,13.49,1.48,22.27,1.36,7.23-.13,13.49-1.1,18.79-2.91,7.23-2.45,11.55-3.8,12.98-4.07,2.32-.39,3.36-1.36,3.1-2.91-.26-1.16-1.48-2.91-3.68-5.23-4.39,5.68-10.78,9.68-19.17,12.01-7.62,2.06-15.17,2.46-22.66,1.16-6.33-1.03-11.81-3.8-16.46-8.32-4.78-5.81-8.46-10.21-11.04-13.17h0Z"/>
    </g>
  </g>
</svg>