<?xml version="1.0" encoding="UTF-8"?>
<svg id="Layer_1" data-name="Layer 1" xmlns="http://www.w3.org/2000/svg" xmlns:xlink="http://www.w3.org/1999/xlink" viewBox="0 0 1625.01 1080">
  <defs>
    <style>
      .cls-1 {
        fill: none;
      }

      .cls-2 {
        fill: #595959;
      }

      .cls-3 {
        fill: #a39589;
      }

      .cls-4 {
        fill: #ba916e;
      }

      .cls-5 {
        fill: #635c55;
      }

      .cls-5, .cls-6, .cls-7, .cls-8 {
        fill-rule: evenodd;
      }

      .cls-9 {
        fill: #eef8f8;
      }

      .cls-10 {
        clip-path: url(#clippath-1);
      }

      .cls-11 {
        clip-path: url(#clippath-3);
      }

      .cls-12 {
        clip-path: url(#clippath-2);
      }

      .cls-13 {
        fill: #ffe9a2;
      }

      .cls-14 {
        fill: #fefefe;
      }

      .cls-7 {
        fill: #787066;
      }

      .cls-15 {
        fill: #ffbe78;
      }

      .cls-8 {
        fill: #94897b;
      }

      .cls-16 {
        clip-path: url(#clippath);
      }
    </style>
    <symbol id="_id28_spbrqqieg" data-name="  id28 spbrqqieg" viewBox="0 0 24.89 7.43">
      <g id="_id29_spbrqqieg" data-name="  id29 spbrqqieg">
        <path class="cls-6" d="M24.55,1.94c.57.37.43.98-.4,1.85-.9.9-2.2,1.5-3.9,1.8-2.57.6-4.58,1.05-6.05,1.35-2.67.5-5.1.62-7.3.35-2.23-.3-4.05-.75-5.45-1.35-.7-.3-1.18-.58-1.45-.85L9.55.94C12.28-.06,15.45-.26,19.05.34c2.67.43,4.5.97,5.5,1.6Z"/>
      </g>
    </symbol>
    <symbol id="_id30_spbrqqieg" data-name="  id30 spbrqqieg" viewBox="0 0 25.46 11.41">
      <g id="_id31_spbrqqieg" data-name="  id31 spbrqqieg">
        <path class="cls-6" d="M7.35.05c6.57-.3,11.63.78,15.2,3.25,1.33.9,2.22,1.85,2.65,2.85.4.9.33,1.53-.2,1.9-1.2.8-2.6,1.43-4.2,1.9-2.17.63-4.98,1.1-8.45,1.4-3.2.27-6.22-.37-9.05-1.9-1.4-.77-2.5-1.57-3.3-2.4C0,7.05,7.35.05,7.35.05Z"/>
      </g>
    </symbol>
    <clipPath id="clippath">
      <rect class="cls-1" x="135.49" y="780.41" width="98.61" height="44.19"/>
    </clipPath>
    <clipPath id="clippath-1">
      <rect class="cls-1" x="191.46" y="806.6" width="96.43" height="28.77"/>
    </clipPath>
    <clipPath id="clippath-2">
      <rect class="cls-1" x="1397.71" y="756.73" width="98.61" height="44.19"/>
    </clipPath>
    <clipPath id="clippath-3">
      <rect class="cls-1" x="1343.92" y="782.92" width="96.43" height="28.77"/>
    </clipPath>
  </defs>
  <rect class="cls-4" x="0" y="493.65" width="1625.01" height="586.35"/>
  <rect class="cls-13" x="0" width="1625.01" height="586.35"/>
  <circle class="cls-15" cx="930.3" cy="165.95" r="276.93"/>
  <path class="cls-9" d="M53.75,0h24.38c-.53,2.57,1.28,1.53,2.77,1.97,35.44,10.49,59.07,33.41,65.04,70.76.34,2.13-.75,7.48,1.5,8.13.67.19,11.15-3.39,13.4-3.89,29.28-6.49,59.14-4.44,86.8,7.25,3.44,1.45,19.31,10.6,20.77,10.58,2.3-.04,6.83-9.85,9.09-12.61,27.09-33.02,80.64-11.96,79.26,30.03,28.99-6.49,58.87,4.23,73.29,30.73,21.65,39.77-4.28,88.44-48.91,92.79-.28,7.72,6.84,13.27,6.1,21.74,13.22-2.2,26.85-1.14,38.91,5.05,3.43,1.76,11.68,9.39,14.53,7.21.52-.4,2.09-7.06,2.82-8.68,37.8-84.53,163.73-53.93,156.22,41.25-.6,7.6-4.25,14.61-4.38,22.15,27.43-8.39,54.35,13.24,48.52,41.95-.71,3.48-6.37,14.52-4.88,16.24.15.17,3.08.66,4.29,1.35,6.87,3.91,13.84,8.11,19.88,13.23,2.25,1.91,9.81,11.53,12.22,9.81.3-.21,2.24-4.84,3.58-6.44,9.8-11.78,27.79-14.51,39.19-3.53,2.18,2.1,5.86,9.19,8.23,9.17.81,0,8.3-4.57,10.3-5.39,19.53-8.01,39.54-7.62,59.8-2.45-.64-21.84,19.61-44.13,41.38-46.09,31.76-2.85,52.76,16.82,56.96,47.45,6.11.41,11.6.47,17.45,2.57,3.97,1.42,13.94,8.91,15.3,9.13,3.31.54,12.01-3.08,16.51-3.48,57.79-5.13,95.77,57.08,59.99,102.55-1.79,2.28-9.38,8.7-9.81,10.27-.46,1.68,2.26,9.67,2.52,12.82.54,6.63-.2,13.21-1.78,19.6,12.27,1.75,24.51,9.1,32.25,18.67,1.04,1.29,2.05,1.96,1.71,3.95H-48.12l-.87-.87V85.24c9.56-1.1,18.16-2.41,27.82-.92.89-19.26,6.75-38.51,19.23-53.42C11.45,14.89,25.35,7.82,45.06,2.15c1.44-.42,3.09.16,2.6-2.15h6.1Z"/>
  <path class="cls-14" d="M47.66,0c.5,2.31-1.15,1.73-2.6,2.15C25.35,7.82,11.45,14.89-1.95,30.91c-12.47,14.91-18.34,34.16-19.23,53.42-9.66-1.49-18.26-.18-27.82.92V0H47.66Z"/>
  <path class="cls-9" d="M1247.51,350.55c-3.83-23.77,2.84-43.91,21.31-59.17,10.74-8.87,27.09-13.31,40.94-12.15,3.55.3,7.62,2.68,11.16,1.57,2.08-.65,7.71-10.49,9.73-12.9,23.21-27.7,63.57-33.64,93.88-13.74l14.53,11.14c-2.52-16.81,4.23-30.31,16.54-41.33,27-24.16,101.37-44.98,137.14-43.04,32.26,1.76,86.86,15.27,91,53.93l7.83-.87v134.83c-13.36,2.09-26.97,1.95-40.48,2.62-113.12,5.62-229.82,8.88-343.06.85-40.55-2.87-93.86-7.57-132.8-17.81-.75-.2-7.35-1.36-5.21-3.05,2.34.94,6.03-.87,7.4-.87h70.09Z"/>
  <path class="cls-9" d="M1219.85,122.44c1.29.75,3.84-.24,5.88,1.53s1.44,7.22,4.99,8.12c3.87.98,8.85-10.23,17.69-2.94,6.81,5.61,2.17,8.83,3.58,12.92.28.82,4.28,3.47,5.54,4.92,4.07,4.67,4.62,8.85,5.72,14.73,5.48-.75,7.52-3.57,12.57.92,30.08,1.55,60.52,2.51,90.4,4.43,2.6.17,6.29.5,8.87.8,1.3.15,2.65.7,1.28,1.74-10.6.99-21.19.5-31.81.84-78.91,2.49-191.4,5.2-266.65-17.11-1.01-.3-3.68-.72-3.66-1.98,18.24-.12,36.43,2.35,54.68,2.42-.03-3.31,6.52-7.04,6.96-7.82,1.35-2.4-1.53-5.74,4.1-9.4,5.12-3.33,7.33.11,11.13-1.03,1.18-.35,1.91-1.83,2.93-2.32,1.53-.73,5.33-1.63,6.02-2.72.76-1.22-.83-8.1-.5-10.92,1.87-16.15,23.27-23.29,34.84-11.27,1.84,1.91,4.21,8.09,5.22,8.73,2.57,1.61,9.53-4.35,16.99,1.26,1.48,1.11,2.92,3.96,3.24,4.15Z"/>
  <path class="cls-9" d="M1380.29,168.75c.57.29.57.58,0,.87v-.87Z"/>
  <g>
    <g>
      <g id="_id0_spbrqqieg" data-name="  id0 spbrqqieg">
        <path class="cls-2" d="M940.48,597.89h-413.55l133.16-115.95,19.16-35.83,19.16-29.77,35.4-18.19,1.84-.97,24.68,32.8,40.38,19.16s11.04,25.77,13.64,27.71c2.49,2.06,27.71,20.68,27.71,20.68l17.1,37.35,33.78,18.62,37.35,27.28,10.18,17.1Z"/>
      </g>
      <g id="_id1_spbrqqieg" data-name="  id1 spbrqqieg">
        <path class="cls-3" d="M930.3,580.79l-39.84-17.65-33.78-13.1-41.35-29.77-40.81,4.01,34.32-13.64-26.2-16.13-13.1-23.17-39.41,2.92,35.4-14.61-27.28-33.24-4.44-28.26,1.84-.97,24.68,32.8,40.38,19.16s11.04,25.77,13.64,27.71c2.49,2.06,27.71,20.68,27.71,20.68l17.1,37.35,33.78,18.62,37.35,27.28Z"/>
      </g>
    </g>
    <g>
      <g id="_id2_spbrqqieg" data-name="  id2 spbrqqieg">
        <path class="cls-2" d="M666.58,597.89h-361.48l106.74-158.06,63.87-76.86,13.75-9.74,42.11,50.88,46.88,71.45,35.51,29.23,52.61,93.1Z"/>
      </g>
      <g id="_id3_spbrqqieg" data-name="  id3 spbrqqieg">
        <path class="cls-2" d="M475.72,597.89H-142.11l253.98-228.43,67.88-76.86,31.5-28.15,50.99,9.74,29.88,30.31,27.5,54.13,39.62,33.56s27.5,50.88,31.5,62.79c4.01,11.91,51.75,83.36,51.75,83.36l33.24,59.54Z"/>
      </g>
      <g id="_id4_spbrqqieg" data-name="  id4 spbrqqieg">
        <path class="cls-3" d="M475.72,597.89l-37.24-28.15-15.37-12.99-15.26-25.98-21.87-16.24-18.62-18.4-7.25-25.98-34.75-25.98-28.26,5.41,22.63-18.4-6.5-31.4-14.51-21.65-20.24-25.98h-46.12l38.86-19.49-22.63-41.14-37.24-27.06,50.99,9.74,29.88,30.31,27.5,54.13,39.62,33.56s27.5,50.88,31.5,62.79c4.01,11.91,51.75,83.36,51.75,83.36l33.13,59.54Z"/>
      </g>
      <g id="_id5_spbrqqieg" data-name="  id5 spbrqqieg">
        <path class="cls-3" d="M666.58,597.89l-53.37-61.71-15.37-28.15-22.63-9.74-17.75-22.73-33.24,6.5,27.5-21.65-62.25-107.18,42.11,50.88,46.88,71.45,35.51,29.23,52.61,93.1Z"/>
      </g>
    </g>
  </g>
  <g>
    <g class="cls-16">
      <use width="25.46" height="11.41" transform="translate(135.49 781.22) scale(3.87)" xlink:href="#_id30_spbrqqieg"/>
    </g>
    <g id="_id32_spbrqqieg" data-name="  id32 spbrqqieg">
      <path class="cls-8" d="M208.7,769.76l9.49,39.12-40.09,14.33-42.61-15.49c.52-8.65,2.19-16.4,5.04-23.24l4.07-7.75c3.61-4.78,7.75-9.49,12.4-14.14,9.3-9.17,16.33-13.49,21.11-12.98,4.91.52,11.49,4,19.76,10.46,4.13,3.35,7.75,6.59,10.85,9.68Z"/>
    </g>
    <g id="_id33_spbrqqieg" data-name="  id33 spbrqqieg">
      <path class="cls-7" d="M137.62,793.77h.19c4.78,1.94,9.04,2.97,12.78,3.1,4.26.13,8.52-.77,12.78-2.71,3.35-1.29,8.07-1.94,14.14-1.94,6.33.13,10.97-.32,13.94-1.36,3.87-1.29,7.29-4.07,10.26-8.33,2.84-4.13,4.84-8.72,6-13.75l.97.97,9.49,39.12-40.09,14.33-42.61-15.49c.39-5.04,1.1-9.68,2.13-13.94Z"/>
    </g>
    <g id="_id34_spbrqqieg" data-name="  id34 spbrqqieg">
      <path class="cls-5" d="M166.86,794.55l-.19-.97c1.94,1.03,3.75,2.91,5.42,5.62,2.71,4,4.32,6.33,4.84,6.97,4.65,5.42,10.97,6.52,18.98,3.3,4.52-1.68,7.75-4.65,9.68-8.91,3.49-2.84,6.13-6.52,7.94-11.04l4.64,19.37-40.09,14.33-42.61-15.49.39-4.65c7.23,5.81,15.75,8.84,25.57,9.11,1.29,0,2.45-.39,3.49-1.17,1.03-.9,1.68-1.94,1.94-3.1,1.29-4.52,1.29-8.98,0-13.36h0Z"/>
    </g>
    <g class="cls-10">
      <use width="24.89" height="7.43" transform="translate(191.46 807.1) scale(3.87)" xlink:href="#_id28_spbrqqieg"/>
    </g>
    <g id="_id35_spbrqqieg" data-name="  id35 spbrqqieg">
      <path class="cls-8" d="M243.37,784.47l12.4,9.68c8.52,6.97,13.49,11.88,14.92,14.72,4,8.27,1.1,14.33-8.72,18.21-5.55,2.32-11.04,3.94-16.46,4.84-6.07,1.03-13.49,1.48-22.27,1.36-7.23-.13-13.49-1.1-18.79-2.91-7.23-2.45-11.55-3.8-12.98-4.07-4.39-.77-3.81-3.87,1.74-9.29,8.39-7.1,14.27-12.72,17.62-16.85,4.65-5.42,8.78-8.91,12.4-10.46.52-.13,7.23-1.87,20.14-5.23h0Z"/>
    </g>
    <g id="_id36_spbrqqieg" data-name="  id36 spbrqqieg">
      <path class="cls-7" d="M270.67,808.88c4,8.27,1.1,14.33-8.72,18.21-5.55,2.32-11.04,3.94-16.46,4.84-6.07,1.03-13.49,1.48-22.27,1.36-7.23-.13-13.49-1.1-18.79-2.91-7.23-2.45-11.55-3.8-12.98-4.07-2.97-.52-3.87-1.87-2.71-4.07.9-1.68,3.29-4.26,7.17-7.75,6.33,3.23,13.69,5.49,22.08,6.78,8.27,1.29,15.62,1.22,22.08-.19,3.23-.77,6.52-3.94,9.88-9.49,1.68-2.97,2.58-4.52,2.71-4.65,1.16-1.55,2.58-2.45,4.26-2.71,2.97-.52,5.23-1.42,6.78-2.71l.2-.39c3.61,3.49,5.88,6.07,6.78,7.75h0Z"/>
    </g>
    <g id="_id37_spbrqqieg" data-name="  id37 spbrqqieg">
      <path class="cls-5" d="M261.38,809.85c3.62,3.62,6.97,6.71,10.07,9.3-1.55,3.49-4.71,6.13-9.49,7.94-5.55,2.32-11.04,3.94-16.46,4.84-6.07,1.03-13.49,1.48-22.27,1.36-7.23-.13-13.49-1.1-18.79-2.91-7.23-2.45-11.55-3.8-12.98-4.07-2.32-.39-3.36-1.36-3.1-2.91.26-1.16,1.48-2.91,3.68-5.23,4.39,5.68,10.78,9.68,19.17,12.01,7.62,2.06,15.17,2.46,22.66,1.16,6.33-1.03,11.81-3.8,16.46-8.32,4.78-5.81,8.46-10.21,11.04-13.17h0Z"/>
    </g>
  </g>
  <g>
    <g>
      <g id="_id0_spbrqqieg-2" data-name="  id0 spbrqqieg">
        <path class="cls-2" d="M690.99,616.77h413.55l-133.16-115.95-19.16-35.83-19.16-29.77-35.4-18.19-1.84-.97-24.68,32.8-40.38,19.16s-11.04,25.77-13.64,27.71c-2.49,2.06-27.71,20.68-27.71,20.68l-17.1,37.35-33.78,18.62-37.35,27.28-10.18,17.1Z"/>
      </g>
      <g id="_id1_spbrqqieg-2" data-name="  id1 spbrqqieg">
        <path class="cls-3" d="M701.17,599.66l39.84-17.65,33.78-13.1,41.35-29.77,40.81,4.01-34.32-13.64,26.2-16.13,13.1-23.17,39.41,2.92-35.4-14.61,27.28-33.24,4.44-28.26-1.84-.97-24.68,32.8-40.38,19.16s-11.04,25.77-13.64,27.71c-2.49,2.06-27.71,20.68-27.71,20.68l-17.1,37.35-33.78,18.62-37.35,27.28Z"/>
      </g>
    </g>
    <g>
      <g id="_id2_spbrqqieg-2" data-name="  id2 spbrqqieg">
        <path class="cls-2" d="M964.89,616.77h361.48l-106.74-158.06-63.87-76.86-13.75-9.74-42.11,50.88-46.88,71.45-35.51,29.23-52.61,93.1Z"/>
      </g>
      <g id="_id3_spbrqqieg-2" data-name="  id3 spbrqqieg">
        <path class="cls-2" d="M1155.75,616.77h617.83l-253.98-228.43-67.88-76.86-31.5-28.15-50.99,9.74-29.88,30.31-27.5,54.13-39.62,33.56s-27.5,50.88-31.5,62.79c-4.01,11.91-51.75,83.36-51.75,83.36l-33.24,59.54Z"/>
      </g>
      <g id="_id4_spbrqqieg-2" data-name="  id4 spbrqqieg">
        <path class="cls-3" d="M1155.75,616.77l37.24-28.15,15.37-12.99,15.26-25.98,21.87-16.24,18.62-18.4,7.25-25.98,34.75-25.98,28.26,5.41-22.63-18.4,6.5-31.4,14.51-21.65,20.24-25.98h46.12l-38.86-19.49,22.63-41.14,37.24-27.06-50.99,9.74-29.88,30.31-27.5,54.13-39.62,33.56s-27.5,50.88-31.5,62.79-51.75,83.36-51.75,83.36l-33.13,59.54Z"/>
      </g>
      <g id="_id5_spbrqqieg-2" data-name="  id5 spbrqqieg">
        <path class="cls-3" d="M964.89,616.77l53.37-61.71,15.37-28.15,22.63-9.74,17.75-22.73,33.24,6.5-27.5-21.65,62.25-107.18-42.11,50.88-46.88,71.45-35.51,29.23-52.61,93.1Z"/>
      </g>
    </g>
  </g>
  <g>
    <g class="cls-12">
      <use width="25.46" height="11.41" transform="translate(1496.32 757.53) rotate(-180) scale(3.87 -3.87)" xlink:href="#_id30_spbrqqieg"/>
    </g>
    <g id="_id32_spbrqqieg-2" data-name="  id32 spbrqqieg">
      <path class="cls-8" d="M1423.11,746.07l-9.49,39.12,40.09,14.33,42.61-15.49c-.52-8.65-2.19-16.4-5.04-23.24l-4.07-7.75c-3.61-4.78-7.75-9.49-12.4-14.14-9.3-9.17-16.33-13.49-21.11-12.98-4.91.52-11.49,4-19.76,10.46-4.13,3.35-7.75,6.59-10.85,9.68Z"/>
    </g>
    <g id="_id33_spbrqqieg-2" data-name="  id33 spbrqqieg">
      <path class="cls-7" d="M1494.19,770.09h-.19c-4.78,1.94-9.04,2.97-12.78,3.1-4.26.13-8.52-.77-12.78-2.71-3.35-1.29-8.07-1.94-14.14-1.94-6.33.13-10.97-.32-13.94-1.36-3.87-1.29-7.29-4.07-10.26-8.33-2.84-4.13-4.84-8.72-6-13.75l-.97.97-9.49,39.12,40.09,14.33,42.61-15.49c-.39-5.04-1.1-9.68-2.13-13.94Z"/>
    </g>
    <g id="_id34_spbrqqieg-2" data-name="  id34 spbrqqieg">
      <path class="cls-5" d="M1464.94,770.86l.19-.97c-1.94,1.03-3.75,2.91-5.42,5.62-2.71,4-4.32,6.33-4.84,6.97-4.65,5.42-10.97,6.52-18.98,3.3-4.52-1.68-7.75-4.65-9.68-8.91-3.49-2.84-6.13-6.52-7.94-11.04l-4.64,19.37,40.09,14.33,42.61-15.49-.39-4.65c-7.23,5.81-15.75,8.84-25.57,9.11-1.29,0-2.45-.39-3.49-1.17-1.03-.9-1.68-1.94-1.94-3.1-1.29-4.52-1.29-8.98,0-13.36h0Z"/>
    </g>
    <g class="cls-11">
      <use width="24.89" height="7.43" transform="translate(1440.35 783.41) rotate(-180) scale(3.87 -3.87)" xlink:href="#_id28_spbrqqieg"/>
    </g>
    <g id="_id35_spbrqqieg-2" data-name="  id35 spbrqqieg">
      <path class="cls-8" d="M1388.44,760.79l-12.4,9.68c-8.52,6.97-13.49,11.88-14.92,14.72-4,8.27-1.1,14.33,8.72,18.21,5.55,2.32,11.04,3.94,16.46,4.84,6.07,1.03,13.49,1.48,22.27,1.36,7.23-.13,13.49-1.1,18.79-2.91,7.23-2.45,11.55-3.8,12.98-4.07,4.39-.77,3.81-3.87-1.74-9.29-8.39-7.1-14.27-12.72-17.62-16.85-4.65-5.42-8.78-8.91-12.4-10.46-.52-.13-7.23-1.87-20.14-5.23h0Z"/>
    </g>
    <g id="_id36_spbrqqieg-2" data-name="  id36 spbrqqieg">
      <path class="cls-7" d="M1361.13,785.19c-4,8.27-1.1,14.33,8.72,18.21,5.55,2.32,11.04,3.94,16.46,4.84,6.07,1.03,13.49,1.48,22.27,1.36,7.23-.13,13.49-1.1,18.79-2.91,7.23-2.45,11.55-3.8,12.98-4.07,2.97-.52,3.87-1.87,2.71-4.07-.9-1.68-3.29-4.26-7.17-7.75-6.33,3.23-13.69,5.49-22.08,6.78-8.27,1.29-15.62,1.22-22.08-.19-3.23-.77-6.52-3.94-9.88-9.49-1.68-2.97-2.58-4.52-2.71-4.65-1.16-1.55-2.58-2.45-4.26-2.71-2.97-.52-5.23-1.42-6.78-2.71l-.2-.39c-3.61,3.49-5.88,6.07-6.78,7.75h0Z"/>
    </g>
    <g id="_id37_spbrqqieg-2" data-name="  id37 spbrqqieg">
      <path class="cls-5" d="M1370.43,786.16c-3.62,3.62-6.97,6.71-10.07,9.3,1.55,3.49,4.71,6.13,9.49,7.94,5.55,2.32,11.04,3.94,16.46,4.84,6.07,1.03,13.49,1.48,22.27,1.36,7.23-.13,13.49-1.1,18.79-2.91,7.23-2.45,11.55-3.8,12.98-4.07,2.32-.39,3.36-1.36,3.1-2.91-.26-1.16-1.48-2.91-3.68-5.23-4.39,5.68-10.78,9.68-19.17,12.01-7.62,2.06-15.17,2.46-22.66,1.16-6.33-1.03-11.81-3.8-16.46-8.32-4.78-5.81-8.46-10.21-11.04-13.17h0Z"/>
    </g>
  </g>
</svg>