<?xml version="1.0" encoding="UTF-8"?>
<svg id="Layer_1" data-name="Layer 1" xmlns="http://www.w3.org/2000/svg" viewBox="0 0 1625.01 1080">
  <defs>
    <style>
      .cls-1 {
        fill: #75573f;
      }

      .cls-2 {
        fill: #595959;
      }

      .cls-3 {
        fill: #faeec8;
      }

      .cls-4 {
        fill: #a39589;
      }

      .cls-5 {
        fill: #eef8f8;
      }
    </style>
  </defs>
  <rect class="cls-1" x=".46" y="586.35" width="1625.01" height="586.35" transform="translate(1625.93 1759.04) rotate(180)"/>
  <rect class="cls-3" x="0" width="1625.01" height="780.23"/>
  <path class="cls-5" d="M1544.93,229.38h-24.38c.53,2.57-1.28,1.53-2.77,1.97-35.44,10.49-59.07,33.41-65.04,70.76-.34,2.13.75,7.48-1.5,8.13-.67.19-11.15-3.39-13.4-3.89-29.28-6.49-59.14-4.44-86.8,7.25-3.44,1.45-19.31,10.6-20.77,10.58-2.3-.04-6.83-9.85-9.09-12.61-27.09-33.02-80.64-11.96-79.26,30.03-28.99-6.49-58.87,4.23-73.29,30.73-21.65,39.77,4.28,88.44,48.91,92.79.28,7.72-6.84,13.27-6.1,21.74-13.22-2.2-26.85-1.14-38.91,5.05-3.43,1.76-11.68,9.39-14.53,7.21-.52-.4-2.09-7.06-2.82-8.68-37.8-84.53-163.73-53.93-156.22,41.25.6,7.6,4.25,14.61,4.38,22.15-27.43-8.39-54.35,13.24-48.52,41.95.71,3.48,6.37,14.52,4.88,16.24-.15.17-3.08.66-4.29,1.35-6.87,3.91-13.84,8.11-19.88,13.23-2.25,1.91-9.81,11.53-12.22,9.81-.3-.21-2.24-4.84-3.58-6.44-9.8-11.78-27.79-14.51-39.19-3.53-2.18,2.1-5.86,9.19-8.23,9.17-.81,0-8.3-4.57-10.3-5.39-19.53-8.01-39.54-7.62-59.8-2.45.64-21.84-19.61-44.13-41.38-46.09-31.76-2.85-52.76,16.82-56.96,47.45-6.11.41-11.6.47-17.45,2.57-3.97,1.42-13.94,8.91-15.3,9.13-3.31.54-12.01-3.08-16.51-3.48-57.79-5.13-95.77,57.08-59.99,102.55,1.79,2.28,9.38,8.7,9.81,10.27.46,1.68-2.26,9.67-2.52,12.82-.54,6.63.2,13.21,1.78,19.6-12.27,1.75-24.51,9.1-32.25,18.67-1.04,1.29-2.05,1.96-1.71,3.95h1077.08l.87-.87v-489.72c-9.56-1.1-18.16-2.41-27.82-.92-.89-19.26-6.75-38.51-19.23-53.42-13.39-16.01-27.3-23.08-47.01-28.76-1.44-.42-3.09.16-2.6-2.15h-6.1Z"/>
  <path class="cls-5" d="M391.2,222.75c3.83-23.77-2.84-43.91-21.31-59.17-10.74-8.87-27.09-13.31-40.94-12.15-3.55.3-7.62,2.68-11.16,1.57-2.08-.65-7.71-10.49-9.73-12.9-23.21-27.7-63.57-33.64-93.88-13.74l-14.53,11.14c2.52-16.81-4.23-30.31-16.54-41.33-27-24.16-101.37-44.98-137.14-43.04-32.26,1.76-86.86,15.27-91,53.93l-7.83-.87v134.83c13.36,2.09,26.97,1.95,40.48,2.62,113.12,5.62,229.82,8.88,343.06.85,40.55-2.87,93.86-7.57,132.8-17.81.75-.2,7.35-1.36,5.21-3.05-2.34.94-6.03-.87-7.4-.87h-70.09Z"/>
  <path class="cls-5" d="M141.52,403.08c-1.29.75-3.84-.24-5.88,1.53-2.13,1.85-1.44,7.22-4.99,8.12-3.87.98-8.85-10.23-17.69-2.94-6.81,5.61-2.17,8.83-3.58,12.92-.28.82-4.28,3.47-5.54,4.92-4.07,4.67-4.62,8.85-5.72,14.73-5.48-.75-7.52-3.57-12.57.92-30.08,1.55-60.52,2.51-90.4,4.43-2.6.17-6.29.5-8.87.8-1.3.15-2.65.7-1.28,1.74,10.6.99,21.19.5,31.81.84,78.91,2.49,191.4,5.2,266.65-17.11,1.01-.3,3.68-.72,3.66-1.98-18.24-.12-36.43,2.35-54.68,2.42.03-3.31-6.52-7.04-6.96-7.82-1.35-2.4,1.53-5.74-4.1-9.4-5.12-3.33-7.33.11-11.13-1.03-1.18-.35-1.91-1.83-2.93-2.32-1.53-.73-5.33-1.63-6.02-2.72-.76-1.22.83-8.1.5-10.92-1.87-16.15-23.27-23.29-34.84-11.27-1.84,1.91-4.21,8.09-5.22,8.73-2.57,1.61-9.53-4.35-16.99,1.26-1.48,1.11-2.92,3.96-3.24,4.15Z"/>
  <path class="cls-5" d="M251.18,168.75c-.57.29-.57.58,0,.87v-.87Z"/>
  <g>
    <g>
      <g id="_id0_spbrqqieg" data-name="  id0 spbrqqieg">
        <path class="cls-2" d="M720.3,816.74h413.55l-133.16-115.95-19.16-35.83-19.16-29.77-35.4-18.19-1.84-.97-24.68,32.8-40.38,19.16s-11.04,25.77-13.64,27.71c-2.49,2.06-27.71,20.68-27.71,20.68l-17.1,37.35-33.78,18.62-37.35,27.28-10.18,17.1Z"/>
      </g>
      <g id="_id1_spbrqqieg" data-name="  id1 spbrqqieg">
        <path class="cls-4" d="M730.47,799.64l39.84-17.65,33.78-13.1,41.35-29.77,40.81,4.01-34.32-13.64,26.2-16.13,13.1-23.17,39.41,2.92-35.4-14.61,27.28-33.24,4.44-28.26-1.84-.97-24.68,32.8-40.38,19.16s-11.04,25.77-13.64,27.71c-2.49,2.06-27.71,20.68-27.71,20.68l-17.1,37.35-33.78,18.62-37.35,27.28Z"/>
      </g>
    </g>
    <g>
      <g id="_id2_spbrqqieg" data-name="  id2 spbrqqieg">
        <path class="cls-2" d="M994.19,816.74h361.48l-106.74-158.06-63.87-76.86-13.75-9.74-42.11,50.88-46.88,71.45-35.51,29.23-52.61,93.1Z"/>
      </g>
      <g id="_id3_spbrqqieg" data-name="  id3 spbrqqieg">
        <path class="cls-2" d="M1185.05,816.74h617.83l-253.98-228.43-67.88-76.86-31.5-28.15-50.99,9.74-29.88,30.31-27.5,54.13-39.62,33.56s-27.5,50.88-31.5,62.79-51.75,83.36-51.75,83.36l-33.24,59.54Z"/>
      </g>
      <g id="_id4_spbrqqieg" data-name="  id4 spbrqqieg">
        <path class="cls-4" d="M1185.05,816.74l37.24-28.15,15.37-12.99,15.26-25.98,21.87-16.24,18.62-18.4,7.25-25.98,34.75-25.98,28.26,5.41-22.63-18.4,6.5-31.4,14.51-21.65,20.24-25.98h46.12l-38.86-19.49,22.63-41.14,37.24-27.06-50.99,9.74-29.88,30.31-27.5,54.13-39.62,33.56s-27.5,50.88-31.5,62.79c-4.01,11.91-51.75,83.36-51.75,83.36l-33.13,59.54Z"/>
      </g>
      <g id="_id5_spbrqqieg" data-name="  id5 spbrqqieg">
        <path class="cls-4" d="M994.19,816.74l53.37-61.71,15.37-28.15,22.63-9.74,17.75-22.73,33.24,6.5-27.5-21.65,62.25-107.18-42.11,50.88-46.88,71.45-35.51,29.23-52.61,93.1Z"/>
      </g>
    </g>
  </g>
  <g>
    <g>
      <g id="_id0_spbrqqieg-2" data-name="  id0 spbrqqieg">
        <path class="cls-2" d="M927.07,850.74h-413.55l133.16-115.95,19.16-35.83,19.16-29.77,35.4-18.19,1.84-.97,24.68,32.8,40.38,19.16s11.04,25.77,13.64,27.71c2.49,2.06,27.71,20.68,27.71,20.68l17.1,37.35,33.78,18.62,37.35,27.28,10.18,17.1Z"/>
      </g>
      <g id="_id1_spbrqqieg-2" data-name="  id1 spbrqqieg">
        <path class="cls-4" d="M916.9,833.63l-39.84-17.65-33.78-13.1-41.35-29.77-40.81,4.01,34.32-13.64-26.2-16.13-13.1-23.17-39.41,2.92,35.4-14.61-27.28-33.24-4.44-28.26,1.84-.97,24.68,32.8,40.38,19.16s11.04,25.77,13.64,27.71c2.49,2.06,27.71,20.68,27.71,20.68l17.1,37.35,33.78,18.62,37.35,27.28Z"/>
      </g>
    </g>
    <g>
      <g id="_id2_spbrqqieg-2" data-name="  id2 spbrqqieg">
        <path class="cls-2" d="M653.18,850.74h-361.48l106.74-158.06,63.87-76.86,13.75-9.74,42.11,50.88,46.88,71.45,35.51,29.23,52.61,93.1Z"/>
      </g>
      <g id="_id3_spbrqqieg-2" data-name="  id3 spbrqqieg">
        <path class="cls-2" d="M462.32,850.74H-155.52l253.98-228.43,67.88-76.86,31.5-28.15,50.99,9.74,29.88,30.31,27.5,54.13,39.62,33.56s27.5,50.88,31.5,62.79,51.75,83.36,51.75,83.36l33.24,59.54Z"/>
      </g>
      <g id="_id4_spbrqqieg-2" data-name="  id4 spbrqqieg">
        <path class="cls-4" d="M462.32,850.74l-37.24-28.15-15.37-12.99-15.26-25.98-21.87-16.24-18.62-18.4-7.25-25.98-34.75-25.98-28.26,5.41,22.63-18.4-6.5-31.4-14.51-21.65-20.24-25.98h-46.12l38.86-19.49-22.63-41.14-37.24-27.06,50.99,9.74,29.88,30.31,27.5,54.13,39.62,33.56s27.5,50.88,31.5,62.79c4.01,11.91,51.75,83.36,51.75,83.36l33.13,59.54Z"/>
      </g>
      <g id="_id5_spbrqqieg-2" data-name="  id5 spbrqqieg">
        <path class="cls-4" d="M653.18,850.74l-53.37-61.71-15.37-28.15-22.63-9.74-17.75-22.73-33.24,6.5,27.5-21.65-62.25-107.18,42.11,50.88,46.88,71.45,35.51,29.23,52.61,93.1Z"/>
      </g>
    </g>
  </g>
</svg>