<?xml version="1.0" encoding="UTF-8"?>
<svg id="Layer_1" data-name="Layer 1" xmlns="http://www.w3.org/2000/svg" viewBox="0 0 1625.01 1080">
  <defs>
    <style>
      .cls-1 {
        fill: #595959;
      }

      .cls-2 {
        fill: #faeec8;
      }

      .cls-3 {
        fill: #a39589;
      }

      .cls-4 {
        fill: #eef8f8;
      }
    </style>
  </defs>
  <rect class="cls-2" x=".29" width="1625.01" height="1080"/>
  <path class="cls-4" d="M126.97,238.55h36.57c-.79,3.86,1.93,2.3,4.16,2.96,53.16,15.74,88.6,50.12,97.56,106.14.51,3.19-1.12,11.21,2.25,12.19,1,.29,16.73-5.09,20.1-5.83,43.92-9.73,88.71-6.66,130.21,10.87,5.16,2.18,28.96,15.9,31.15,15.86,3.45-.06,10.24-14.77,13.64-18.92,40.64-49.53,120.97-17.94,118.89,45.05,43.48-9.73,88.3,6.34,109.93,46.09,32.47,59.66-6.42,132.66-73.36,139.19-.42,11.57,10.26,19.91,9.14,32.62,19.83-3.3,40.28-1.71,58.37,7.57,5.14,2.64,17.52,14.08,21.8,10.82.78-.6,3.14-10.59,4.23-13.02,56.69-126.8,245.6-80.9,234.33,61.87-.9,11.41-6.38,21.91-6.57,33.22,41.15-12.59,81.52,19.86,72.77,62.92-1.06,5.22-9.55,21.78-7.32,24.36.22.26,4.61.99,6.44,2.03,10.3,5.86,20.76,12.16,29.82,19.84,3.37,2.86,14.72,17.3,18.32,14.71.45-.32,3.37-7.25,5.37-9.66,14.71-17.68,41.69-21.77,58.78-5.29,3.27,3.15,8.79,13.79,12.35,13.76,1.21-.01,12.45-6.85,15.45-8.08,29.3-12.01,59.31-11.44,89.7-3.68-.97-32.76,29.41-66.2,62.07-69.13,47.64-4.28,79.15,25.23,85.44,71.18,9.16.62,17.41.71,26.18,3.85,5.95,2.13,20.91,13.36,22.95,13.69,4.96.81,18.02-4.62,24.77-5.22,86.69-7.7,143.66,85.62,89.99,153.83-2.69,3.42-14.08,13.04-14.72,15.4-.69,2.52,3.39,14.51,3.77,19.23.81,9.94-.3,19.82-2.66,29.4,18.41,2.63,36.77,13.65,48.38,28.01,1.57,1.94,3.07,2.94,2.56,5.92H-25.84l-1.31-1.3V366.42c14.33-1.65,27.23-3.62,41.73-1.38,1.34-28.89,10.13-57.76,28.84-80.13,20.09-24.02,40.95-34.62,70.51-43.14,2.17-.62,4.64.25,3.89-3.22h9.14Z"/>
  <path class="cls-4" d="M1230.67,282.2c-3.83-23.77,2.84-43.91,21.31-59.17,10.74-8.87,27.09-13.31,40.94-12.15,3.55.3,7.62,2.68,11.16,1.57,2.08-.65,7.71-10.49,9.73-12.9,23.21-27.7,63.57-33.64,93.88-13.74l14.53,11.14c-2.52-16.81,4.23-30.31,16.54-41.33,27-24.16,101.37-44.98,137.14-43.04,32.26,1.76,86.86,15.27,91,53.93l7.83-.87v134.83c-13.36,2.09-26.97,1.95-40.48,2.62-113.12,5.62-229.82,8.88-343.06.85-40.55-2.87-93.86-7.57-132.8-17.81-.75-.2-7.35-1.36-5.21-3.05,2.34.94,6.03-.87,7.4-.87h70.09Z"/>
  <path class="cls-4" d="M655.7,20.15c1.29.75,3.84-.24,5.88,1.53s1.44,7.22,4.99,8.12c3.87.98,8.85-10.23,17.69-2.94,6.81,5.61,2.17,8.83,3.58,12.92.28.82,4.28,3.47,5.54,4.92,4.07,4.67,4.62,8.85,5.72,14.73,5.48-.75,7.52-3.57,12.57.92,30.08,1.55,60.52,2.51,90.4,4.43,2.6.17,6.29.5,8.87.8,1.3.15,2.65.7,1.28,1.74-10.6.99-21.19.5-31.81.84-78.91,2.49-191.4,5.2-266.65-17.11-1.01-.3-3.68-.72-3.66-1.98,18.24-.12,36.43,2.35,54.68,2.42-.03-3.31,6.52-7.04,6.96-7.82,1.35-2.4-1.53-5.74,4.1-9.4,5.12-3.33,7.33.11,11.13-1.03,1.18-.35,1.91-1.83,2.93-2.32,1.53-.73,5.33-1.63,6.02-2.72.76-1.22-.83-8.1-.5-10.92,1.87-16.15,23.27-23.29,34.84-11.27,1.84,1.91,4.21,8.09,5.22,8.73,2.57,1.61,9.53-4.35,16.99,1.26,1.48,1.11,2.92,3.96,3.24,4.15Z"/>
  <path class="cls-4" d="M1380.29,168.75c.57.29.57.58,0,.87v-.87Z"/>
  <g>
    <g>
      <g id="_id0_spbrqqieg" data-name="  id0 spbrqqieg">
        <path class="cls-1" d="M802.62,1088.64h413.55l-133.16-115.95-19.16-35.83-19.16-29.77-35.4-18.19-1.84-.97-24.68,32.8-40.38,19.16s-11.04,25.77-13.64,27.71c-2.49,2.06-27.71,20.68-27.71,20.68l-17.1,37.35-33.78,18.62-37.35,27.28-10.18,17.1Z"/>
      </g>
      <g id="_id1_spbrqqieg" data-name="  id1 spbrqqieg">
        <path class="cls-3" d="M812.8,1071.53l39.84-17.65,33.78-13.1,41.35-29.77,40.81,4.01-34.32-13.64,26.2-16.13,13.1-23.17,39.41,2.92-35.4-14.61,27.28-33.24,4.44-28.26-1.84-.97-24.68,32.8-40.38,19.16s-11.04,25.77-13.64,27.71c-2.49,2.06-27.71,20.68-27.71,20.68l-17.1,37.35-33.78,18.62-37.35,27.28Z"/>
      </g>
    </g>
    <g>
      <g id="_id2_spbrqqieg" data-name="  id2 spbrqqieg">
        <path class="cls-1" d="M1076.52,1088.64h361.48l-106.74-158.06-63.87-76.86-13.75-9.74-42.11,50.88-46.88,71.45-35.51,29.23-52.61,93.1Z"/>
      </g>
      <g id="_id3_spbrqqieg" data-name="  id3 spbrqqieg">
        <path class="cls-1" d="M1267.38,1088.64h617.83l-253.98-228.43-67.88-76.86-31.5-28.15-50.99,9.74-29.88,30.31-27.5,54.13-39.62,33.56s-27.5,50.88-31.5,62.79c-4.01,11.91-51.75,83.36-51.75,83.36l-33.24,59.54Z"/>
      </g>
      <g id="_id4_spbrqqieg" data-name="  id4 spbrqqieg">
        <path class="cls-3" d="M1267.38,1088.64l37.24-28.15,15.37-12.99,15.26-25.98,21.87-16.24,18.62-18.4,7.25-25.98,34.75-25.98,28.26,5.41-22.63-18.4,6.5-31.4,14.51-21.65,20.24-25.98h46.12l-38.86-19.49,22.63-41.14,37.24-27.06-50.99,9.74-29.88,30.31-27.5,54.13-39.62,33.56s-27.5,50.88-31.5,62.79-51.75,83.36-51.75,83.36l-33.13,59.54Z"/>
      </g>
      <g id="_id5_spbrqqieg" data-name="  id5 spbrqqieg">
        <path class="cls-3" d="M1076.52,1088.64l53.37-61.71,15.37-28.15,22.63-9.74,17.75-22.73,33.24,6.5-27.5-21.65,62.25-107.18-42.11,50.88-46.88,71.45-35.51,29.23-52.61,93.1Z"/>
      </g>
    </g>
  </g>
</svg>