<?xml version="1.0" encoding="UTF-8"?>
<svg id="Layer_1" data-name="Layer 1" xmlns="http://www.w3.org/2000/svg" viewBox="0 0 1625.01 1080">
  <defs>
    <style>
      .cls-1 {
        fill: #595959;
      }

      .cls-2 {
        fill: #faeec8;
      }

      .cls-3 {
        fill: #a39589;
      }

      .cls-4 {
        fill: #ba916e;
      }

      .cls-5 {
        fill: #eef8f8;
      }
    </style>
  </defs>
  <polygon class="cls-4" points="1625.01 1080 0 1080 0 905.89 1625.01 895.15 1625.01 1080"/>
  <polygon class="cls-2" points="1625.01 895.15 0 905.89 0 0 1625.01 0 1625.01 895.15"/>
  <path class="cls-5" d="M1246.99,586.2c-3.83-23.77,2.84-43.91,21.31-59.17,10.74-8.87,27.09-13.31,40.94-12.15,3.55.3,7.62,2.68,11.16,1.57,2.08-.65,7.71-10.49,9.73-12.9,23.21-27.7,63.57-33.64,93.88-13.74l14.53,11.14c-2.52-16.81,4.23-30.31,16.54-41.33,27-24.16,101.37-44.98,137.14-43.04,32.26,1.76,86.86,15.27,91,53.93l7.83-.87v134.83c-13.36,2.09-26.97,1.95-40.48,2.62-113.12,5.62-229.82,8.88-343.06.85-40.55-2.87-93.86-7.57-132.8-17.81-.75-.2-7.35-1.36-5.21-3.05,2.34.94,6.03-.87,7.4-.87h70.09Z"/>
  <path class="cls-5" d="M572.28,379.54c1.29.75,3.84-.24,5.88,1.53,2.13,1.85,1.44,7.22,4.99,8.12,3.87.98,8.85-10.23,17.69-2.94,6.81,5.61,2.17,8.83,3.58,12.92.28.82,4.28,3.47,5.54,4.92,4.07,4.67,4.62,8.85,5.72,14.73,5.48-.75,7.52-3.57,12.57.92,30.08,1.55,60.52,2.51,90.4,4.43,2.6.17,6.29.5,8.87.8,1.3.15,2.65.7,1.28,1.74-10.6.99-21.19.5-31.81.84-78.91,2.49-191.4,5.2-266.65-17.11-1.01-.3-3.68-.72-3.66-1.98,18.24-.12,36.43,2.35,54.68,2.42-.03-3.31,6.52-7.04,6.96-7.82,1.35-2.4-1.53-5.74,4.1-9.4,5.12-3.33,7.33.11,11.13-1.03,1.18-.35,1.91-1.83,2.93-2.32,1.53-.73,5.33-1.63,6.02-2.72.76-1.22-.83-8.1-.5-10.92,1.87-16.15,23.27-23.29,34.84-11.27,1.84,1.91,4.21,8.09,5.22,8.73,2.57,1.61,9.53-4.35,16.99,1.26,1.48,1.11,2.92,3.96,3.24,4.15Z"/>
  <path class="cls-5" d="M1380.29,168.75c.57.29.57.58,0,.87v-.87Z"/>
  <g>
    <g>
      <g id="_id0_spbrqqieg" data-name="  id0 spbrqqieg">
        <path class="cls-1" d="M940.48,919.78h-413.55l133.16-115.95,19.16-35.83,19.16-29.77,35.4-18.19,1.84-.97,24.68,32.8,40.38,19.16s11.04,25.77,13.64,27.71c2.49,2.06,27.71,20.68,27.71,20.68l17.1,37.35,33.78,18.62,37.35,27.28,10.18,17.1Z"/>
      </g>
      <g id="_id1_spbrqqieg" data-name="  id1 spbrqqieg">
        <path class="cls-3" d="M930.3,902.68l-39.84-17.65-33.78-13.1-41.35-29.77-40.81,4.01,34.32-13.64-26.2-16.13-13.1-23.17-39.41,2.92,35.4-14.61-27.28-33.24-4.44-28.26,1.84-.97,24.68,32.8,40.38,19.16s11.04,25.77,13.64,27.71c2.49,2.06,27.71,20.68,27.71,20.68l17.1,37.35,33.78,18.62,37.35,27.28Z"/>
      </g>
    </g>
    <g>
      <g id="_id2_spbrqqieg" data-name="  id2 spbrqqieg">
        <path class="cls-1" d="M666.58,919.78h-361.48l106.74-158.06,63.87-76.86,13.75-9.74,42.11,50.88,46.88,71.45,35.51,29.23,52.61,93.1Z"/>
      </g>
      <g id="_id3_spbrqqieg" data-name="  id3 spbrqqieg">
        <path class="cls-1" d="M475.72,919.78H-142.11l253.98-228.43,67.88-76.86,31.5-28.15,50.99,9.74,29.88,30.31,27.5,54.13,39.62,33.56s27.5,50.88,31.5,62.79,51.75,83.36,51.75,83.36l33.24,59.54Z"/>
      </g>
      <g id="_id4_spbrqqieg" data-name="  id4 spbrqqieg">
        <path class="cls-3" d="M475.72,919.78l-37.24-28.15-15.37-12.99-15.26-25.98-21.87-16.24-18.62-18.4-7.25-25.98-34.75-25.98-28.26,5.41,22.63-18.4-6.5-31.4-14.51-21.65-20.24-25.98h-46.12l38.86-19.49-22.63-41.14-37.24-27.06,50.99,9.74,29.88,30.31,27.5,54.13,39.62,33.56s27.5,50.88,31.5,62.79,51.75,83.36,51.75,83.36l33.13,59.54Z"/>
      </g>
      <g id="_id5_spbrqqieg" data-name="  id5 spbrqqieg">
        <path class="cls-3" d="M666.58,919.78l-53.37-61.71-15.37-28.15-22.63-9.74-17.75-22.73-33.24,6.5,27.5-21.65-62.25-107.18,42.11,50.88,46.88,71.45,35.51,29.23,52.61,93.1Z"/>
      </g>
    </g>
  </g>
  <g>
    <g>
      <g id="_id0_spbrqqieg-2" data-name="  id0 spbrqqieg">
        <path class="cls-1" d="M684.3,933.48h413.55l-133.16-115.95-19.16-35.83-19.16-29.77-35.4-18.19-1.84-.97-24.68,32.8-40.38,19.16s-11.04,25.77-13.64,27.71c-2.49,2.06-27.71,20.68-27.71,20.68l-17.1,37.35-33.78,18.62-37.35,27.28-10.18,17.1Z"/>
      </g>
      <g id="_id1_spbrqqieg-2" data-name="  id1 spbrqqieg">
        <path class="cls-3" d="M694.47,916.38l39.84-17.65,33.78-13.1,41.35-29.77,40.81,4.01-34.32-13.64,26.2-16.13,13.1-23.17,39.41,2.92-35.4-14.61,27.28-33.24,4.44-28.26-1.84-.97-24.68,32.8-40.38,19.16s-11.04,25.77-13.64,27.71c-2.49,2.06-27.71,20.68-27.71,20.68l-17.1,37.35-33.78,18.62-37.35,27.28Z"/>
      </g>
    </g>
    <g>
      <g id="_id2_spbrqqieg-2" data-name="  id2 spbrqqieg">
        <path class="cls-1" d="M958.19,933.48h361.48l-106.74-158.06-63.87-76.86-13.75-9.74-42.11,50.88-46.88,71.45-35.51,29.23-52.61,93.1Z"/>
      </g>
      <g id="_id3_spbrqqieg-2" data-name="  id3 spbrqqieg">
        <path class="cls-1" d="M1149.05,933.48h617.83l-253.98-228.43-67.88-76.86-31.5-28.15-50.99,9.74-29.88,30.31-27.5,54.13-39.62,33.56s-27.5,50.88-31.5,62.79-51.75,83.36-51.75,83.36l-33.24,59.54Z"/>
      </g>
      <g id="_id4_spbrqqieg-2" data-name="  id4 spbrqqieg">
        <path class="cls-3" d="M1149.05,933.48l37.24-28.15,15.37-12.99,15.26-25.98,21.87-16.24,18.62-18.4,7.25-25.98,34.75-25.98,28.26,5.41-22.63-18.4,6.5-31.4,14.51-21.65,20.24-25.98h46.12l-38.86-19.49,22.63-41.14,37.24-27.06-50.99,9.74-29.88,30.31-27.5,54.13-39.62,33.56s-27.5,50.88-31.5,62.79c-4.01,11.91-51.75,83.36-51.75,83.36l-33.13,59.54Z"/>
      </g>
      <g id="_id5_spbrqqieg-2" data-name="  id5 spbrqqieg">
        <path class="cls-3" d="M958.19,933.48l53.37-61.71,15.37-28.15,22.63-9.74,17.75-22.73,33.24,6.5-27.5-21.65,62.25-107.18-42.11,50.88-46.88,71.45-35.51,29.23-52.61,93.1Z"/>
      </g>
    </g>
  </g>
  <path class="cls-5" d="M407.93,196.82c3.83-23.77-2.84-43.91-21.31-59.17-10.74-8.87-27.09-13.31-40.94-12.15-3.55.3-7.62,2.68-11.16,1.57-2.08-.65-7.71-10.49-9.73-12.9-23.21-27.7-63.57-33.64-93.88-13.74l-14.53,11.14c2.52-16.81-4.23-30.31-16.54-41.33-27-24.16-101.37-44.98-137.14-43.04-32.26,1.76-86.86,15.27-91,53.93l-7.83-.87v134.83c13.36,2.09,26.97,1.95,40.48,2.62,113.12,5.62,229.82,8.88,343.06.85,40.55-2.87,93.86-7.57,132.8-17.81.75-.2,7.35-1.36,5.21-3.05-2.34.94-6.03-.87-7.4-.87h-70.09Z"/>
</svg>