<?xml version="1.0" encoding="UTF-8"?>
<svg id="Layer_1" data-name="Layer 1" xmlns="http://www.w3.org/2000/svg" viewBox="0 0 1534.31 2000">
  <defs>
    <style>
      .cls-1 {
        fill: #fffffa;
      }

      .cls-2 {
        fill: #111112;
      }

      .cls-3 {
        fill: #e1b0d1;
      }

      .cls-4 {
        fill: #fff;
      }

      .cls-5 {
        fill: #c9212a;
      }

      .cls-6 {
        fill: #d6a7c7;
      }

      .cls-7 {
        fill: #db9ec7;
      }
    </style>
  </defs>
  <g id="Layer_1-2" data-name="Layer 1">
    <g>
      <path class="cls-6" d="M798.22,1449.94c3.82,9.26,21.12,54.05,0,99.59-24.38,52.52-80.61,64.83-101.63,69.42-35.73,7.84-101.68,10.03-128.81-28.19-9.01-12.72-10.69-26.92-14.1-55.32-4.43-37.4-1.93-68.6,1.02-89.57,81.17,1.32,162.34,2.7,243.51,4.02v.05Z"/>
      <path class="cls-6" d="M1363.72,1235.59c3.16,69.01,12.16,123.87,20.1,161.99,11.04,53.03,21.27,80.1,11.04,119.75-3.41,13.33-15.67,60.97-61.37,86.51-44.33,24.78-89.47,11.7-98.63,9.06-47.43-13.74-72.26-49.77-88.55-73.44-32.88-47.79-39.75-96.79-41.27-123.77,86.21-60.05,172.42-120.1,258.63-180.1h.05Z"/>
      <path class="cls-1" d="M1478.58,374.36c13.79,55.83,39.59,152.47,47.79,251.3,9.82,118.58,22.09,286.11-41.88,475.37-37.35,110.53-73.13,216.39-174.86,300.46-144.33,119.34-329.16,118.63-425.29,118.22-98.78-.41-210.43-19.39-313.64-36.95-56.85-9.67-103.77-19.24-136.29-26.26,1.07-26.87,6.97-64.17,32.01-95.22,62.6-77.66,180.82-36.9,338.27-62.39,52.82-8.55,242.75-39.29,361.22-183.92,106.06-129.42,109.21-294.3,110.84-380.1.61-32.67-24.68-186.72-48.24-270.54-13.79-48.96,81.22.56,66.77-27.12,39.95-32.32-6.77-66.62,33.23-98.93,53.08,17.25,96.95,18.83,150.08,36.08h0Z"/>
      <path class="cls-3" d="M1510.59,511.31c-22.39-16.03-35.42-32.47-43.16-44.43-18.17-28.09-20.05-51.4-44.43-66.01-3.56-2.14-16.85-10.08-25.39-5.04-6.41,3.77-7.18,13.23-7.58,16.49-3.51,27.58-39.39,63-73.64,76.13-47.38,18.22-93.18-5.6-101.53-10.13-55.52,35.57-106.51,52.42-140.92,60.92-43.72,10.84-109.82,51.71-186.67,28.35-10.48-3.21-20.15-9.01-29.11-15.98,5.19-2.9,11.04-6.11,17.61-9.72,47.48-26.06,55.73-28.24,66.36-42.24,15.06-19.85,18.68-41.93,19.59-55.83-56.79,24.73-103.36,43.31-135.73,55.83-5.7,2.19-11.09,4.27-16.18,6.21-.41-.31-.81-.61-1.17-.87-10.28,2.85-32.98,7.58-59.64,0-3.41-1.02-42.54-12.82-64.73-50.79-5.95-10.23-20.25-38.58-11.45-92.67,26.01-159.49,156.13-260.21,156.13-260.21,111.71-86.41,300.05-143.31,446.82-62.19,83.72,46.31,130.03,118.58,158.68,184.02,52.47,119.95,54.66,193.74,76.13,288.14h0Z"/>
      <path class="cls-3" d="M962.29,443.42c-.92,13.89-4.53,35.98-19.59,55.83-10.64,13.99-18.88,16.18-66.36,42.24-2.44,1.32-4.78,2.65-7.02,3.87,15.37-11.65,26.67-23.1,34.61-32.06,11.04-12.47,28.86-32.72,41.48-62.54,5.55-2.39,11.14-4.83,16.9-7.33Z"/>
      <path class="cls-3" d="M1240.11,510.19c7.63-1.48,56.85,140.31,60.05,303.61,1.98,100.92.66,231.86-75.98,355.57-164.73,265.9-568.6,236.44-615.83,232.77-48.35-3.77-83.36-11.25-92.11-12.93-19.44-3.77-93.69-18.07-138.98,8.09-79.03,45.55-56.95,206.36-54.96,219.8,3.97,26.92,21.42,144.53,119.59,205.29,52.82,32.67,104.94,34,164.89,35.57,89.01,2.29,160.31-17.96,203.67-33.94-28.09,32.93-77.91,82.95-153.54,121.22-33.13,16.79-136.64,67.58-258.63,51.71-227.89-29.67-339.49-268.75-352.37-297.41-85.4-190.43-28.75-368.6-11.3-423.46,39.59-124.48,107.13-202.49,169.72-274.76,82.49-95.27,158.47-164.28,294.15-224.68,101.02-44.99,278.02-8.09,278.02-8.09,70.38,17.61,102.8,43.1,179.39,42.04,29.31-.41,94.2-2.14,160-43.66,16.44-10.33,97.05-63.61,118.02-156.79,12.42-55.22,2.09-99.14,6.21-99.95h0Z"/>
      <path class="cls-3" d="M1206.72,1114.82c4.68,111.4,21.37,198.07,36.23,257.61,17.51,70.28,35.62,116.03,15.11,171.04-2.65,7.02-30.79,78.93-100.61,97.61-76.08,20.36-149.57-36.34-182.14-88.55-31.25-50.13-28.6-102.24-27.18-129.82,3.41-66.11,30.53-114.3,45.29-136.85,71.09-57,142.24-114.05,213.33-171.04h-.05Z"/>
      <path class="cls-3" d="M588.91,1348.31c9.26,25.75,20.87,62.85,29.16,108.65,11.14,61.58,16.74,92.37,4.02,122.75-19.9,47.58-73.18,79.9-125.8,83.51-80.76,5.55-132.32-58.42-142.9-72.47-46.31-61.43-49.21-149.98-9.06-227.43,81.53-5.04,163-10.08,244.53-15.11l.05.1Z"/>
      <circle class="cls-2" cx="1138.99" cy="207.8" r="121.73"/>
      <circle class="cls-4" cx="1090.33" cy="164.74" r="35.52"/>
      <circle class="cls-4" cx="1166.11" cy="149.73" r="12.16"/>
      <circle class="cls-7" cx="876.95" cy="149.73" r="40.92"/>
      <circle class="cls-7" cx="805.91" cy="175.58" r="15.06"/>
      <circle class="cls-7" cx="1001.73" cy="453.19" r="29.57"/>
      <circle class="cls-7" cx="1399.6" cy="293.65" r="6.21"/>
      <circle class="cls-7" cx="1191" cy="776.14" r="30.99"/>
      <circle class="cls-7" cx="1073.54" cy="976.81" r="57.1"/>
      <circle class="cls-7" cx="980.51" cy="961.64" r="31.25"/>
      <circle class="cls-7" cx="980.51" cy="1050.19" r="31.25"/>
      <circle class="cls-7" cx="1042.55" cy="1417.27" r="42.39"/>
      <circle class="cls-7" cx="706.46" cy="860.98" r="26.11"/>
      <circle class="cls-7" cx="472.88" cy="878.94" r="30.99"/>
      <circle class="cls-7" cx="575.98" cy="1089.38" r="47.33"/>
      <circle class="cls-7" cx="592.27" cy="1167.65" r="27.74"/>
      <circle class="cls-7" cx="349.21" cy="1089.38" r="22.85"/>
      <circle class="cls-7" cx="52.31" cy="1399.3" r="46.57"/>
      <circle class="cls-7" cx="156.69" cy="1618.74" r="26.62"/>
      <circle class="cls-7" cx="223.61" cy="1750.04" r="29.36"/>
      <circle class="cls-7" cx="393.23" cy="1926.23" r="21.22"/>
      <path class="cls-5" d="M962.29,443.42c-.92,13.89-4.53,35.98-19.59,55.83-10.64,13.99-18.88,16.18-66.36,42.24-2.44,1.32-4.78,2.65-7.02,3.87,15.37-11.65,26.67-23.1,34.61-32.06,11.04-12.47,28.86-32.72,41.48-62.54,5.55-2.39,11.14-4.83,16.9-7.33Z"/>
    </g>
  </g>
</svg>