<?xml version="1.0" encoding="UTF-8"?>
<svg id="Layer_1" data-name="Layer 1" xmlns="http://www.w3.org/2000/svg" viewBox="0 0 735 670">
  <defs>
    <style>
      .cls-1 {
        fill: #020202;
      }
    </style>
  </defs>
  <path d="M415.33,175.5c0,6.16.02,12.34,0,18.5-6.33,0-12.67,0-19,0,.02-6.16-.02-12.34,0-18.5,6.33.01,12.68,0,19,0Z"/>
  <path d="M471.33,175.5c6.33,0,12.67,0,19,0v18.5c-6.33.02-12.67-.02-19,0,0-6.16.02-12.34,0-18.5Z"/>
  <path d="M377.83,194c-6.33-.02-12.67.02-19,0v-18.5h19c0,6.16-.01,12.34,0,18.5,6.16.02,12.34,0,18.5,0-.02,6.33,0,12.67,0,19-6.16,0-12.34,0-18.5,0,0-6.33.02-12.68,0-19Z"/>
  <path d="M433.83,194c.05,12.49-.04,25.01,0,37.5-12.49.03-25.01-.05-37.5,0,0-6.16,0-12.34,0-18.5,6.33,0,12.68,0,19,0,.01-6.33-.03-12.68,0-19,6.16,0,12.34,0,18.5,0Z"/>
  <path d="M321.33,175.5c6.33,0,12.67,0,19,0v37.5h18.5v18.5h-18.5v19c12.49.01,25.01-.02,37.5,0,0,6.16,0,12.34,0,18.5h18.5c.02-6.16-.02-12.34,0-18.5,6.33.02,12.67-.02,19,0v18.5c6.16.02,12.34-.02,18.5,0-.05,12.49.04,25.01,0,37.5h19v19h18.5v19h19v-19h37.5v19h19v-38h-38v-18.5h19v-37.5h37.5v-19h-18.5v-18.5h56c.02,6.16-.02,12.34,0,18.5,6.33-.02,12.67.02,19,0,.02-6.16-.02-12.34,0-18.5h18.5v18.5c-6.16.02-12.34-.02-18.5,0-.07,18.82.05,37.68,0,56.5h-19c-.05-18.82.07-37.68,0-56.5-6.16.02-12.34-.02-18.5,0v37.5h-37.5v19h18.5v18.5h37.5c-.04,12.66.05,25.34,0,38-6.16-.02-12.34.02-18.5,0v-19h-19v37.5h-37.5v19h19v18.5h-38v-37.5h-18.5v37.5h-19v-37.5h-18.5c-.05,18.82.07,37.68,0,56.5-12.49-.05-25.01.04-37.5,0v-19h18.5v-18.5c-12.49,0-25.01.01-37.5,0,.01-6.33-.01-12.67,0-19h19v-75h-19v37.5h-37.5v-19h19v-18.5h-19v-19h-18.5v37.5h-19v-18.5c-12.49-.01-25.01.02-37.5,0,.02-6.33-.02-12.67,0-19h19v-18.5h-38c0,12.49.01,25.01,0,37.5-6.16-.02-12.34.02-18.5,0v-19h-37.5c.02-6.16-.02-12.34,0-18.5h37.5v-37.5h18.5c.02-6.33-.02-12.67,0-19,6.32.02,12.68.02,19,0,.05,12.49-.04,25.01,0,37.5h37.5c-.01-18.66.02-37.34,0-56Z"/>
  <path d="M471.33,194c.01,12.49.05,25.01,0,37.5-6.16-.02-12.34.02-18.5,0,.04-12.49-.04-25.01,0-37.5,6.16,0,12.34.02,18.5,0Z"/>
  <path d="M114.83,269c-6.16-.02-12.34.02-18.5,0v-56h75v18.5h-19v19h-18.5v-19h-19c0,12.49.01,25.01,0,37.5,12.49.05,25.01-.04,37.5,0v37.5h19v19h18.5v-19c6.33-.01,12.67.01,19,0,.02,6.33-.02,12.67,0,19h18.5v19h-37.5v18.5h56.5v-37.5c6.16,0,12.34.01,18.5,0,.02,18.83,0,37.68,0,56.5,12.66,0,25.34-.02,38,0,0,6.16,0,12.34,0,18.5h-19v19h19v37.5h-19v18.5h-37.5v-18.5h18.5v-56.5h-18.5v-18.5h-37.5c0,6.16,0,12.34,0,18.5,6.16.02,12.34-.02,18.5,0v19h-18.5c0-6.33,0-12.67,0-19-6.33-.02-12.67.02-19,0-.02-6.16.02-12.34,0-18.5-6.16,0-12.34.02-18.5,0-.01-6.33.01-12.67,0-19h-19v19c6.33.01,12.67-.01,19,0,.01,6.16,0,12.34,0,18.5,6.16.01,12.34-.03,18.5,0,.05,12.49-.05,25.01,0,37.5,12.49-.05,25.01.04,37.5,0v19h-37.5c-.02-6.33.02-12.67,0-19-6.16.02-12.34-.02-18.5,0v19h-19v-19c-6.16,0-12.34,0-18.5,0-.01,6.33.01,12.67,0,19h-19v-19c6.33,0,12.67,0,19,0,.01-6.16,0-12.34,0-18.5h18.5v-19h-18.5v-18.5h-37.5v-19h37.5v-18.5h18.5v-19h-18.5v-37.5c-6.33,0-12.67,0-19,0-.01,12.49,0,25.01,0,37.5h-18.5v-37.5c6.16,0,12.34,0,18.5,0,0-6.33,0-12.67,0-19Z"/>
  <path d="M264.83,156.5c-6.16,0-12.34,0-18.5,0v-56h18.5v-19h-18.5v-19h37.5v19h75v-19h56.5v38h18.5v56h37.5c.02,6.33-.02,12.67,0,19-6.16,0-12.34,0-18.5,0-.01,6.16.03,12.34,0,18.5-6.33,0-12.67,0-19,0-.02-6.16.02-12.34,0-18.5-6.16,0-12.34.01-18.5,0,.02-18.82-.01-37.68,0-56.5h-19v37.5h-18.5v-18.5h-19v-19h19c0-6.16-.01-12.34,0-18.5,6.16-.02,12.34.02,18.5,0v-19h-18.5c-.01,6.33.01,12.67,0,19-12.49.05-25.01-.04-37.5,0v18.5h-37.5v-18.5h-19c-.04,12.49.05,25.01,0,37.5-6.33.02-12.68-.01-19,0-.01,6.16.03,12.34,0,18.5Z"/>
  <path d="M490.33,231.5c0-6.16,0-12.34,0-18.5h18.5v18.5c-6.16.02-12.34-.02-18.5,0,0,6.33,0,12.67,0,19h18.5v18.5h-18.5v37.5h-19v-37.5c-12.49-.04-25.01.05-37.5,0,.02-6.16-.02-12.34,0-18.5h37.5c.02-6.33-.02-12.67,0-19,6.32.02,12.68.02,19,0Z"/>
  <path d="M396.33,231.5c0,6.33.02,12.67,0,19-6.16-.02-12.34,0-18.5,0,0-6.33,0-12.68,0-19,6.16-.01,12.34.03,18.5,0Z"/>
  <path d="M264.83,175.5c-.01,6.16.02,12.34,0,18.5-6.16-.02-12.34.02-18.5,0v-18.5c6.16,0,12.34,0,18.5,0Z"/>
  <path d="M283.83,138c12.49-.05,25.01.04,37.5,0,0,12.49-.02,25.01,0,37.5-6.16,0-12.34,0-18.5,0v18.5c-6.33.02-12.67-.02-19,0-.02-6.16.02-12.34,0-18.5-6.33.01-12.68,0-19,0,.01-6.33-.02-12.67,0-19,6.33,0,12.68,0,19,0,.01-6.16-.03-12.34,0-18.5Z"/>
  <path d="M208.83,269c-.02,6.32,0,12.67,0,19-12.49-.05-25.01.04-37.5,0v-19h37.5Z"/>
  <path d="M621.83,550.5c6.16,0,12.34,0,18.5,0v38c-6.16.02-12.34-.02-18.5,0,.05-12.66-.05-25.34,0-38Z"/>
  <path d="M471.33,532c-.02,6.16.02,12.34,0,18.5-6.16,0-12.34-.01-18.5,0,0-6.16,0-12.34,0-18.5,6.16,0,12.34.01,18.5,0Z"/>
  <path d="M208.83,288c6.16.02,12.34-.02,18.5,0v18.5c-6.16,0-12.34-.01-18.5,0-.02-6.16,0-12.34,0-18.5Z"/>
  <path d="M283.83,288c-.05,12.49.03,25.01,0,37.5-6.33,0-12.68-.02-19,0-.01-12.49-.01-25.01,0-37.5,6.33.02,12.67,0,19,0Z"/>
  <path d="M321.33,344.5c0-6.33,0-12.67,0-19h19c.02,6.33-.02,12.67,0,19-6.32-.02-12.68,0-19,0Z"/>
  <path d="M396.33,532c12.49,0,25.01,0,37.5,0v18.5c6.33,0,12.67,0,19,0,0,6.33,0,12.67,0,19h18.5v19c-12.49-.04-25.01.05-37.5,0,0-6.33,0-12.67,0-19h-18.5v19c6.16.02,12.34-.02,18.5,0,0,6.16,0,12.34,0,18.5h-37.5v-37.5h-18.5c-.02-6.33.02-12.67,0-19,6.16,0,12.34,0,18.5,0,.01-6.16-.03-12.34,0-18.5Z"/>
  <path d="M321.33,344.5c0,6.16,0,12.34,0,18.5,6.33-.01,12.68,0,19,0,0,6.33.02,12.68,0,19-12.49,0-25.01.01-37.5,0,0-6.33,0-12.67,0-19h-19v-18.5c12.49,0,25.01,0,37.5,0Z"/>
  <path d="M377.83,532c.02,6.16-.02,12.34,0,18.5-6.33,0-12.67,0-19,0v-18.5c6.33-.02,12.67.02,19,0Z"/>
  <path d="M340.33,344.5c6.16.02,12.34-.02,18.5,0v18.5c-6.16,0-12.34,0-18.5,0,0-6.16.02-12.34,0-18.5Z"/>
  <path d="M602.83,344.5c12.49.05,25.01-.04,37.5,0v18.5h-18.5v56.5h18.5v37.5c-6.16.02-12.34-.02-18.5,0-.02-6.33.02-12.67,0-19h-19c-.02,6.33.02,12.67,0,19-6.16-.02-12.34.02-18.5,0v-37.5h-19v-19h37.5v-18.5h-18.5v-19h18.5c.02-6.16-.02-12.34,0-18.5Z"/>
  <path d="M396.33,382c-.01,6.16,0,12.34,0,18.5h-37.5v19h-18.5c-.02,6.16.02,12.34,0,18.5-6.33-.01-12.67.01-19,0v-37.5h19c.02-6.16-.02-12.34,0-18.5,18.66,0,37.34-.02,56,0Z"/>
  <path d="M621.83,457c.05,12.49-.04,25.01,0,37.5-6.33-.01-12.68,0-19,0-.05-12.49-.05-25.01,0-37.5,6.32.02,12.68.02,19,0Z"/>
  <path d="M340.33,457c.02,6.16-.02,12.34,0,18.5h18.5c0-6.16,0-12.34,0-18.5,6.33.02,12.67-.02,19,0v18.5h18.5c-.05,18.82.07,37.68,0,56.5-6.16,0-12.34-.02-18.5,0-.02-6.33.02-12.67,0-19h-75v-37.5h18.5v-18.5c6.33-.02,12.67.02,19,0Z"/>
  <path d="M621.83,588.5c-.02,6.16.02,12.34,0,18.5h-19c-.02-6.16.02-12.34,0-18.5,6.33-.02,12.67.02,19,0Z"/>
  <path d="M452.83,419.5c6.16.02,12.34-.02,18.5,0v18.5h19v-18.5h37.5v18.5h37.5v37.5h19v19c6.16,0,12.34,0,18.5,0,.02,6.16-.02,12.34,0,18.5h37.5v19h-18.5c-.02,6.16.02,12.34,0,18.5-6.33,0-12.68,0-19,0,.04,12.66-.05,25.34,0,38-6.16.02-12.34-.02-18.5,0v18.5h-19v-37.5h-37.5v-19h19v-18.5h-38v18.5h-18.5v-18.5c-6.33,0-12.67,0-19,0,.09-24.99-.07-50.01,0-75h-56v-19h37.5c.02-6.16-.02-12.34,0-18.5ZM546.83,457h-56.5v56h56.5v-56ZM584.33,513h-19v37.5h19v-37.5Z"/>
  <path d="M340.33,438c6.16.01,12.34,0,18.5,0-.01,6.33,0,12.68,0,19-6.16-.02-12.34-.02-18.5,0-.02-6.32-.02-12.68,0-19Z"/>
  <path class="cls-1" d="M227.83,63v130.75c0,.05-.7.75-.75.75H95.83V63h132ZM208.83,82h-94v93.5h94v-93.5Z"/>
  <path class="cls-1" d="M640.83,63v131.5h-131.5V63h131.5ZM621.83,82h-93.5v93.5h93.5v-93.5Z"/>
  <path class="cls-1" d="M227.83,476v130.75c0,.05-.7.75-.75.75H96.58c-.05,0-.75-.7-.75-.75v-130.75h132ZM208.83,588.5v-93.25c0-.05-.7-.75-.75-.75h-93.25v94h94Z"/>
  <path d="M264.83,532c-.05-12.49.04-25.01,0-37.5h19v37.5c-6.33.01-12.67-.01-19,0,.02,6.16-.02,12.34,0,18.5h38c.02,6.33-.02,12.67,0,19,6.16,0,12.34,0,18.5,0,0,6.33,0,12.68,0,19,6.33-.01,12.68,0,19,0-.02,6.16.02,12.34,0,18.5h-37.5c-.03-12.49.05-25.01,0-37.5-12.66.01-25.34,0-38,0v37.5h-18.5v-75c6.16,0,12.34.01,18.5,0Z"/>
  <path d="M340.33,569.5c6.16.02,12.34-.02,18.5,0v19c-6.16,0-12.34,0-18.5,0,.02-6.32.02-12.68,0-19Z"/>
  <path d="M321.33,569.5v-19h19c.02,6.33-.02,12.67,0,19-6.33-.02-12.67,0-19,0Z"/>
  <rect x="508.83" y="588.5" width="38" height="18.5"/>
  <rect x="471.33" y="62.5" width="19" height="19"/>
  <rect x="433.83" y="62.5" width="19" height="19"/>
  <rect x="471.33" y="100.5" width="19" height="18.5"/>
  <rect x="96.33" y="400.5" width="18.5" height="19"/>
  <rect x="208.83" y="213" width="18.5" height="18.5"/>
  <rect x="433.83" y="475.5" width="19" height="37.5"/>
  <rect x="377.83" y="419.5" width="18.5" height="18.5"/>
  <rect x="508.83" y="475.5" width="19" height="19"/>
  <path class="cls-1" d="M189.83,100.5v55.75c0,.05-.7.75-.75.75h-55c-.05,0-.75-.7-.75-.75v-55.75h56.5Z"/>
  <path class="cls-1" d="M603.33,100.5v55.75c0,.05-.7.75-.75.75h-55.75v-56.5h56.5Z"/>
  <path class="cls-1" d="M189.83,513.5v55.75c0,.05-.7.75-.75.75h-55c-.05,0-.75-.7-.75-.75v-55.75h56.5Z"/>
</svg>